<svg xmlns="http://www.w3.org/2000/svg" xmlns:xlink="http://www.w3.org/1999/xlink" viewBox="0 0 160 160"><path d="M 132.545 38.807 C 132.295 38.079 131.51 37.682 130.775 37.914 C 128.944 38.686 127.101 39.442 125.256 40.213 C 127.564 44.544 129.322 49.146 130.488 53.913 C 128.301 49.448 125.65 45.225 122.579 41.314 C 120.735 42.087 118.859 42.857 116.999 43.628 C 116.687 43.777 116.476 44.077 116.441 44.421 C 116.407 44.765 116.555 45.102 116.833 45.308 C 122.849 51.044 128.004 57.62 132.138 64.831 C 132.607 65.663 134.013 65.134 134.195 64.045 C 135.56 55.615 134.996 46.985 132.545 38.805 Z" fill="transparent" stroke-width="0.8" stroke="rgb(32,41,57)" stroke-linecap="round" stroke-linejoin="round" stroke-dasharray=""></path><path d="M 70.104 16.38 C 68.721 16.503 67.344 16.679 65.975 16.908 C 65.862 16.929 65.787 17.038 65.808 17.151 C 65.829 17.264 65.938 17.339 66.051 17.318 C 67.397 17.09 68.791 16.953 70.15 16.788 C 70.261 16.772 70.34 16.673 70.331 16.561 C 70.314 16.451 70.215 16.372 70.104 16.38 Z M 61.893 17.726 C 60.554 18.074 59.2 18.421 57.885 18.829 C 57.805 18.854 57.748 18.924 57.742 19.008 C 57.735 19.091 57.78 19.17 57.855 19.207 C 57.9 19.235 57.955 19.241 58.005 19.223 C 61.647 18.08 62.24 18.249 62.135 17.878 C 62.109 17.77 62.002 17.703 61.893 17.726 Z M 53.953 20.22 C 52.665 20.734 51.395 21.289 50.142 21.884 C 50.053 21.932 50.011 22.037 50.042 22.134 C 50.052 22.164 50.068 22.192 50.09 22.216 C 50.143 22.269 50.223 22.282 50.29 22.248 C 54.009 20.479 54.349 20.682 54.207 20.341 C 54.191 20.29 54.155 20.248 54.107 20.225 C 54.058 20.202 54.002 20.201 53.953 20.221 Z M 39.51 28.42 C 38.408 29.255 37.339 30.133 36.305 31.05 C 36.256 31.096 36.232 31.162 36.241 31.229 C 36.25 31.295 36.29 31.353 36.35 31.384 C 36.63 31.523 36.857 30.922 39.753 28.752 C 39.84 28.683 39.857 28.559 39.792 28.469 C 39.727 28.38 39.603 28.358 39.511 28.419 Z M 46.467 23.79 C 45.255 24.469 44.07 25.195 42.914 25.967 C 42.691 26.116 42.906 26.487 43.14 26.299 C 46.542 24.063 46.941 24.169 46.74 23.865 C 46.714 23.819 46.67 23.785 46.619 23.771 C 46.568 23.757 46.513 23.764 46.467 23.79 Z M 78.408 16.153 C 77.03 16.123 75.622 16.073 74.248 16.108 C 73.918 16.108 74.09 16.603 74.264 16.516 C 78.014 16.432 78.604 16.763 78.604 16.365 C 78.603 16.254 78.518 16.163 78.408 16.153 Z M 94.726 19.192 C 93.401 18.784 92.064 18.362 90.733 18.014 C 90.635 17.996 90.538 18.051 90.505 18.145 C 90.471 18.238 90.51 18.343 90.597 18.391 C 90.612 18.406 90.627 18.406 90.627 18.391 C 94.599 19.426 94.744 19.807 94.847 19.45 C 94.857 19.425 94.862 19.398 94.861 19.371 C 94.859 19.288 94.805 19.216 94.726 19.192 Z M 86.678 17.105 C 85.312 16.879 83.941 16.637 82.565 16.485 C 82.453 16.476 82.354 16.556 82.338 16.667 C 82.27 17.071 82.736 16.775 86.603 17.514 C 86.657 17.525 86.714 17.513 86.759 17.482 C 86.805 17.45 86.836 17.402 86.845 17.347 C 86.861 17.264 86.825 17.18 86.754 17.135 C 86.731 17.12 86.705 17.11 86.678 17.105 Z M 121.79 37.869 C 120.914 36.79 119.996 35.745 119.038 34.738 C 119.003 34.696 118.952 34.671 118.898 34.668 C 118.844 34.666 118.79 34.685 118.751 34.723 C 118.467 34.962 118.815 34.901 121.472 38.111 C 121.583 38.326 121.99 38.106 121.79 37.869 Z M 112.931 29.097 C 112.889 29.063 112.835 29.047 112.781 29.053 C 112.726 29.058 112.677 29.086 112.643 29.128 C 112.626 29.149 112.614 29.172 112.607 29.198 C 112.59 29.25 112.596 29.307 112.623 29.355 C 112.636 29.378 112.653 29.398 112.674 29.415 C 113.423 30.018 115.17 31.458 115.849 32.138 C 115.94 32.182 116.05 32.154 116.109 32.072 C 116.168 31.99 116.159 31.877 116.088 31.805 C 115.096 30.848 114.004 29.959 112.931 29.097 Z M 109.574 26.618 C 108.434 25.826 107.264 25.079 106.065 24.38 C 105.968 24.335 105.853 24.366 105.793 24.455 C 105.587 24.764 106.142 24.727 109.347 26.951 C 109.362 26.951 109.362 26.965 109.377 26.965 C 109.472 27.01 109.585 26.975 109.637 26.883 C 109.689 26.792 109.661 26.676 109.574 26.618 Z M 102.436 22.413 C 102.175 22.268 100.207 21.315 98.64 20.674 C 98.604 20.658 98.564 20.652 98.525 20.658 C 98.466 20.667 98.414 20.701 98.383 20.751 C 98.351 20.802 98.343 20.863 98.36 20.92 C 98.376 20.97 98.412 21.013 98.458 21.037 C 99.755 21.546 101.023 22.127 102.255 22.777 C 102.355 22.824 102.474 22.782 102.522 22.683 C 102.572 22.585 102.534 22.464 102.436 22.413 Z" fill="rgb(46,144,250)"></path><path d="M 70.104 16.38 C 68.721 16.503 67.344 16.679 65.975 16.908 C 65.862 16.929 65.787 17.038 65.808 17.151 C 65.829 17.264 65.938 17.339 66.051 17.318 C 67.397 17.09 68.791 16.953 70.15 16.788 C 70.261 16.772 70.34 16.673 70.331 16.561 C 70.314 16.451 70.215 16.372 70.104 16.38 Z M 61.893 17.726 C 60.554 18.074 59.2 18.421 57.885 18.829 C 57.805 18.854 57.748 18.924 57.742 19.008 C 57.735 19.091 57.78 19.17 57.855 19.207 C 57.9 19.235 57.955 19.241 58.005 19.223 C 61.647 18.08 62.24 18.249 62.135 17.878 C 62.109 17.77 62.002 17.703 61.893 17.726 Z M 53.953 20.22 C 52.665 20.734 51.395 21.289 50.142 21.884 C 50.053 21.932 50.011 22.037 50.042 22.134 C 50.052 22.164 50.068 22.192 50.09 22.216 C 50.143 22.269 50.223 22.282 50.29 22.248 C 54.009 20.479 54.349 20.682 54.207 20.341 C 54.191 20.29 54.155 20.248 54.107 20.225 C 54.058 20.202 54.002 20.201 53.953 20.221 Z M 39.51 28.42 C 38.408 29.255 37.339 30.133 36.305 31.05 C 36.256 31.096 36.232 31.162 36.241 31.229 C 36.25 31.295 36.29 31.353 36.35 31.384 C 36.63 31.523 36.857 30.922 39.753 28.752 C 39.84 28.683 39.857 28.559 39.792 28.469 C 39.727 28.38 39.603 28.358 39.511 28.419 Z M 46.467 23.79 C 45.255 24.469 44.07 25.195 42.914 25.967 C 42.691 26.116 42.906 26.487 43.14 26.299 C 46.542 24.063 46.941 24.169 46.74 23.865 C 46.714 23.819 46.67 23.785 46.619 23.771 C 46.568 23.757 46.513 23.764 46.467 23.79 Z M 78.408 16.153 C 77.03 16.123 75.622 16.073 74.248 16.108 C 73.918 16.108 74.09 16.603 74.264 16.516 C 78.014 16.432 78.604 16.763 78.604 16.365 C 78.603 16.254 78.518 16.163 78.408 16.153 Z M 94.726 19.192 C 93.401 18.784 92.064 18.362 90.733 18.014 C 90.635 17.996 90.538 18.051 90.505 18.145 C 90.471 18.238 90.51 18.343 90.597 18.391 C 90.612 18.406 90.627 18.406 90.627 18.391 C 94.599 19.426 94.744 19.807 94.847 19.45 C 94.857 19.425 94.862 19.398 94.861 19.371 C 94.859 19.288 94.805 19.216 94.726 19.192 Z M 86.678 17.105 C 85.312 16.879 83.941 16.637 82.565 16.485 C 82.453 16.476 82.354 16.556 82.338 16.667 C 82.27 17.071 82.736 16.775 86.603 17.514 C 86.657 17.525 86.714 17.513 86.759 17.482 C 86.805 17.45 86.836 17.402 86.845 17.347 C 86.861 17.264 86.825 17.18 86.754 17.135 C 86.731 17.12 86.705 17.11 86.678 17.105 Z M 121.79 37.869 C 120.914 36.79 119.996 35.745 119.038 34.738 C 119.003 34.696 118.952 34.671 118.898 34.668 C 118.844 34.666 118.79 34.685 118.751 34.723 C 118.467 34.962 118.815 34.901 121.472 38.111 C 121.583 38.326 121.99 38.106 121.79 37.869 Z M 112.931 29.097 C 112.889 29.063 112.835 29.047 112.781 29.053 C 112.726 29.058 112.677 29.086 112.643 29.128 C 112.626 29.149 112.614 29.172 112.607 29.198 C 112.59 29.25 112.596 29.307 112.623 29.355 C 112.636 29.378 112.653 29.398 112.674 29.415 C 113.423 30.018 115.17 31.458 115.849 32.138 C 115.94 32.182 116.05 32.154 116.109 32.072 C 116.168 31.99 116.159 31.877 116.088 31.805 C 115.096 30.848 114.004 29.959 112.931 29.097 Z M 109.574 26.618 C 108.434 25.826 107.264 25.079 106.065 24.38 C 105.968 24.335 105.853 24.366 105.793 24.455 C 105.587 24.764 106.142 24.727 109.347 26.951 C 109.362 26.951 109.362 26.965 109.377 26.965 C 109.472 27.01 109.585 26.975 109.637 26.883 C 109.689 26.792 109.661 26.676 109.574 26.618 Z M 102.436 22.413 C 102.175 22.268 100.207 21.315 98.64 20.674 C 98.604 20.658 98.564 20.652 98.525 20.658 C 98.466 20.667 98.414 20.701 98.383 20.751 C 98.351 20.802 98.343 20.863 98.36 20.92 C 98.376 20.97 98.412 21.013 98.458 21.037 C 99.755 21.546 101.023 22.127 102.255 22.777 C 102.355 22.824 102.474 22.782 102.522 22.683 C 102.572 22.585 102.534 22.464 102.436 22.413 Z" fill="rgb(46,144,250)"></path><path d="M 70.104 16.38 C 68.721 16.503 67.344 16.679 65.975 16.908 C 65.862 16.929 65.787 17.038 65.808 17.151 C 65.829 17.264 65.938 17.339 66.051 17.318 C 67.397 17.09 68.791 16.953 70.15 16.788 C 70.261 16.772 70.34 16.673 70.331 16.561 C 70.314 16.451 70.215 16.372 70.104 16.38 Z M 61.893 17.726 C 60.554 18.074 59.2 18.421 57.885 18.829 C 57.805 18.854 57.748 18.924 57.742 19.008 C 57.735 19.091 57.78 19.17 57.855 19.207 C 57.9 19.235 57.955 19.241 58.005 19.223 C 61.647 18.08 62.24 18.249 62.135 17.878 C 62.109 17.77 62.002 17.703 61.893 17.726 Z M 53.953 20.22 C 52.665 20.734 51.395 21.289 50.142 21.884 C 50.053 21.932 50.011 22.037 50.042 22.134 C 50.052 22.164 50.068 22.192 50.09 22.216 C 50.143 22.269 50.223 22.282 50.29 22.248 C 54.009 20.479 54.349 20.682 54.207 20.341 C 54.191 20.29 54.155 20.248 54.107 20.225 C 54.058 20.202 54.002 20.201 53.953 20.221 Z M 39.51 28.42 C 38.408 29.255 37.339 30.133 36.305 31.05 C 36.256 31.096 36.232 31.162 36.241 31.229 C 36.25 31.295 36.29 31.353 36.35 31.384 C 36.63 31.523 36.857 30.922 39.753 28.752 C 39.84 28.683 39.857 28.559 39.792 28.469 C 39.727 28.38 39.603 28.358 39.511 28.419 Z M 46.467 23.79 C 45.255 24.469 44.07 25.195 42.914 25.967 C 42.691 26.116 42.906 26.487 43.14 26.299 C 46.542 24.063 46.941 24.169 46.74 23.865 C 46.714 23.819 46.67 23.785 46.619 23.771 C 46.568 23.757 46.513 23.764 46.467 23.79 Z M 78.408 16.153 C 77.03 16.123 75.622 16.073 74.248 16.108 C 73.918 16.108 74.09 16.603 74.264 16.516 C 78.014 16.432 78.604 16.763 78.604 16.365 C 78.603 16.254 78.518 16.163 78.408 16.153 Z M 94.726 19.192 C 93.401 18.784 92.064 18.362 90.733 18.014 C 90.635 17.996 90.538 18.051 90.505 18.145 C 90.471 18.238 90.51 18.343 90.597 18.391 C 90.612 18.406 90.627 18.406 90.627 18.391 C 94.599 19.426 94.744 19.807 94.847 19.45 C 94.857 19.425 94.862 19.398 94.861 19.371 C 94.859 19.288 94.805 19.216 94.726 19.192 Z M 86.678 17.105 C 85.312 16.879 83.941 16.637 82.565 16.485 C 82.453 16.476 82.354 16.556 82.338 16.667 C 82.27 17.071 82.736 16.775 86.603 17.514 C 86.657 17.525 86.714 17.513 86.759 17.482 C 86.805 17.45 86.836 17.402 86.845 17.347 C 86.861 17.264 86.825 17.18 86.754 17.135 C 86.731 17.12 86.705 17.11 86.678 17.105 Z M 121.79 37.869 C 120.914 36.79 119.996 35.745 119.038 34.738 C 119.003 34.696 118.952 34.671 118.898 34.668 C 118.844 34.666 118.79 34.685 118.751 34.723 C 118.467 34.962 118.815 34.901 121.472 38.111 C 121.583 38.326 121.99 38.106 121.79 37.869 Z M 112.931 29.097 C 112.889 29.063 112.835 29.047 112.781 29.053 C 112.726 29.058 112.677 29.086 112.643 29.128 C 112.626 29.149 112.614 29.172 112.607 29.198 C 112.59 29.25 112.596 29.307 112.623 29.355 C 112.636 29.378 112.653 29.398 112.674 29.415 C 113.423 30.018 115.17 31.458 115.849 32.138 C 115.94 32.182 116.05 32.154 116.109 32.072 C 116.168 31.99 116.159 31.877 116.088 31.805 C 115.096 30.848 114.004 29.959 112.931 29.097 Z M 109.574 26.618 C 108.434 25.826 107.264 25.079 106.065 24.38 C 105.968 24.335 105.853 24.366 105.793 24.455 C 105.587 24.764 106.142 24.727 109.347 26.951 C 109.362 26.951 109.362 26.965 109.377 26.965 C 109.472 27.01 109.585 26.975 109.637 26.883 C 109.689 26.792 109.661 26.676 109.574 26.618 Z M 102.436 22.413 C 102.175 22.268 100.207 21.315 98.64 20.674 C 98.604 20.658 98.564 20.652 98.525 20.658 C 98.466 20.667 98.414 20.701 98.383 20.751 C 98.351 20.802 98.343 20.863 98.36 20.92 C 98.376 20.97 98.412 21.013 98.458 21.037 C 99.755 21.546 101.023 22.127 102.255 22.777 C 102.355 22.824 102.474 22.782 102.522 22.683 C 102.572 22.585 102.534 22.464 102.436 22.413 Z M 112.114 95.544 C 122.585 76.384 116.387 52.386 97.948 40.693 C 83.884 31.777 65.848 32.15 52.165 41.64 M 36.958 61.191 C 30.02 79.776 37.233 100.671 54.158 111.018 C 71.084 121.365 92.97 118.259 106.348 103.611" fill="transparent" stroke-width="0.8" stroke="rgb(32,41,57)" stroke-linecap="round" stroke-linejoin="round" stroke-dasharray=""></path><path d="M 92.816 37.914 C 90.592 40.515 88.096 42.77 86.056 42.874 C 81.821 43.112 76.529 42.133 74.532 49.543 C 73.08 54.943 66.88 61.051 69.194 63.668 C 72.219 67.085 83.939 63.907 85.708 67.554 C 87.478 71.201 84.258 74.738 87.011 76.02 C 90.156 77.5 101.26 69.198 105.687 70.334 C 110.179 71.498 110.33 76.262 113.022 76.851 C 114.452 77.073 115.915 76.813 117.18 76.111 C 117.339 59.678 107.784 44.699 92.816 37.914 Z" fill="rgb(46,144,250)"></path><path d="M 92.816 37.914 C 90.592 40.515 88.096 42.77 86.056 42.874 C 81.821 43.112 76.529 42.133 74.532 49.543 C 73.08 54.943 66.88 61.051 69.194 63.668 C 72.219 67.085 83.939 63.907 85.708 67.554 C 87.478 71.201 84.258 74.738 87.011 76.02 C 90.156 77.5 101.26 69.198 105.687 70.334 C 110.179 71.498 110.33 76.262 113.022 76.851 C 114.452 77.073 115.915 76.813 117.18 76.111 C 117.339 59.678 107.784 44.699 92.816 37.914 Z" fill="transparent" stroke-width="0.8" stroke="rgb(32,41,57)" stroke-linecap="round" stroke-linejoin="round" stroke-dasharray=""></path><path d="M 91.35 110.442 C 89.6 107.705 92.001 104.03 89.46 101.097 C 86.421 97.573 79.646 100.673 75.412 96.983 C 70.785 92.945 76.287 83.841 72.467 81.8 C 68.567 79.713 66.433 83.6 60.475 83.6 C 54.517 83.6 50.671 75.555 44.245 75.1 C 40.609 74.859 37.044 76.193 34.46 78.762 C 35.455 91.952 42.687 103.875 53.925 110.852 C 65.164 117.828 79.058 119.02 91.32 114.059 C 92.147 112.999 92.159 111.516 91.35 110.442 Z" fill="rgb(46,144,250)"></path><path d="M 91.35 110.442 C 89.6 107.705 92.001 104.03 89.46 101.097 C 86.421 97.573 79.646 100.673 75.412 96.983 C 70.785 92.945 76.287 83.841 72.467 81.8 C 68.567 79.713 66.433 83.6 60.475 83.6 C 54.517 83.6 50.671 75.555 44.245 75.1 C 40.609 74.859 37.044 76.193 34.46 78.762 C 35.455 91.952 42.687 103.875 53.925 110.852 C 65.164 117.828 79.058 119.02 91.32 114.059 C 92.147 112.999 92.159 111.516 91.35 110.442 Z M 27.822 125.429 L 42.067 121.028 M 58.565 129.678 L 63.041 143.908 M 29.756 104.03 L 42.959 110.941 M 66.338 123.266 L 79.525 130.162 M 48.539 128.77 L 41.583 141.973 M 17.142 86.182 C 17.958 86.199 18.72 85.774 19.133 85.07 C 19.546 84.366 19.546 83.493 19.133 82.789 C 18.72 82.085 17.958 81.66 17.142 81.677 C 15.916 81.703 14.936 82.704 14.936 83.93 C 14.936 85.155 15.916 86.156 17.142 86.182 Z M 106.972 121.996 L 103.117 133.232 M 110.663 129.542 L 99.426 125.686 M 67.276 113.149 L 81.476 108.764 M 46.3 90.269 L 50.702 104.453 M 67.715 92.22 L 60.804 105.406 M 30.86 21.188 C 30.552 20.565 29.976 20.116 29.296 19.969 C 28.616 19.821 27.907 19.992 27.368 20.432 L 5.228 38.398 C 4.393 39.072 4.141 40.237 4.623 41.196 L 15.753 63.577 L 41.537 42.662 Z" fill="transparent" stroke-width="0.8" stroke="rgb(32,41,57)" stroke-linecap="round" stroke-linejoin="round" stroke-dasharray=""></path><path d="M 36.925 40.954 L 28.91 24.864 C 28.798 24.633 28.585 24.467 28.334 24.413 C 28.083 24.36 27.821 24.425 27.625 24.591 L 8.555 40.061 C 8.238 40.303 8.142 40.738 8.328 41.091 L 16.404 57.286 C 16.501 57.483 16.683 57.625 16.898 57.672 C 17.113 57.719 17.338 57.665 17.508 57.526 L 36.714 41.95 C 37.016 41.712 37.105 41.293 36.925 40.953 Z" fill="rgb(224,234,255)"></path><path d="M 36.925 40.954 L 28.91 24.864 C 28.798 24.633 28.585 24.467 28.334 24.413 C 28.083 24.36 27.821 24.425 27.625 24.591 L 8.555 40.061 C 8.238 40.303 8.142 40.738 8.328 41.091 L 16.404 57.286 C 16.501 57.483 16.683 57.625 16.898 57.672 C 17.113 57.719 17.338 57.665 17.508 57.526 L 36.714 41.95 C 37.016 41.712 37.105 41.293 36.925 40.953 Z M 42.233 59.917 L 64.418 41.847 C 64.749 41.579 64.86 41.123 64.691 40.732 C 64.522 40.342 64.114 40.111 63.692 40.168 L 42.974 42.813 L 17.144 63.762 L 40.252 60.767 C 40.978 60.67 41.663 60.376 42.233 59.917 Z" fill="transparent" stroke-width="0.8" stroke="rgb(32,41,57)" stroke-linecap="round" stroke-linejoin="round" stroke-dasharray=""></path><path d="M 18.823 40.047 L 19.761 42.179 C 19.111 42.677 18.391 42.614 18.128 42.028 C 17.911 41.287 18.191 40.49 18.823 40.047 Z" fill="rgb(46,144,250)"></path><path d="M 18.823 40.047 L 19.761 42.179 C 19.111 42.677 18.391 42.614 18.128 42.028 C 17.911 41.287 18.191 40.49 18.823 40.047 Z" fill="transparent" stroke-width="0.8" stroke="rgb(32,41,57)" stroke-linecap="round" stroke-linejoin="round" stroke-dasharray=""></path><path d="M 25.054 36.613 C 25.257 37.354 24.979 38.143 24.358 38.595 L 23.42 36.459 C 24.07 35.963 24.797 36.023 25.054 36.613 Z" fill="rgb(46,144,250)"></path><path d="M 25.054 36.613 C 25.257 37.354 24.979 38.143 24.358 38.595 L 23.42 36.459 C 24.07 35.963 24.797 36.023 25.054 36.613 Z" fill="transparent" stroke-width="0.8" stroke="rgb(32,41,57)" stroke-linecap="round" stroke-linejoin="round" stroke-dasharray=""></path><path d="M 23.42 36.459 C 22.906 35.294 21.47 35.173 20.2 36.172 C 18.93 37.17 18.31 38.909 18.823 40.072 M 20.23 49.286 C 20.116 46.555 21.292 43.928 23.405 42.194 C 26.932 39.488 29.605 41.937 29.605 41.937 M 119.025 95.274 L 147.138 112.922 L 155.485 89.36 C 155.849 88.354 155.458 87.231 154.549 86.668 L 130.397 71.501 C 129.81 71.133 129.087 71.05 128.432 71.276 C 127.777 71.503 127.26 72.014 127.025 72.666 Z" fill="transparent" stroke-width="0.8" stroke="rgb(32,41,57)" stroke-linecap="round" stroke-linejoin="round" stroke-dasharray=""></path><path d="M 151.463 88.71 L 130.654 75.657 C 130.437 75.522 130.17 75.494 129.929 75.579 C 129.688 75.664 129.499 75.855 129.415 76.096 L 123.396 93.033 C 123.255 93.39 123.396 93.796 123.728 93.988 L 144.673 107.144 C 144.961 107.321 145.334 107.277 145.573 107.037 C 145.65 106.961 145.71 106.868 145.747 106.766 L 151.811 89.707 C 151.944 89.334 151.799 88.919 151.463 88.711 Z" fill="rgb(224,234,255)"></path><path d="M 151.463 88.71 L 130.654 75.657 C 130.437 75.522 130.17 75.494 129.929 75.579 C 129.688 75.664 129.499 75.855 129.415 76.096 L 123.396 93.033 C 123.255 93.39 123.396 93.796 123.728 93.988 L 144.673 107.144 C 144.961 107.321 145.334 107.277 145.573 107.037 C 145.65 106.961 145.71 106.868 145.747 106.766 L 151.811 89.707 C 151.944 89.334 151.799 88.919 151.463 88.711 Z M 120.402 112.483 L 96.203 97.21 C 95.845 96.983 95.68 96.547 95.8 96.14 C 95.919 95.734 96.294 95.456 96.718 95.459 L 117.602 95.579 L 145.777 113.273 L 122.473 113.092 C 121.739 113.088 121.021 112.877 120.402 112.483 Z" fill="transparent" stroke-width="0.8" stroke="rgb(32,41,57)" stroke-linecap="round" stroke-linejoin="round" stroke-dasharray=""></path><path d="M 141.255 89.936 L 140.59 92.159 C 141.286 92.582 142.009 92.43 142.193 91.811 C 142.296 91.052 141.924 90.308 141.255 89.936 Z" fill="rgb(46,144,250)"></path><path d="M 141.255 89.936 L 140.59 92.159 C 141.286 92.582 142.009 92.43 142.193 91.811 C 142.296 91.052 141.924 90.308 141.255 89.936 Z" fill="transparent" stroke-width="0.8" stroke="rgb(32,41,57)" stroke-linecap="round" stroke-linejoin="round" stroke-dasharray=""></path><path d="M 134.647 87.29 C 134.529 88.051 134.905 88.803 135.585 89.164 L 136.25 86.941 C 135.554 86.518 134.828 86.669 134.647 87.289 Z" fill="rgb(46,144,250)"></path><path d="M 134.647 87.29 C 134.529 88.051 134.905 88.803 135.585 89.164 L 136.25 86.941 C 135.554 86.518 134.828 86.669 134.647 87.289 Z M 136.25 86.941 C 136.613 85.731 138.034 85.429 139.41 86.261 C 140.787 87.092 141.618 88.756 141.255 89.966 M 140.983 99.282 C 140.773 96.551 139.288 94.08 136.976 92.612 C 133.155 90.354 130.79 93.096 130.79 93.096" fill="transparent" stroke-width="0.8" stroke="rgb(32,41,57)" stroke-linecap="round" stroke-linejoin="round" stroke-dasharray=""></path></svg>