<svg xmlns="http://www.w3.org/2000/svg" xmlns:xlink="http://www.w3.org/1999/xlink" viewBox="0 0 160 160"><path d="M 154.652 88.119 C 153.925 86.358 152.637 84.611 150.549 84.616 C 148.462 84.621 147.175 86.357 146.449 88.119 C 145.722 89.88 145.481 92.148 145.481 95.203 L 155.62 95.203 C 155.62 92.149 155.381 89.88 154.652 88.119 Z" fill="rgb(224,234,255)"></path><path d="M 154.652 88.119 C 153.925 86.358 152.637 84.611 150.549 84.616 C 148.462 84.621 147.175 86.357 146.449 88.119 C 145.722 89.88 145.481 92.148 145.481 95.203 L 155.62 95.203 C 155.62 92.149 155.381 89.88 154.652 88.119 Z" fill="transparent" stroke-width="0.8" stroke="rgb(32,41,57)" stroke-linecap="round" stroke-linejoin="round" stroke-dasharray=""></path><path d="M 125.213 84.616 C 125.202 95.73 124.757 103.613 127.138 109.372 C 128.593 112.893 131.165 116.385 135.341 116.372 C 139.518 116.385 142.09 112.893 143.545 109.372 C 145.001 105.851 145.481 101.313 145.481 95.203 C 145.481 92.147 145.719 89.879 146.449 88.119 C 147.178 86.359 148.461 84.611 150.549 84.616 Z" fill="transparent" stroke-width="0.8" stroke="rgb(32,41,57)" stroke-linecap="round" stroke-linejoin="round" stroke-dasharray=""></path><path d="M 127.138 109.372 C 124.531 103.067 125.268 97.2 125.268 60.599 C 125.268 54.489 124.631 49.951 122.713 46.431 C 120.796 42.911 117.396 39.417 111.883 39.431 C 106.371 39.417 102.975 42.91 101.053 46.431 C 99.132 49.951 98.499 54.489 98.499 60.6 L 98.499 116.377 L 135.341 116.377 C 131.165 116.388 128.593 112.895 127.138 109.372 Z" fill="rgb(224,234,255)"></path><path d="M 127.138 109.372 C 124.531 103.067 125.268 97.2 125.268 60.599 C 125.268 54.489 124.631 49.951 122.713 46.431 C 120.796 42.911 117.396 39.417 111.883 39.431 C 106.371 39.417 102.975 42.91 101.053 46.431 C 99.132 49.951 98.499 54.489 98.499 60.6 L 98.499 116.377 L 135.341 116.377 C 131.165 116.388 128.593 112.895 127.138 109.372 Z M 98.499 70.158 L 108.467 70.158 M 98.499 80.14 L 108.467 80.14 M 98.499 89.912 L 108.467 89.912 M 55.526 111.522 L 18.423 133.215 L 24.293 133.215 L 58.461 113.238 Z" fill="transparent" stroke-width="0.8" stroke="rgb(32,41,57)" stroke-linecap="round" stroke-linejoin="round" stroke-dasharray=""></path><path d="M 106.013 39.432 C 100.501 39.419 97.104 42.912 95.183 46.432 C 93.263 49.952 92.629 54.491 92.629 60.601 L 92.629 133.215 L 98.499 133.215 L 98.499 60.602 C 98.499 54.491 99.136 49.952 101.053 46.433 C 102.971 42.913 106.371 39.419 111.883 39.433 L 106.013 39.433 Z" fill="transparent" stroke-width="0.8" stroke="rgb(32,41,57)" stroke-linecap="round" stroke-linejoin="round" stroke-dasharray=""></path><path d="M 31.807 39.432 C 26.295 39.419 22.898 42.912 20.977 46.432 C 19.057 49.952 18.423 54.491 18.423 60.601 L 18.423 133.215 L 55.526 111.521 L 92.629 133.215 L 92.629 60.602 C 92.629 54.491 93.266 49.952 95.184 46.433 C 97.101 42.913 100.501 39.419 106.013 39.433 L 31.807 39.433 Z" fill="transparent" stroke-width="0.8" stroke="rgb(32,41,57)" stroke-linecap="round" stroke-linejoin="round" stroke-dasharray=""></path><path d="M 55.43 97.422 L 74.24 107.257 L 73.505 103.028 L 62.783 97.422 Z M 59.794 58.484 L 55.322 49.477 L 45.971 68.531 L 24.973 71.631 L 40.206 86.413 L 36.664 107.342 L 46.203 102.3 L 48.783 87.052 L 33.549 72.271 L 54.549 69.171 Z" fill="rgb(224,234,255)"></path><path d="M 85.772 71.495 L 64.759 68.49 L 59.794 58.484 L 54.549 69.171 L 33.549 72.271 L 48.782 87.052 L 46.202 102.3 L 55.43 97.422 L 62.783 97.422 L 73.505 103.028 L 70.605 86.345 Z" fill="rgb(46,144,250)"></path><path d="M 85.772 71.495 L 64.759 68.49 L 59.794 58.484 L 54.549 69.171 L 33.549 72.271 L 48.782 87.052 L 46.202 102.3 L 55.43 97.422 L 62.783 97.422 L 73.505 103.028 L 70.605 86.345 Z M 33.55 72.27 L 24.973 71.63 M 40.206 86.414 L 48.782 87.053 M 45.971 68.531 L 54.549 69.171" fill="transparent" stroke-width="0.8" stroke="rgb(32,41,57)" stroke-linecap="round" stroke-linejoin="round" stroke-dasharray=""></path><path d="M 70.605 86.345 L 85.772 71.495 L 64.759 68.49 L 55.322 49.477 L 45.971 68.531 L 24.973 71.631 L 40.206 86.413 L 36.664 107.342 L 55.43 97.422 L 74.24 107.257 Z M 129.014 37.432 L 137.477 37.432 M 133.245 41.663 L 133.245 33.201 M 117.443 127.863 L 123.427 133.847 M 117.443 133.847 L 123.427 127.863 M 4.38 107.542 L 7.432 110.594 M 4.38 110.594 L 7.432 107.542 M 36.914 28.285 L 39.531 32.6 L 42.607 26.153 M 143.639 53.99 L 148.254 53.99 M 145.946 56.297 L 145.946 51.682" fill="transparent" stroke-width="0.8" stroke="rgb(32,41,57)" stroke-linecap="round" stroke-linejoin="round" stroke-dasharray=""></path></svg>