<svg xmlns="http://www.w3.org/2000/svg" xmlns:xlink="http://www.w3.org/1999/xlink" viewBox="0 0 160 160"><path d="M 74.093 69.565 L 65.552 58.816 L 40.952 52.903 L 2.402 75.205 L 55.774 142.404 L 107.935 112.156 L 97.519 99.048" fill="transparent" stroke-width="0.8" stroke="rgb(32,41,57)" stroke-linecap="round" stroke-linejoin="round" stroke-dasharray=""></path><path d="M 51.848 66.716 L 38.377 54.377 L 40.953 52.887 Z" fill="rgb(46,144,250)"></path><path d="M 51.848 66.716 L 38.377 54.377 L 40.953 52.887 Z" fill="transparent" stroke-width="0.8" stroke="rgb(32,41,57)" stroke-linecap="round" stroke-linejoin="round" stroke-dasharray=""></path><path d="M 75.484 101.355 C 69.124 97.69 65.411 91.489 65.486 85.711 C 60.976 84.704 56.254 85.377 52.205 87.604 C 43.979 92.367 42.598 102.907 49.132 111.117 C 55.665 119.342 67.631 122.136 75.856 117.357 C 80.629 114.689 83.422 109.496 83.016 104.044 C 80.362 103.617 77.808 102.706 75.484 101.355 Z" fill="rgb(224,234,255)"></path><path d="M 75.484 101.355 C 69.124 97.69 65.411 91.489 65.486 85.711 C 60.976 84.704 56.254 85.377 52.205 87.604 C 43.979 92.367 42.598 102.907 49.132 111.117 C 55.665 119.342 67.631 122.136 75.856 117.357 C 80.629 114.689 83.422 109.496 83.016 104.044 C 80.362 103.617 77.808 102.706 75.484 101.355 Z M 65.536 58.785 L 51.848 66.715 L 40.953 52.888 M 18.605 80.419 L 41.528 67.149 M 25.76 89.452 L 61.422 68.81" fill="transparent" stroke-width="0.8" stroke="rgb(32,41,57)" stroke-linecap="round" stroke-linejoin="round" stroke-dasharray=""></path><path d="M 53.353 106.43 L 68.935 110.589 L 68.376 94.806" fill="transparent" stroke-width="0.8" stroke="rgb(32,41,57)" stroke-linecap="round" stroke-linejoin="round" stroke-dasharray=""></path><path d="M 70.61 73.73 L 67.088 79.783 C 63.084 86.704 66.842 96.369 75.484 101.355 C 83.224 105.836 93.548 105.558 98.406 97.785 L 101.864 91.787" fill="transparent" stroke-width="0.8" stroke="rgb(32,41,57)" stroke-linecap="round" stroke-linejoin="round" stroke-dasharray=""></path><path d="M 76.597 68.102 C 73.672 69.359 71.361 71.72 70.165 74.671 C 67.196 81.968 71.945 90.504 79.302 94.743 C 85.851 98.525 94.402 98.89 99.725 94.215 C 100.538 93.502 101.256 92.687 101.86 91.79 M 123.548 43.917 L 119.698 50.56 C 118.271 53.043 115.245 54.346 111.861 54.346 C 101.959 54.346 93.856 44.146 97.537 37.772 L 101.37 31.129 C 99.632 34.156 100.641 37.879 102.566 40.689 C 108.165 48.866 120.099 49.853 123.548 43.917 Z" fill="transparent" stroke-width="0.8" stroke="rgb(32,41,57)" stroke-linecap="round" stroke-linejoin="round" stroke-dasharray=""></path><path d="M 137.36 70.114 C 132.569 80.026 123.095 91.272 115.4 97.429 C 112.698 97.02 110.059 96.269 107.547 95.194 C 102.669 92.747 98.311 89.379 94.713 85.276 L 100.237 75.779 C 99.348 74.165 98.541 72.508 97.817 70.813 C 97.066 71.179 96.22 71.303 95.395 71.169 C 96.668 75.298 94.884 77.036 92.121 76.679 C 93.316 80.513 90.584 82.098 86.844 80.668 C 87.371 83.693 83.032 84.148 79.55 81.226 C 76.78 78.902 72.376 72.338 75.362 69.402 C 75.739 69.037 76.223 68.803 76.743 68.735 C 76.185 66.608 76.333 64.46 78.404 63.21 C 78.744 63 79.125 62.862 79.522 62.807 C 78.928 59.482 80.678 57.18 83.246 56.427 C 83.296 54.712 84.245 53.149 85.743 52.313 C 84.434 50.298 83.416 48.11 82.717 45.811 C 81.921 42.533 84.441 40.59 87.792 43.173 C 88.895 44.024 90.352 45.252 92.09 46.663 C 92.571 46.385 97.118 44.15 97.118 44.15 C 97.297 44.705 97.52 45.245 97.786 45.764 C 97.786 45.764 96.965 47.192 95.645 49.442 C 99.882 52.609 105.111 55.992 110.683 57.822 L 112.685 54.374 C 115.043 54.315 117.286 53.341 118.939 51.659 C 124.161 56.236 121.638 53.79 137.36 70.114 Z" fill="transparent" stroke-width="0.8" stroke="rgb(32,41,57)" stroke-linecap="round" stroke-linejoin="round" stroke-dasharray=""></path><path d="M 120.584 46.633 C 112.962 50.513 100.979 43.54 100.501 35.071 C 100.23 30.261 104.114 27.343 109.205 27.343 C 115.211 27.343 121.561 31.444 123.716 36.95 C 125.255 40.875 124.347 44.717 120.584 46.633 Z" fill="rgb(46,144,250)"></path><path d="M 120.584 46.633 C 112.962 50.513 100.979 43.54 100.501 35.071 C 100.23 30.261 104.114 27.343 109.205 27.343 C 115.211 27.343 121.561 31.444 123.716 36.95 C 125.255 40.875 124.347 44.717 120.584 46.633 Z" fill="transparent" stroke-width="0.8" stroke="rgb(32,41,57)" stroke-linecap="round" stroke-linejoin="round" stroke-dasharray=""></path><path d="M 107.563 95.19 C 106.445 98 106.259 100.035 107.206 100.824 C 108.478 101.88 111.551 100.482 115.416 97.425 C 112.728 96.953 110.097 96.204 107.563 95.19 Z" fill="rgb(46,144,250)"></path><path d="M 107.563 95.19 C 106.445 98 106.259 100.035 107.206 100.824 C 108.478 101.88 111.551 100.482 115.416 97.425 C 112.728 96.953 110.097 96.204 107.563 95.19 Z" fill="transparent" stroke-width="0.8" stroke="rgb(32,41,57)" stroke-linecap="round" stroke-linejoin="round" stroke-dasharray=""></path><path d="M 132.316 64.87 L 137.36 70.114 C 140.795 62.618 138.28 60.859 132.316 64.869 Z" fill="rgb(46,144,250)"></path><path d="M 132.316 64.87 L 137.36 70.114 C 140.795 62.618 138.28 60.859 132.316 64.869 Z" fill="transparent" stroke-width="0.8" stroke="rgb(32,41,57)" stroke-linecap="round" stroke-linejoin="round" stroke-dasharray=""></path><path d="M 101.851 91.78 C 101.524 92.29 101.156 92.773 100.749 93.223 L 94.713 85.276 C 96.842 87.704 99.236 89.885 101.851 91.779 Z" fill="rgb(46,144,250)"></path><path d="M 101.851 91.78 C 101.524 92.29 101.156 92.773 100.749 93.223 L 94.713 85.276 C 96.842 87.704 99.236 89.885 101.851 91.779 Z" fill="transparent" stroke-width="0.8" stroke="rgb(32,41,57)" stroke-linecap="round" stroke-linejoin="round" stroke-dasharray=""></path><path d="M 148.317 80.652 C 148.348 82.254 146.634 83.288 145.232 82.515 C 144.346 82.028 143.938 80.975 144.265 80.018 C 144.592 79.061 145.558 78.477 146.557 78.634 C 147.556 78.79 148.298 79.641 148.317 80.652 Z" fill="rgb(46,144,250)"></path><path d="M 148.317 80.652 C 148.348 82.254 146.634 83.288 145.232 82.515 C 144.346 82.028 143.938 80.975 144.265 80.018 C 144.592 79.061 145.558 78.477 146.557 78.634 C 147.556 78.79 148.298 79.641 148.317 80.652 Z" fill="transparent" stroke-width="0.8" stroke="rgb(32,41,57)" stroke-linecap="round" stroke-linejoin="round" stroke-dasharray=""></path><path d="M 112.699 54.331 C 106.501 54.519 100.731 51.183 97.801 45.718 C 94.871 40.253 96.98 47.145 95.659 49.396 C 99.896 52.562 105.126 55.945 110.698 57.776 Z" fill="rgb(224,234,255)"></path><path d="M 112.699 54.331 C 106.501 54.519 100.731 51.183 97.801 45.718 C 94.871 40.253 96.98 47.145 95.659 49.396 C 99.896 52.562 105.126 55.945 110.698 57.776 Z" fill="transparent" stroke-width="0.8" stroke="rgb(32,41,57)" stroke-linecap="round" stroke-linejoin="round" stroke-dasharray=""></path><path d="M 100.222 75.779 C 99.333 74.165 98.525 72.508 97.801 70.813 C 97.05 71.179 96.204 71.303 95.379 71.169 C 96.652 75.298 94.868 77.036 92.105 76.679 C 93.3 80.513 90.569 82.098 86.829 80.668 C 87.357 83.693 83.016 84.148 79.534 81.226 C 79.37 81.085 79.178 80.898 78.959 80.699 C 79.864 83.203 81.66 85.286 84.003 86.549 C 87.105 88.334 92.343 89.187 94.029 86.379 Z" fill="rgb(224,234,255)"></path><path d="M 100.222 75.779 C 99.333 74.165 98.525 72.508 97.801 70.813 C 97.05 71.179 96.204 71.303 95.379 71.169 C 96.652 75.298 94.868 77.036 92.105 76.679 C 93.3 80.513 90.569 82.098 86.829 80.668 C 87.357 83.693 83.016 84.148 79.534 81.226 C 79.37 81.085 79.178 80.898 78.959 80.699 C 79.864 83.203 81.66 85.286 84.003 86.549 C 87.105 88.334 92.343 89.187 94.029 86.379 Z M 100.222 75.779 C 102.13 79.193 104.614 82.499 107.469 83.709 M 95.66 49.395 C 92.003 46.665 90.28 45.036 87.807 43.141 C 84.461 40.577 81.944 42.504 82.731 45.779 C 84.076 51.367 92.457 62.095 96.141 66.421 C 96.141 66.421 96.731 68.283 97.816 70.813 M 116.734 59.062 C 114.674 58.869 112.643 58.437 110.682 57.775" fill="transparent" stroke-width="0.8" stroke="rgb(32,41,57)" stroke-linecap="round" stroke-linejoin="round" stroke-dasharray=""></path><path d="M 79.488 62.54 C 80.155 67.042 84.7 72.073 85.99 73.311 C 87.64 75.032 89.781 76.203 92.12 76.663 M 97.813 70.813 C 96.028 71.728 93.019 71.169 89.557 67.973 C 87.958 66.495 83.101 60.829 83.256 56.395 M 76.756 68.718 C 77.641 72.038 80.356 75.594 81.459 76.788 C 82.942 78.467 84.782 79.793 86.844 80.668 M 138.307 63.1 L 157.597 79.752 M 107.221 100.843 L 125.363 116.703 M 108.09 130.004 C 109.632 130.003 110.597 131.672 109.827 133.008 C 109.057 134.344 107.13 134.346 106.357 133.011 C 106.181 132.706 106.088 132.359 106.088 132.007 C 106.091 130.902 106.985 130.007 108.09 130.004 Z M 64.046 17.596 L 64.03 31.13 M 70.812 24.378 L 57.264 24.363 M 141.644 39.898 L 143.025 42.676 L 146.082 43.126 L 143.862 45.283 L 144.39 48.34 L 141.644 46.897 L 138.912 48.34 L 139.424 45.283 L 137.205 43.126 L 140.277 42.676 Z" fill="transparent" stroke-width="0.8" stroke="rgb(32,41,57)" stroke-linecap="round" stroke-linejoin="round" stroke-dasharray=""></path></svg>