<svg xmlns="http://www.w3.org/2000/svg" xmlns:xlink="http://www.w3.org/1999/xlink" viewBox="0 0 160 160"><path d="M 123.516 83.25 L 136.57 77.2 L 124.464 69.43 L 135.399 60.082 L 121.645 55.863 L 129.653 43.913 L 115.272 43.563 L 119.758 29.894 L 105.816 33.438 L 106.449 19.066 L 93.979 26.239 L 90.71 12.229 L 80.637 22.504 L 73.712 9.895 L 66.786 22.504 L 56.715 12.235 L 53.446 26.245 L 40.974 19.067 L 41.606 33.439 L 27.664 29.896 L 32.15 43.564 L 17.769 43.914 L 25.777 55.864 L 12.022 60.081 L 22.958 69.429 L 10.852 77.199 L 23.906 83.249 L 14.346 93.995 L 28.545 96.303 L 22.239 109.233 L 36.532 107.621 L 35.004 115.989 L 41.729 114.378 C 41.729 114.378 54.306 88.964 60.859 76.279 C 64.739 68.772 62.393 71.531 61.184 56.877 C 60.738 51.472 58.08 37.557 59.373 37.272 C 60.665 36.987 62.1 40.602 63.457 46.012 C 64.207 49.12 65.36 52.117 66.887 54.926 C 66.887 54.926 65.693 46.743 67.243 46.162 C 68.793 45.582 69.473 50.01 70.513 53.357 C 71.553 56.703 74.472 62.737 73.523 67.49 C 72.574 72.242 72.463 84.951 71.047 92.266 C 70.007 97.638 66.574 114.904 61.249 125.182 L 65.131 135.322 L 73.711 123.77 L 82.289 135.322 L 87.434 121.888 L 98.811 130.693 L 100.141 116.365 L 113.471 121.777 L 110.885 107.621 L 125.18 109.233 L 118.874 96.303 L 133.074 93.995 L 123.516 83.249 Z M 95.05 61.985 C 93.898 67.269 93.164 73.015 93.164 73.015 L 80.414 76.265 C 76.091 69.364 79.948 58.949 80.644 56.113 C 81.445 52.845 81.365 45.931 83.158 45.462 C 84.952 44.992 83.568 53.012 83.568 53.012 C 83.568 53.012 86.1 42.122 87.707 41.947 C 89.314 41.773 87.707 50.083 87.707 50.083 C 87.707 50.083 91 39.49 92.972 39.756 C 94.42 39.954 93.312 43.259 92.622 45.001 C 93.179 43.788 94.192 41.96 95.218 41.948 C 97.026 41.929 93.291 52.915 92.808 58.93 C 94.572 55.872 96.094 52.781 97.753 53.415 C 98.408 53.659 95.559 59.647 95.05 61.986 Z" fill="rgb(224,234,255)"></path><path d="M 35.004 115.99 L 36.532 107.622 L 22.237 109.234 L 28.543 96.304 L 14.343 93.995 L 23.903 83.249 L 10.85 77.2 L 22.957 69.43 L 12.023 60.081 L 25.777 55.862 L 17.77 43.914 L 32.151 43.564 L 27.665 29.896 L 41.607 33.439 L 40.975 19.067 L 53.445 26.241 L 56.712 12.231 L 66.787 22.504 L 73.713 9.895 L 80.638 22.504 L 90.708 12.235 L 93.978 26.245 L 106.447 19.071 L 105.814 33.443 L 119.756 29.9 L 115.27 43.568 L 129.652 43.918 L 121.644 55.868 L 135.398 60.088 L 124.462 69.428 L 136.569 77.199 L 123.514 83.249 L 133.075 93.995 L 118.875 96.303 L 125.181 109.233 L 110.886 107.621 L 113.47 121.773 L 100.14 116.36 L 98.81 130.688 L 87.433 121.883 L 82.289 135.322 L 73.713 123.77 L 65.132 135.322 L 61.25 125.19" fill="transparent" stroke-width="0.8" stroke="rgb(32,41,57)" stroke-linecap="round" stroke-linejoin="round" stroke-dasharray=""></path><path d="M 41.73 114.379 L 40.03 120.851 L 36.757 115.57 L 41.729 114.379 Z" fill="rgb(46,144,250)"></path><path d="M 41.73 114.379 L 40.03 120.851 L 36.757 115.57" fill="transparent" stroke-width="0.8" stroke="rgb(32,41,57)" stroke-linecap="round" stroke-linejoin="round" stroke-dasharray=""></path><path d="M 8.538 122.33 L 41.732 114.379 C 41.732 114.379 54.308 88.965 60.862 76.279 C 64.741 68.772 62.396 71.532 61.187 56.877 C 60.741 51.473 58.082 37.557 59.375 37.273 C 60.667 36.988 62.103 40.603 63.459 46.012 C 64.209 49.12 65.362 52.117 66.889 54.927 C 66.889 54.927 65.695 46.744 67.246 46.163 C 68.796 45.582 69.475 50.011 70.515 53.357 C 71.555 56.704 74.475 62.738 73.525 67.49 C 72.576 72.242 72.465 84.952 71.049 92.267 C 69.632 99.583 63.777 128.967 54.749 132.704 C 45.722 136.441 13.889 143.445 13.889 143.445 M 66.347 61.987 L 66.887 54.93" fill="transparent" stroke-width="0.8" stroke="rgb(32,41,57)" stroke-linecap="round" stroke-linejoin="round" stroke-dasharray=""></path><path d="M 142.757 120.851 L 112.121 114.379 C 112.121 114.379 104.877 88.839 99.381 75.661 L 78.034 81.15 C 77.974 85.862 87.163 129.924 95.856 134.381 C 104.549 138.837 142.756 143.446 142.756 143.446 L 142.756 120.851 Z" fill="rgb(46,144,250)"></path><path d="M 103.363 132.855 C 101.409 130.038 99.746 130.588 101.596 128.065 C 103.446 125.542 102.438 124.134 98.708 122.689 C 94.978 121.243 94.231 120.978 92.712 117.431 C 91.193 113.884 86.172 116.188 86.172 116.188 C 89.105 125.114 92.518 132.672 95.857 134.385 C 97.702 135.238 99.623 135.913 101.596 136.402 C 101.596 136.402 105.313 135.669 103.363 132.855 Z M 102.868 104.249 C 104.37 107.341 105.378 109.924 110.999 110.506 C 109.486 105.36 106.645 95.906 103.675 87.218 C 100.556 88.237 98.195 90.594 98.905 93.869 C 99.94 98.627 95.412 97.309 96.339 100.932 C 97.267 104.555 101.366 101.159 102.868 104.249 Z" fill="rgb(224,234,255)"></path><path d="M 142.757 120.851 L 112.121 114.379 C 112.121 114.379 104.877 88.839 99.381 75.661 L 78.034 81.15 C 77.974 85.862 87.163 129.924 95.856 134.381 C 104.549 138.837 142.756 143.446 142.756 143.446 M 92.816 58.871 C 93.303 52.901 97.026 41.925 95.221 41.944 C 93.687 41.96 92.181 46.048 92.181 46.048 C 92.181 46.048 94.946 40.02 92.977 39.752 C 91.009 39.484 87.712 50.08 87.712 50.08 C 87.712 50.08 89.324 41.766 87.712 41.944 C 86.1 42.123 83.573 53.013 83.573 53.013 C 83.573 53.013 84.958 44.993 83.164 45.463 C 81.371 45.931 81.451 52.846 80.649 56.113 C 79.953 58.95 76.096 69.365 80.419 76.265" fill="transparent" stroke-width="0.8" stroke="rgb(32,41,57)" stroke-linecap="round" stroke-linejoin="round" stroke-dasharray=""></path><path d="M 93.164 73.016 C 93.164 73.016 93.898 67.27 95.05 61.986 C 95.56 59.647 98.408 53.659 97.756 53.41 C 95.633 52.6 93.73 57.894 91.263 61.41 C 88.808 64.908 82.775 67.048 83.567 72.198 M 92.179 46.048 C 91.197 49.061 90.539 50.578 89.369 55.202 L 88.01 56.742 M 87.71 50.08 C 85.535 56.248 86.956 53.807 84.86 56.74 M 81.722 57.386 L 82.806 55.692 L 83.568 53.012 M 79.636 80.737 L 78.681 76.707 L 96.371 72.2 L 97.345 76.185 M 103.305 87.338 C 103.305 87.338 97.872 89.111 98.903 93.865 C 99.933 98.62 95.41 97.304 96.337 100.928 C 97.264 104.552 101.366 101.152 102.868 104.245 C 104.37 107.337 105.451 109.909 110.999 110.502 M 86.171 116.184 C 86.171 116.184 91.193 113.88 92.712 117.427 C 94.231 120.973 94.979 121.239 98.708 122.685 C 102.438 124.131 103.445 125.539 101.596 128.061 C 99.747 130.584 101.409 130.034 103.363 132.851 C 105.316 135.668 101.596 136.398 101.596 136.398 M 149.172 42.775 L 150.675 47.728 L 155.62 49.25 L 151.374 52.21 L 151.454 57.384 L 147.326 54.262 L 142.429 55.937 L 144.124 51.047 L 141.02 46.907 L 146.194 47.007 Z" fill="transparent" stroke-width="0.8" stroke="rgb(32,41,57)" stroke-linecap="round" stroke-linejoin="round" stroke-dasharray=""></path><path d="M 31.03 135.334 L 32.001 140.417 L 36.757 142.458 L 32.22 144.949 L 31.749 150.103 L 27.977 146.558 L 22.927 147.705 L 25.133 143.023 L 22.485 138.576 L 27.62 139.227 Z" fill="rgb(224,234,255)"></path><path d="M 31.03 135.334 L 32.001 140.417 L 36.757 142.458 L 32.22 144.949 L 31.749 150.103 L 27.977 146.558 L 22.927 147.705 L 25.133 143.023 L 22.485 138.576 L 27.62 139.227 Z M 127.863 15.365 L 134.336 15.365 M 131.103 11.044 L 131.103 19.682 M 4.38 104.152 L 9.352 104.152 M 6.866 100.916 L 6.866 107.387 M 88.778 146.869 L 93.75 146.869 M 91.264 143.633 L 91.264 150.106" fill="transparent" stroke-width="0.8" stroke="rgb(32,41,57)" stroke-linecap="round" stroke-linejoin="round" stroke-dasharray=""></path></svg>