<svg xmlns="http://www.w3.org/2000/svg" xmlns:xlink="http://www.w3.org/1999/xlink" viewBox="0 0 160 160"><path d="M 95.576 47.239 C 115.354 75.044 114.038 72.944 117.068 78.191 C 127.594 96.436 126.942 123.627 102.04 135.452 C 71.095 150.146 49.62 119.724 42.306 105.906 C 34.993 92.087 33.996 74.712 41.13 60.799 C 42.828 57.486 44.97 54.352 46.002 50.769 C 48.898 40.74 42.651 29.08 47.639 19.911 C 47.957 24.585 51.652 23.673 53.578 34.389 C 51.62 18.23 51.412 17.797 51.844 16.206 C 52.321 14.449 53.797 12.993 53.858 11.174 C 53.921 9.228 52.328 7.512 52.4 5.567 C 54.864 7.085 58.408 9.88 59.21 12.661 C 59.737 14.491 59.813 16.419 60.176 18.289 C 61.023 22.641 63.422 26.567 66.386 29.868 C 69.349 33.168 71.792 31.991 75.99 38.755 C 73.013 31.62 74.297 28.815 74.964 24.339 C 77.489 29.181 77.638 32.033 80.944 36.379 C 82.707 38.789 84.741 40.989 87.006 42.934 C 91.521 46.78 94.874 51.809 96.687 57.456 C 97.314 54.046 95.197 53.155 95.577 47.239 Z M 108.191 53.78 L 116.782 66.506 M 66.797 4.38 L 75.387 17.106 M 25.34 21.166 L 33.931 33.892 M 21.045 54.426 L 29.635 67.152 M 30.507 112.122 L 39.098 124.847 M 8.994 15.887 L 17.584 28.612" fill="transparent" stroke-width="0.8" stroke="rgb(32,41,57)" stroke-linecap="round" stroke-linejoin="round" stroke-dasharray=""></path><path d="M 56.757 77.345 C 59.677 69.522 66.022 63.469 73.974 60.92 C 70.45 59.15 66.302 59.128 62.759 60.86 C 62.702 60.755 62.642 60.651 62.578 60.55 C 61.543 58.852 60.11 57.837 59.384 58.281 C 58.658 58.725 58.907 60.462 59.942 62.159 C 60.022 62.289 60.101 62.414 60.18 62.535 C 55.867 66.158 54.471 72.197 56.757 77.345 Z" fill="rgb(46,144,250)"></path><path d="M 56.757 77.345 C 59.677 69.522 66.022 63.469 73.974 60.92 C 70.45 59.15 66.302 59.128 62.759 60.86 C 62.702 60.755 62.642 60.651 62.578 60.55 C 61.543 58.852 60.11 57.837 59.384 58.281 C 58.658 58.725 58.907 60.462 59.942 62.159 C 60.022 62.289 60.101 62.414 60.18 62.535 C 55.867 66.158 54.471 72.197 56.757 77.345 Z" fill="transparent" stroke-width="0.8" stroke="rgb(32,41,57)" stroke-linecap="round" stroke-linejoin="round" stroke-dasharray=""></path><path d="M 102.836 120.542 C 88.781 129.115 69.613 123.316 60.021 107.592 C 55.443 100.238 53.725 91.459 55.193 82.922 C 52.907 92.256 53.157 91.151 52.907 92.258 C 51.315 99.289 52.423 109.176 57.587 117.641 C 67.178 133.366 86.347 139.165 100.401 130.592 C 106.407 126.877 110.775 121.018 112.622 114.202 C 112.848 113.422 112.793 113.476 115.153 103.824 C 113.353 110.775 108.941 116.763 102.836 120.542 Z" fill="rgb(224,234,255)"></path><path d="M 110.917 76.548 C 101.326 60.823 82.157 55.025 68.102 63.597 C 61.224 67.886 56.522 74.924 55.193 82.92 C 52.907 92.257 53.156 91.151 52.907 92.258 C 51.315 99.289 52.423 109.176 57.587 117.641 C 67.178 133.366 86.347 139.165 100.401 130.592 C 106.407 126.877 110.775 121.018 112.622 114.202 C 112.861 113.387 112.787 113.486 115.488 102.459 C 117.354 94.839 116.095 85.037 110.917 76.549 Z" fill="transparent" stroke-width="0.8" stroke="rgb(32,41,57)" stroke-linecap="round" stroke-linejoin="round" stroke-dasharray=""></path><path d="M 92.486 124.234 C 90.561 124.501 88.615 124.571 86.676 124.444 L 87.824 130.323 C 87.966 131.075 88.402 131.738 89.034 132.168 C 89.667 132.597 90.445 132.757 91.196 132.611 C 92.341 132.386 93.236 131.492 93.463 130.348 C 93.536 129.976 93.535 129.593 93.46 129.222 Z" fill="rgb(46,144,250)"></path><path d="M 92.486 124.234 C 90.561 124.501 88.615 124.571 86.676 124.444 L 87.824 130.323 C 87.966 131.075 88.402 131.738 89.034 132.168 C 89.667 132.597 90.445 132.757 91.196 132.611 C 92.341 132.386 93.236 131.492 93.463 130.348 C 93.536 129.976 93.535 129.593 93.46 129.222 Z" fill="transparent" stroke-width="0.8" stroke="rgb(32,41,57)" stroke-linecap="round" stroke-linejoin="round" stroke-dasharray=""></path><path d="M 118.901 111.369 L 113.922 107.438 C 113.18 109.241 112.257 110.963 111.167 112.579 L 115.342 115.876 C 116.587 116.859 118.392 116.647 119.375 115.402 C 120.358 114.157 120.146 112.352 118.901 111.369 Z" fill="rgb(46,144,250)"></path><path d="M 118.901 111.369 L 113.922 107.438 C 113.18 109.241 112.257 110.963 111.167 112.579 L 115.342 115.876 C 116.587 116.859 118.392 116.647 119.375 115.402 C 120.358 114.157 120.146 112.352 118.901 111.369 Z" fill="transparent" stroke-width="0.8" stroke="rgb(32,41,57)" stroke-linecap="round" stroke-linejoin="round" stroke-dasharray=""></path><path d="M 102.836 120.542 C 116.891 111.97 120.508 92.272 110.917 76.547 C 101.325 60.822 82.157 55.023 68.102 63.597 C 54.048 72.169 50.43 91.865 60.022 107.591 C 69.613 123.316 88.782 129.115 102.836 120.542 Z" fill="transparent" stroke-width="0.8" stroke="rgb(32,41,57)" stroke-linecap="round" stroke-linejoin="round" stroke-dasharray=""></path><path d="M 87.744 88.835 L 73.012 69.334 L 83.606 91.356 C 84.115 92.195 85.081 92.643 86.05 92.489 C 86.686 92.392 87.256 92.044 87.634 91.524 C 88.211 90.731 88.254 89.67 87.745 88.832 L 87.745 88.836 Z" fill="rgb(46,144,250)"></path><path d="M 87.744 88.835 L 73.012 69.334 L 83.606 91.356 C 84.115 92.195 85.081 92.643 86.05 92.489 C 86.686 92.392 87.256 92.044 87.634 91.524 C 88.211 90.731 88.254 89.67 87.745 88.832 L 87.745 88.836 Z" fill="transparent" stroke-width="0.8" stroke="rgb(32,41,57)" stroke-linecap="round" stroke-linejoin="round" stroke-dasharray=""></path><path d="M 86.858 78.965 L 83.32 89.854 C 83.224 90.667 83.545 91.473 84.173 91.998 C 84.8 92.524 85.651 92.697 86.434 92.46 C 87.384 92.171 88.061 91.332 88.142 90.342 L 86.859 78.965 Z" fill="rgb(46,144,250)"></path><path d="M 86.858 78.965 L 83.32 89.854 C 83.224 90.667 83.545 91.473 84.173 91.998 C 84.8 92.524 85.651 92.697 86.434 92.46 C 87.384 92.171 88.061 91.332 88.142 90.342 L 86.859 78.965 Z M 62.967 106.787 L 68.523 103.397 M 103.354 82.153 L 108.912 78.763 M 69.445 65.8 L 72.739 71.199 M 101.765 118.787 L 98.805 113.934 M 61.822 133.119 C 66.556 142.13 57.41 152.18 47.76 148.033 L 42.404 152.038 L 43.374 144.413 C 40.735 140.673 40.73 135.678 43.362 131.933 C 45.993 128.188 50.694 126.499 55.107 127.714 C 57.997 128.51 60.428 130.468 61.822 133.122 Z M 49.814 133.304 L 53.011 139.28 M 53.963 141.06 L 54.643 142.331" fill="transparent" stroke-width="0.8" stroke="rgb(32,41,57)" stroke-linecap="round" stroke-linejoin="round" stroke-dasharray=""></path><path d="M 30.59 97.732 L 17 106.086 C 17.693 107.108 19.066 107.406 20.12 106.762 L 29.784 100.822 C 30.837 100.174 31.193 98.812 30.59 97.732 Z M 20.12 80.698 C 19.429 79.673 18.053 79.374 17 80.021 L 7.337 85.961 C 6.284 86.609 5.928 87.972 6.53 89.052 L 20.121 80.698 Z" fill="rgb(46,144,250)"></path><path d="M 16.998 80.021 L 7.335 85.961 C 6.25 86.629 5.912 88.049 6.579 89.134 L 16.947 106.004 C 17.268 106.525 17.782 106.897 18.377 107.04 C 18.972 107.184 19.6 107.083 20.121 106.761 L 29.784 100.822 C 30.868 100.154 31.207 98.734 30.541 97.648 L 20.173 80.778 C 19.853 80.256 19.338 79.883 18.743 79.741 C 18.147 79.599 17.519 79.7 16.998 80.021 Z" fill="transparent" stroke-width="0.8" stroke="rgb(32,41,57)" stroke-linecap="round" stroke-linejoin="round" stroke-dasharray=""></path><path d="M 20.122 80.697 L 6.528 89.053 L 16.998 106.086 L 30.591 97.731 L 20.121 80.697 Z" fill="transparent" stroke-width="0.8" stroke="rgb(32,41,57)" stroke-linecap="round" stroke-linejoin="round" stroke-dasharray=""></path><path d="M 21.637 99.681 L 20.485 92.209 L 16.062 94.927 L 17.067 87.935 M 141.88 76.466 L 128.299 84.84 L 140.182 104.112 L 153.764 95.736 Z M 136.454 89.552 L 142.427 85.869 M 137.854 91.822 L 143.827 88.139 M 139.312 94.185 L 145.284 90.501 M 134.128 117.327 L 120.547 125.703 L 132.43 144.974 L 146.012 136.599 Z M 128.703 130.413 L 134.676 126.73 M 130.103 132.684 L 136.077 129.001 M 131.56 135.046 L 137.533 131.363 M 116.24 40.33 L 109.268 31.944 C 108.545 32.822 107.62 33.51 106.571 33.95 L 113.656 42.475 C 113.938 42.823 114.348 43.042 114.794 43.083 C 115.296 43.131 115.794 42.95 116.148 42.591 C 116.503 42.231 116.677 41.732 116.623 41.23 C 116.586 40.898 116.452 40.585 116.236 40.33 Z" fill="transparent" stroke-width="0.8" stroke="rgb(32,41,57)" stroke-linecap="round" stroke-linejoin="round" stroke-dasharray=""></path><path d="M 109.24 23.08 C 107.909 21.477 105.93 20.555 103.846 20.567 C 101.762 20.58 99.794 21.527 98.483 23.146 C 97.172 24.765 96.655 26.886 97.074 28.927 C 97.493 30.967 98.804 32.713 100.647 33.684 C 103.584 35.231 107.205 34.487 109.295 31.908 C 111.385 29.329 111.362 25.633 109.24 23.08 Z M 106.305 30.434 C 105.535 31.076 104.54 31.384 103.542 31.291 C 102.544 31.198 101.624 30.713 100.983 29.943 C 100.341 29.173 100.033 28.178 100.126 27.18 C 100.217 26.181 100.702 25.26 101.474 24.62 C 102.51 23.733 103.943 23.473 105.225 23.939 C 106.506 24.405 107.437 25.526 107.661 26.871 C 107.885 28.217 107.367 29.578 106.305 30.434 Z" fill="rgb(46,144,250)"></path><path d="M 109.24 23.08 C 107.909 21.477 105.93 20.555 103.846 20.567 C 101.762 20.58 99.794 21.527 98.483 23.146 C 97.172 24.765 96.655 26.886 97.074 28.927 C 97.493 30.967 98.804 32.713 100.647 33.684 C 103.584 35.231 107.205 34.487 109.295 31.908 C 111.385 29.329 111.362 25.633 109.24 23.08 Z M 106.305 30.434 C 105.535 31.076 104.54 31.384 103.542 31.291 C 102.544 31.198 101.624 30.713 100.983 29.943 C 100.341 29.173 100.033 28.178 100.126 27.18 C 100.217 26.181 100.702 25.26 101.474 24.62 C 102.51 23.733 103.943 23.473 105.225 23.939 C 106.506 24.405 107.437 25.526 107.661 26.871 C 107.885 28.217 107.367 29.578 106.305 30.434 Z M 128.844 71.159 L 131.46 75.472 L 134.536 69.028 M 13.355 120.494 L 21.814 120.494 M 17.584 124.723 L 17.584 116.264 M 66 153.313 L 70.614 153.313 M 68.307 155.62 L 68.307 151.005" fill="transparent" stroke-width="0.8" stroke="rgb(32,41,57)" stroke-linecap="round" stroke-linejoin="round" stroke-dasharray=""></path></svg>