<svg xmlns="http://www.w3.org/2000/svg" xmlns:xlink="http://www.w3.org/1999/xlink" viewBox="0 0 160 160"><path d="M 154.627 60.779 L 153.68 58.577 C 153.969 59.558 153.941 60.605 153.601 61.569 L 129.822 129.573 C 129.115 131.598 127.173 132.928 125.029 132.855 L 31.538 129.726 C 30.791 129.703 30.058 129.509 29.398 129.159 L 31.013 130.495 C 33.277 132.367 36.092 133.444 39.027 133.56 L 125.147 136.967 C 128.627 137.106 131.789 134.955 132.938 131.667 L 154.908 68.862 C 155.83 66.228 155.73 63.343 154.627 60.779 Z" fill="rgb(46,144,250)"></path><path d="M 154.627 60.779 L 153.68 58.577 C 153.969 59.558 153.941 60.605 153.601 61.569 L 129.822 129.573 C 129.115 131.598 127.173 132.928 125.029 132.855 L 31.538 129.726 C 30.791 129.703 30.058 129.509 29.398 129.159 L 31.013 130.495 C 33.277 132.367 36.092 133.444 39.027 133.56 L 125.147 136.967 C 128.627 137.106 131.789 134.955 132.938 131.667 L 154.908 68.862 C 155.83 66.228 155.73 63.343 154.627 60.779 Z" fill="transparent" stroke-width="0.8" stroke="rgb(32,41,57)" stroke-linecap="round" stroke-linejoin="round" stroke-dasharray=""></path><path d="M 35.443 103.975 L 27.206 122.865 C 26.208 125.158 27.094 127.834 29.263 129.079 C 29.957 129.477 30.738 129.699 31.538 129.726 L 125.027 132.854 C 126.071 132.889 127.099 132.59 127.962 132 C 128.824 131.409 129.475 130.559 129.821 129.573 L 153.599 61.569 C 154.126 60.069 153.891 58.407 152.969 57.112 C 152.049 55.817 150.559 55.047 148.97 55.046 L 116.718 55.046 M 47.522 76.272 L 41.932 89.089 M 66.001 55.047 L 59.988 55.047 C 58.037 55.047 56.272 56.203 55.493 57.992 L 53.768 61.949 M 107.992 55.047 L 77.393 55.047" fill="transparent" stroke-width="0.8" stroke="rgb(32,41,57)" stroke-linecap="round" stroke-linejoin="round" stroke-dasharray=""></path><path d="M 138.792 94.442 C 139.234 92.629 138.235 90.827 136.561 90.419 C 134.886 90.011 133.17 91.15 132.729 92.964 C 132.287 94.778 133.285 96.58 134.96 96.988 C 136.634 97.396 138.35 96.256 138.792 94.442 Z" fill="transparent" stroke-width="0.8" stroke="rgb(32,41,57)" stroke-linecap="round" stroke-linejoin="round" stroke-dasharray=""></path><path d="M 99.661 61.33 L 75.316 61.294 C 73.949 65.836 73.247 70.553 73.234 75.296 C 70.713 70.864 68.699 66.163 67.23 61.28 L 63.204 61.274 L 60.737 67.363 C 64.195 70.052 65.911 71.129 67.535 73.719 L 75.511 86.424 C 75.791 86.869 75.847 87.418 75.664 87.911 C 75.482 88.403 75.08 88.782 74.578 88.937 C 74.247 89.04 73.892 89.038 73.562 88.932 L 59.279 84.338 C 57.663 83.818 56.155 83.009 54.829 81.95 L 51.777 89.49 C 53.146 89.853 54.459 90.404 55.677 91.128 C 55.854 91.222 55.962 91.408 55.956 91.608 C 55.951 91.809 55.832 91.988 55.65 92.072 C 53.758 92.867 51.993 93.937 50.413 95.247 C 49.715 95.878 49.1 96.595 48.582 97.381 L 42.255 113.009 C 46.342 111.284 50.807 110.649 55.213 111.164 C 66.784 112.438 68.984 117.181 68.984 117.181 C 68.984 117.181 71.762 111.511 77.547 113.36 C 77.547 113.36 80.603 105.376 89.662 109.079 L 97.726 89.537 L 86.881 89.015 C 87.585 78.528 92.136 68.669 99.66 61.33 Z M 61.692 95.589 C 61.192 95.767 60.637 95.687 60.209 95.373 C 59.781 95.059 59.538 94.551 59.562 94.021 C 59.233 90.804 62.528 89.961 65.048 90.127 C 67 90.307 68.919 90.741 70.758 91.419 C 66.698 92.97 63.911 95.053 61.692 95.589 Z M 120.21 61.362 C 123.341 70.437 120.711 82.117 115.884 90.416 L 105.33 89.908 L 97.332 108.853 C 97.332 108.853 102.426 107.927 103.927 112.555 C 103.927 112.555 115.258 108.428 121.466 116.933 L 141.301 61.396 Z" fill="rgb(224,234,255)"></path><path d="M 48.583 97.381 L 38.02 123.47 L 118.384 125.56 L 141.3 61.396 L 120.209 61.362 M 54.83 81.95 L 51.777 89.491 M 67.227 61.28 L 63.2 61.274 L 60.735 67.363 M 99.663 61.33 L 75.316 61.292" fill="transparent" stroke-width="0.8" stroke="rgb(32,41,57)" stroke-linecap="round" stroke-linejoin="round" stroke-dasharray=""></path><path d="M 103.927 112.556 C 102.423 107.928 97.332 108.854 97.332 108.854 L 105.33 89.909 L 97.725 89.543 L 89.661 109.085 C 80.601 105.383 77.546 113.367 77.546 113.367 C 71.761 111.515 68.983 117.188 68.983 117.188 C 68.983 117.188 66.785 112.443 55.213 111.171 C 50.806 110.656 46.342 111.291 42.254 113.016 L 38.02 123.476 L 118.383 125.565 L 121.464 116.938 C 115.258 108.427 103.927 112.556 103.927 112.556 Z" fill="transparent" stroke-width="0.8" stroke="rgb(32,41,57)" stroke-linecap="round" stroke-linejoin="round" stroke-dasharray=""></path><path d="M 121.421 73.234 C 121.033 77.23 120.063 81.148 118.542 84.864 C 117.769 86.766 116.882 88.618 115.884 90.412 L 114.487 90.348 L 113.184 93.231 L 124.407 93.82 C 125.82 86.76 125.69 78.928 121.421 73.234 Z" fill="rgb(46,144,250)"></path><path d="M 121.421 73.234 C 121.033 77.23 120.063 81.148 118.542 84.864 C 117.769 86.766 116.882 88.618 115.884 90.412 L 114.487 90.348 L 113.184 93.231 L 124.407 93.82 C 125.82 86.76 125.69 78.928 121.421 73.234 Z" fill="transparent" stroke-width="0.8" stroke="rgb(32,41,57)" stroke-linecap="round" stroke-linejoin="round" stroke-dasharray=""></path><path d="M 86.88 89.018 C 87.307 83.484 88.754 78.076 91.148 73.068 C 81.45 77.786 78.818 91.9 78.818 91.9 L 89.117 91.9 L 90.335 89.185 L 86.88 89.019 Z" fill="rgb(46,144,250)"></path><path d="M 86.88 89.018 C 87.307 83.484 88.754 78.076 91.148 73.068 C 81.45 77.786 78.818 91.9 78.818 91.9 L 89.117 91.9 L 90.335 89.185 L 86.88 89.019 Z M 101.774 89.735 L 94.362 107.749" fill="transparent" stroke-width="0.8" stroke="rgb(32,41,57)" stroke-linecap="round" stroke-linejoin="round" stroke-dasharray=""></path><path d="M 114.626 52.844 C 114.234 52.49 113.68 52.381 113.183 52.56 C 99.929 57.886 90.299 69.595 87.631 83.628 C 87.275 85.408 87.024 87.208 86.88 89.018 L 115.884 90.415 C 116.882 88.621 117.769 86.769 118.542 84.867 C 121.849 76.874 124.597 61.902 114.626 52.844 Z M 87.631 83.628 L 118.542 84.867" fill="transparent" stroke-width="0.8" stroke="rgb(32,41,57)" stroke-linecap="round" stroke-linejoin="round" stroke-dasharray=""></path><path d="M 114.213 68.072 C 113.839 72.617 108.475 75.467 104.82 72.3 C 103.343 70.992 102.602 69.043 102.836 67.084 C 103.75 60.528 114.772 61.262 114.213 68.072 Z" fill="rgb(224,234,255)"></path><path d="M 114.213 68.072 C 113.839 72.617 108.475 75.467 104.82 72.3 C 103.343 70.992 102.602 69.043 102.836 67.084 C 103.75 60.528 114.772 61.262 114.213 68.072 Z M 93.59 109.545 L 92.275 112.862 M 113.58 84.668 L 110.759 90.168 M 108.876 84.48 L 106.078 89.936 M 95.839 83.972 L 93.449 89.334 M 73.56 88.932 C 74.236 89.151 74.977 88.922 75.414 88.361 C 75.85 87.8 75.888 87.026 75.51 86.424 L 72.65 81.869 L 68.44 87.282 Z" fill="transparent" stroke-width="0.8" stroke="rgb(32,41,57)" stroke-linecap="round" stroke-linejoin="round" stroke-dasharray=""></path><path d="M 18.726 34.712 C 15.421 32.224 10.731 32.848 8.193 36.114 C 5.654 39.381 6.207 44.08 9.434 46.668 L 54.978 82.07 C 56.267 83.073 57.722 83.841 59.276 84.341 L 68.437 87.287 L 72.647 81.874 L 67.534 73.719 C 66.665 72.335 65.56 71.114 64.27 70.111 Z" fill="transparent" stroke-width="0.8" stroke="rgb(32,41,57)" stroke-linecap="round" stroke-linejoin="round" stroke-dasharray=""></path><path d="M 7.077 43.57 L 8.472 41.775 C 9.118 40.944 10.067 40.404 11.111 40.273 C 12.155 40.143 13.208 40.432 14.039 41.078 L 61.51 77.975 M 15.233 33.206 C 14.4 34.896 14.87 36.938 16.357 38.095 L 63.829 74.992 M 57.223 83.491 L 66.205 71.935 M 73.234 75.296 C 73.234 75.296 64.664 60.791 66.053 50.571 C 66.508 47.215 68.015 43.487 71.58 42.492 C 73.632 41.846 75.873 42.441 77.334 44.021 C 79.462 46.322 79.317 50.105 78.24 52.846 C 76.543 57.168 73.081 66.193 73.234 75.296 Z M 55.649 92.073 C 55.832 91.99 55.952 91.81 55.958 91.609 C 55.964 91.409 55.854 91.222 55.676 91.129 C 55.126 90.839 54.562 90.506 54.402 90.441 C 52.514 89.643 50.541 89.065 48.522 88.717 C 43.066 87.825 37.664 89.739 35.002 94.868 C 33.002 98.718 33.479 104.918 38.754 105.665 C 45.582 106.632 46.482 98.666 50.412 95.249 C 51.992 93.939 53.757 92.868 55.649 92.073 Z M 39.94 82.701 C 39.94 82.701 28.14 70.9 14.139 75.298 C 10.55 76.423 6.994 78.666 5.336 82.165 C 3.622 85.779 4.129 90.913 7.571 92.952 C 11.407 95.224 16.431 92.614 19.318 89.939 C 22.08 87.381 24.16 83.647 27.778 82.162 C 30.309 81.127 33.29 81.318 35.973 81.786 C 36.866 81.942 39.309 82.07 39.942 82.701 Z M 70.76 91.418 C 68.921 90.74 67.002 90.305 65.05 90.126 C 62.53 89.966 59.24 90.804 59.564 94.02 C 59.54 94.55 59.782 95.058 60.209 95.372 C 60.636 95.687 61.193 95.768 61.692 95.588 C 63.91 95.052 66.698 92.969 70.761 91.418 Z M 51.666 40.44 L 48.814 44.843 L 51.666 49.246 L 54.52 44.843 Z" fill="transparent" stroke-width="0.8" stroke="rgb(32,41,57)" stroke-linecap="round" stroke-linejoin="round" stroke-dasharray=""></path><path d="M 12.717 110.681 L 9.863 115.084 L 12.717 119.487 L 15.57 115.084 Z" fill="rgb(224,234,255)"></path><path d="M 12.717 110.681 L 9.863 115.084 L 12.717 119.487 L 15.57 115.084 Z M 60.625 28.859 L 57.72 28.859 M 63.69 25.794 L 63.69 22.89 M 66.754 28.859 L 69.659 28.859 M 63.69 31.923 L 63.69 34.829 M 63.69 31.922 C 64.798 31.942 65.83 31.363 66.39 30.406 C 66.949 29.45 66.949 28.267 66.39 27.311 C 65.83 26.354 64.798 25.775 63.69 25.795 C 62.02 25.825 60.681 27.188 60.681 28.858 C 60.681 30.529 62.02 31.892 63.69 31.922 Z M 10.418 65.173 L 7.514 65.173 M 13.483 62.11 L 13.483 59.203 M 16.547 65.173 L 19.453 65.173 M 13.483 68.237 L 13.483 71.143 M 13.483 68.237 C 15.175 68.237 16.547 66.865 16.547 65.173 C 16.547 63.481 15.175 62.109 13.483 62.109 C 11.791 62.109 10.419 63.481 10.419 65.173 C 10.419 66.865 11.791 68.237 13.483 68.237 Z M 85.877 105.478 C 86.772 105.478 87.497 104.753 87.497 103.858 C 87.497 102.963 86.772 102.238 85.877 102.238 C 84.982 102.238 84.257 102.963 84.257 103.858 C 84.257 104.753 84.982 105.478 85.877 105.478 Z M 108.991 120.422 C 109.886 120.422 110.611 119.697 110.611 118.802 C 110.611 117.907 109.886 117.182 108.991 117.182 C 108.096 117.182 107.371 117.907 107.371 118.802 C 107.371 119.697 108.096 120.422 108.991 120.422 Z M 107.371 100.464 C 107.959 100.479 108.509 100.174 108.808 99.667 C 109.106 99.16 109.106 98.531 108.808 98.023 C 108.51 97.516 107.96 97.211 107.372 97.225 C 106.493 97.247 105.792 97.965 105.792 98.844 C 105.791 99.723 106.492 100.442 107.371 100.464 Z" fill="transparent" stroke-width="0.8" stroke="rgb(32,41,57)" stroke-linecap="round" stroke-linejoin="round" stroke-dasharray=""></path></svg>