<svg xmlns="http://www.w3.org/2000/svg" xmlns:xlink="http://www.w3.org/1999/xlink" viewBox="0 0 48 49"><path d="M 30 12.36 L 30 46.04 C 29.993 46.703 29.665 47.322 29.12 47.7 C 28.572 48.073 27.874 48.148 27.26 47.9 L 11.26 41.5 C 10.499 41.197 9.999 40.46 10 39.64 L 10 5 C 10.006 4.337 10.335 3.718 10.88 3.34 L 28.74 10.5 C 29.501 10.803 30.001 11.54 30 12.36 Z" fill="rgb(75,85,101)"></path><path d="M 42 5 L 42 39 C 42 40.105 41.105 41 40 41 L 36 41 L 36 9.66 C 36.002 8.698 35.323 7.869 34.38 7.68 L 11.1 3.22 C 11.379 3.077 11.687 3.002 12 3 L 40 3 C 41.105 3 42 3.895 42 5 Z" fill="rgb(75,85,101)"></path><path d="M 36 9.66 L 36 43 C 36 44.105 35.105 45 34 45 L 30 45 L 30 12.36 C 30.001 11.54 29.501 10.803 28.74 10.5 L 10.88 3.34 C 10.96 3.3 11.02 3.26 11.1 3.22 L 34.38 7.68 C 35.323 7.869 36.002 8.698 36 9.66 Z" fill="rgb(75,85,101)"></path><path d="M 30 12.36 L 30 46.04 C 29.993 46.703 29.665 47.322 29.12 47.7 C 28.572 48.073 27.874 48.148 27.26 47.9 L 11.26 41.5 C 10.499 41.197 9.999 40.46 10 39.64 L 10 5 C 10.006 4.337 10.335 3.718 10.88 3.34 M 30 12.36 C 30.001 11.54 29.501 10.803 28.74 10.5 L 10.88 3.34 M 30 12.36 L 30 45 L 34 45 C 35.105 45 36 44.105 36 43 L 36 9.66 C 36.002 8.698 35.323 7.869 34.38 7.68 L 11.1 3.22 C 11.02 3.26 10.96 3.3 10.88 3.34 M 42 5 L 42 39 C 42 40.105 41.105 41 40 41 L 36 41 L 36 9.66 C 36.002 8.698 35.323 7.869 34.38 7.68 L 11.1 3.22 C 11.379 3.077 11.687 3.002 12 3 L 40 3 C 41.105 3 42 3.895 42 5 Z" fill="transparent" stroke="rgb(75,85,101)" stroke-linecap="round" stroke-linejoin="round" stroke-dasharray=""></path><path d="M 28 10.36 L 28 44.04 C 27.993 44.703 27.665 45.322 27.12 45.7 C 26.572 46.073 25.874 46.148 25.26 45.9 L 9.26 39.5 C 8.499 39.197 7.999 38.46 8 37.64 L 8 3 C 8.007 2.337 8.335 1.718 8.88 1.34 L 26.74 8.5 C 27.501 8.803 28.001 9.54 28 10.36 Z" fill="rgb(255,255,255)"></path><path d="M 40 3 L 40 37 C 40 38.105 39.105 39 38 39 L 34 39 L 34 7.66 C 34.002 6.698 33.323 5.869 32.38 5.68 L 9.1 1.22 C 9.379 1.077 9.687 1.002 10 1 L 38 1 C 39.105 1 40 1.895 40 3 Z" fill="rgb(224,234,255)"></path><path d="M 34 7.66 L 34 41 C 34 42.105 33.105 43 32 43 L 28 43 L 28 10.36 C 28.001 9.54 27.501 8.803 26.74 8.5 L 8.88 1.34 C 8.96 1.3 9.02 1.26 9.1 1.22 L 32.38 5.68 C 33.323 5.869 34.002 6.698 34 7.66 Z" fill="rgb(83,177,253)"></path><path d="M 28 10.36 L 28 44.04 C 27.993 44.703 27.665 45.322 27.12 45.7 C 26.572 46.073 25.874 46.148 25.26 45.9 L 9.26 39.5 C 8.499 39.197 7.999 38.46 8 37.64 L 8 3 C 8.007 2.337 8.335 1.718 8.88 1.34 M 28 10.36 C 28.001 9.54 27.501 8.803 26.74 8.5 L 8.88 1.34 M 28 10.36 L 28 43 L 32 43 C 33.105 43 34 42.105 34 41 L 34 7.66 C 34.002 6.698 33.323 5.869 32.38 5.68 L 9.1 1.22 C 9.02 1.26 8.96 1.3 8.88 1.34 M 40 3 L 40 37 C 40 38.105 39.105 39 38 39 L 34 39 L 34 7.66 C 34.002 6.698 33.323 5.869 32.38 5.68 L 9.1 1.22 C 9.379 1.077 9.687 1.002 10 1 L 38 1 C 39.105 1 40 1.895 40 3 Z" fill="transparent" stroke="rgb(75,85,101)" stroke-linecap="round" stroke-linejoin="round" stroke-dasharray=""></path></svg>