<svg xmlns="http://www.w3.org/2000/svg" xmlns:xlink="http://www.w3.org/1999/xlink" viewBox="0 0 50 48"><path d="M 28.291 35.93 L 28.295 35.921 L 28.297 35.913 C 28.86 34.386 30.213 33.289 31.823 33.052 C 33.433 32.816 35.044 33.479 36.022 34.779 C 37 36.08 37.189 37.812 36.515 39.293 L 36.511 39.302 L 36.508 39.311 C 36.291 39.837 35.711 40.544 34.883 41.341 C 34.073 42.121 33.079 42.938 32.11 43.682 C 31.088 44.463 30.044 45.214 28.978 45.934 C 28.73 44.673 28.518 43.404 28.342 42.131 C 28.178 40.92 28.048 39.641 28.021 38.516 C 27.993 37.368 28.077 36.456 28.291 35.929 Z M 37.772 33.748 L 31.3 31.09 L 37.008 17.227 L 43.483 19.892 L 37.773 33.748 Z M 41.297 5.478 C 42.161 3.473 44.473 2.531 46.493 3.361 C 48.512 4.191 49.493 6.487 48.697 8.52 L 44.127 19.62 L 36.727 16.577 L 41.296 5.479 Z" fill="rgb(75,85,101)" stroke="rgb(75,85,101)" stroke-miterlimit="10" stroke-dasharray=""></path><path d="M 27.828 35.74 C 28.454 34.04 29.958 32.818 31.75 32.555 C 33.543 32.291 35.335 33.029 36.424 34.477 C 37.512 35.925 37.721 37.852 36.97 39.5 C 35.932 42.027 28.636 46.763 28.636 46.763 C 28.636 46.763 26.8 38.265 27.828 35.741 Z" fill="rgb(75,85,101)" stroke="rgb(75,85,101)" stroke-linecap="round" stroke-linejoin="round" stroke-dasharray=""></path><path d="M 30.646 31.362 L 36.734 16.574 L 44.134 19.62 L 38.044 34.4 L 30.647 31.362 Z" fill="rgb(75,85,101)" stroke="rgb(75,85,101)" stroke-linecap="round" stroke-linejoin="round" stroke-dasharray=""></path><path d="M 41.297 5.478 C 42.161 3.473 44.473 2.531 46.493 3.361 C 48.512 4.191 49.493 6.487 48.697 8.52 L 44.127 19.62 L 36.727 16.577 L 41.296 5.479 Z" fill="rgb(75,85,101)" stroke="rgb(75,85,101)" stroke-linecap="round" stroke-linejoin="round" stroke-dasharray=""></path><path d="M 26.291 33.93 L 26.295 33.921 L 26.297 33.913 C 26.86 32.386 28.213 31.289 29.823 31.052 C 31.433 30.816 33.044 31.479 34.022 32.779 C 35 34.08 35.189 35.812 34.515 37.293 L 34.511 37.302 L 34.508 37.311 C 34.291 37.837 33.711 38.544 32.883 39.341 C 32.073 40.121 31.079 40.938 30.11 41.682 C 29.088 42.463 28.044 43.214 26.978 43.934 C 26.73 42.673 26.518 41.404 26.342 40.131 C 26.178 38.92 26.048 37.641 26.021 36.516 C 25.993 35.368 26.077 34.456 26.291 33.929 Z" fill="rgb(224,234,255)" stroke="rgb(75,85,101)" stroke-miterlimit="10" stroke-dasharray=""></path><path d="M 35.772 31.748 L 29.3 29.09 L 35.008 15.227 L 41.483 17.892 L 35.773 31.748 Z" fill="rgb(255,255,255)" stroke="rgb(75,85,101)" stroke-miterlimit="10" stroke-dasharray=""></path><path d="M 39.297 3.478 C 40.161 1.473 42.473 0.531 44.493 1.361 C 46.512 2.191 47.493 4.487 46.697 6.52 L 42.127 17.62 L 34.727 14.577 L 39.296 3.479 Z" fill="rgb(83,177,253)" stroke="rgb(75,85,101)" stroke-miterlimit="10" stroke-dasharray=""></path><path d="M 25.828 33.74 C 26.454 32.04 27.958 30.818 29.75 30.555 C 31.543 30.291 33.335 31.029 34.424 32.477 C 35.512 33.925 35.721 35.852 34.97 37.5 C 33.932 40.027 26.636 44.763 26.636 44.763 C 26.636 44.763 24.8 36.265 25.828 33.741 Z" fill="transparent" stroke="rgb(75,85,101)" stroke-linecap="round" stroke-linejoin="round" stroke-dasharray=""></path><path d="M 28.646 29.362 L 34.734 14.574 L 42.134 17.62 L 36.044 32.4 L 28.647 29.362 Z" fill="rgb(255,255,255)" stroke="rgb(75,85,101)" stroke-linecap="round" stroke-linejoin="round" stroke-dasharray=""></path><path d="M 39.297 3.478 C 40.161 1.473 42.473 0.531 44.493 1.361 C 46.512 2.191 47.493 4.487 46.697 6.52 L 42.127 17.62 L 34.727 14.577 L 39.296 3.479 Z M 39.298 3.474 C 37.255 2.634 34.918 3.609 34.078 5.652 L 28 20.446 M 1 46.345 C 2.619 44.917 4.707 44.134 6.866 44.145 C 10.382 44.145 16.594 49.839 22.266 45.145" fill="transparent" stroke="rgb(75,85,101)" stroke-linecap="round" stroke-linejoin="round" stroke-dasharray=""></path></svg>