<svg xmlns="http://www.w3.org/2000/svg" xmlns:xlink="http://www.w3.org/1999/xlink" viewBox="0 0 50 48"><path d="M 7 9 L 45 9 C 46.105 9 47 9.895 47 11 L 47 33 L 5 33 L 5 11 C 5 9.895 5.895 9 7 9 Z" fill="rgb(75,85,101)"></path><path d="M 46.5 15.5 L 26 32.5 L 46.5 32.5 Z" fill="rgb(75,85,101)"></path><path d="M 31 9 L 45 9 C 46.105 9 47 9.895 47 11 L 47 33 L 5 33 L 5 11 C 5 9.895 5.895 9 7 9 L 21 9" fill="rgb(75,85,101)"></path><path d="M 31 9 L 45 9 C 46.105 9 47 9.895 47 11 L 47 33 L 5 33 L 5 11 C 5 9.895 5.895 9 7 9 L 21 9" fill="transparent" stroke="rgb(75,85,101)" stroke-linecap="round" stroke-linejoin="round" stroke-dasharray=""></path><path d="M 31 9 C 31 10.105 30.105 11 29 11 L 23 11 C 21.895 11 21 10.105 21 9 C 21 7.895 21.895 7 23 7 L 29 7 C 30.105 7 31 7.895 31 9 Z M 47 33 L 5 33 C 3.895 33 3 33.895 3 35 C 3 36.105 3.895 37 5 37 L 47 37 C 48.105 37 49 36.105 49 35 C 49 33.895 48.105 33 47 33 Z" fill="rgb(75,85,101)"></path><path d="M 31 9 C 31 10.105 30.105 11 29 11 L 23 11 C 21.895 11 21 10.105 21 9 C 21 7.895 21.895 7 23 7 L 29 7 C 30.105 7 31 7.895 31 9 Z M 47 33 L 5 33 C 3.895 33 3 33.895 3 35 C 3 36.105 3.895 37 5 37 L 47 37 C 48.105 37 49 36.105 49 35 C 49 33.895 48.105 33 47 33 Z" fill="rgb(75,85,101)" stroke="rgb(75,85,101)" stroke-linecap="round" stroke-linejoin="round" stroke-dasharray=""></path><path d="M 5 7 L 43 7 C 44.105 7 45 7.895 45 9 L 45 31 L 3 31 L 3 9 C 3 7.895 3.895 7 5 7 Z" fill="rgb(255,255,255)"></path><path d="M 44.5 13.5 L 24 30.5 L 44.5 30.5 Z" fill="rgb(224,234,255)"></path><path d="M 29 7 L 43 7 C 44.105 7 45 7.895 45 9 L 45 31 L 3 31 L 3 9 C 3 7.895 3.895 7 5 7 L 19 7" fill="transparent" stroke="rgb(75,85,101)" stroke-linecap="round" stroke-linejoin="round" stroke-dasharray=""></path><path d="M 29 7 C 29 8.105 28.105 9 27 9 L 21 9 C 19.895 9 19 8.105 19 7 C 19 5.895 19.895 5 21 5 L 27 5 C 28.105 5 29 5.895 29 7 Z" fill="rgb(83,177,253)"></path><path d="M 45 31 L 3 31 C 1.895 31 1 31.895 1 33 C 1 34.105 1.895 35 3 35 L 45 35 C 46.105 35 47 34.105 47 33 C 47 31.895 46.105 31 45 31 Z" fill="rgb(255,255,255)"></path><path d="M 29 7 C 29 8.105 28.105 9 27 9 L 21 9 C 19.895 9 19 8.105 19 7 C 19 5.895 19.895 5 21 5 L 27 5 C 28.105 5 29 5.895 29 7 Z" fill="transparent" stroke="rgb(75,85,101)" stroke-linecap="round" stroke-linejoin="round" stroke-dasharray=""></path><path d="M 45 31 L 3 31 C 1.895 31 1 31.895 1 33 C 1 34.105 1.895 35 3 35 L 45 35 C 46.105 35 47 34.105 47 33 C 47 31.895 46.105 31 45 31 Z" fill="rgb(83,177,253)" stroke="rgb(75,85,101)" stroke-linecap="round" stroke-linejoin="round" stroke-dasharray=""></path><path d="M 24 35 L 24 47 M 8 47 L 14 35 M 40 47 L 34 35 M 24 1 L 24 5" fill="transparent" stroke="rgb(75,85,101)" stroke-linecap="round" stroke-linejoin="round" stroke-dasharray=""></path></svg>