<svg xmlns="http://www.w3.org/2000/svg" xmlns:xlink="http://www.w3.org/1999/xlink" viewBox="0 0 50 50"><path d="M 3 41 C 3 45.418 6.582 49 11 49 C 15.418 49 19 45.418 19 41 C 19 36.582 15.418 33 11 33 C 6.582 33 3 36.582 3 41 Z" fill="rgb(75,85,101)"></path><path d="M 3 41.613 C 3 42.55 3.152 43.481 3.45 44.369 C 6.5 46.501 10.574 46.433 13.551 44.201 C 16.528 41.97 17.736 38.078 16.546 34.553 C 13.915 32.714 10.479 32.491 7.632 33.974 C 4.785 35.458 2.999 38.403 3 41.613 Z M 33 41 C 33 45.419 36.582 49 41 49 C 45.419 49 49.001 45.419 49.001 41 C 49.001 36.581 45.419 32.999 41 32.999 C 36.582 32.999 33 36.581 33 41 Z" fill="rgb(75,85,101)"></path><path d="M 33 41.613 C 33 42.55 33.151 43.481 33.45 44.369 C 36.5 46.501 40.574 46.433 43.551 44.201 C 46.528 41.97 47.736 38.078 46.546 34.553 C 43.915 32.714 40.479 32.491 37.632 33.974 C 34.785 35.458 32.999 38.403 33 41.613 Z" fill="rgb(75,85,101)"></path><path d="M 3 40.998 C 3 45.416 6.582 48.998 11 48.998 C 15.418 48.998 19 45.416 19 40.998 C 19 36.58 15.418 32.998 11 32.998 C 6.582 32.998 3 36.58 3 40.998 Z M 33 40.998 C 33 45.416 36.582 48.998 41 48.998 C 45.418 48.998 49 45.416 49 40.998 C 49 36.58 45.418 32.998 41 32.998 C 36.582 32.998 33 36.58 33 40.998 Z" fill="rgb(75,85,101)" stroke="rgb(75,85,101)" stroke-linecap="round" stroke-linejoin="round" stroke-dasharray=""></path><path d="M 18 10.998 C 18 15.416 21.582 18.998 26 18.998 C 30.418 18.998 34 15.416 34 10.998 C 34 6.58 30.418 2.998 26 2.998 C 21.582 2.998 18 6.58 18 10.998 Z" fill="rgb(75,85,101)"></path><path d="M 18 11.613 C 18 12.55 18.151 13.481 18.45 14.369 C 21.5 16.504 25.576 16.437 28.555 14.204 C 31.533 11.97 32.74 8.076 31.545 4.55 C 28.913 2.711 25.477 2.489 22.63 3.973 C 19.783 5.457 17.999 8.402 18 11.613 Z" fill="rgb(75,85,101)"></path><path d="M 18 10.998 C 18 15.416 21.582 18.998 26 18.998 C 30.418 18.998 34 15.416 34 10.998 C 34 6.58 30.418 2.998 26 2.998 C 21.582 2.998 18 6.58 18 10.998 Z" fill="rgb(75,85,101)" stroke="rgb(75,85,101)" stroke-linecap="round" stroke-linejoin="round" stroke-dasharray=""></path><path d="M 1 39 C 1 43.418 4.582 47 9 47 C 13.418 47 17 43.418 17 39 C 17 34.582 13.418 31 9 31 C 4.582 31 1 34.582 1 39 Z" fill="rgb(83,177,253)"></path><path d="M 1 39.613 C 1 40.55 1.152 41.481 1.45 42.369 C 4.5 44.501 8.574 44.433 11.551 42.201 C 14.528 39.97 15.736 36.078 14.546 32.553 C 11.915 30.714 8.479 30.491 5.632 31.974 C 2.785 33.458 0.999 36.403 1 39.613 Z" fill="rgb(255,255,255)"></path><path d="M 31 39 C 31 43.419 34.582 47.001 39.001 47.001 C 43.419 47.001 47.001 43.419 47.001 39 C 47.001 34.581 43.419 30.999 39.001 30.999 C 34.582 30.999 31 34.581 31 39 Z" fill="rgb(83,177,253)"></path><path d="M 31 39.613 C 31 40.55 31.151 41.481 31.45 42.369 C 34.5 44.501 38.574 44.433 41.551 42.201 C 44.528 39.97 45.736 36.078 44.546 32.553 C 41.915 30.714 38.479 30.491 35.632 31.974 C 32.785 33.458 30.999 36.403 31 39.613 Z" fill="rgb(255,255,255)"></path><path d="M 1 38.998 C 1 43.416 4.582 46.998 9 46.998 C 13.418 46.998 17 43.416 17 38.998 C 17 34.58 13.418 30.998 9 30.998 C 4.582 30.998 1 34.58 1 38.998 Z M 31 38.998 C 31 43.416 34.582 46.998 39 46.998 C 43.418 46.998 47 43.416 47 38.998 C 47 34.58 43.418 30.998 39 30.998 C 34.582 30.998 31 34.58 31 38.998 Z" fill="transparent" stroke="rgb(75,85,101)" stroke-linecap="round" stroke-linejoin="round" stroke-dasharray=""></path><path d="M 16 8.998 C 16 13.416 19.582 16.998 24 16.998 C 28.418 16.998 32 13.416 32 8.998 C 32 4.58 28.418 0.998 24 0.998 C 19.582 0.998 16 4.58 16 8.998 Z" fill="rgb(83,177,253)"></path><path d="M 16 9.613 C 16 10.55 16.151 11.481 16.45 12.369 C 19.5 14.504 23.576 14.437 26.555 12.204 C 29.533 9.97 30.74 6.076 29.545 2.55 C 26.913 0.711 23.477 0.489 20.63 1.973 C 17.783 3.457 15.999 6.402 16 9.613 Z" fill="rgb(255,255,255)"></path><path d="M 16 8.998 C 16 13.416 19.582 16.998 24 16.998 C 28.418 16.998 32 13.416 32 8.998 C 32 4.58 28.418 0.998 24 0.998 C 19.582 0.998 16 4.58 16 8.998 Z M 17 38.998 L 31 38.998 M 27.969 15.902 L 35.829 31.65 M 20 15.998 L 12.174 31.65" fill="transparent" stroke="rgb(75,85,101)" stroke-linecap="round" stroke-linejoin="round" stroke-dasharray=""></path></svg>