<svg xmlns="http://www.w3.org/2000/svg" xmlns:xlink="http://www.w3.org/1999/xlink" viewBox="0 0 48 48"><path d="M 15.453 14.268 L 45.014 16.948 C 46.112 17.048 46.921 18.018 46.824 19.116 L 44.463 45.014 C 44.415 45.543 44.159 46.03 43.751 46.37 C 43.343 46.709 42.816 46.873 42.288 46.824 L 11.701 44.024 C 11.136 43.974 10.619 43.686 10.279 43.233 C 9.939 42.779 9.807 42.202 9.916 41.646 Z" fill="rgb(75,85,101)" stroke="rgb(75,85,101)" stroke-miterlimit="10" stroke-dasharray=""></path><path d="M 37 5 C 38.105 5 39 5.895 39 7 L 39 33 L 5 33 L 5 7 C 5 5.895 5.895 5 7 5 Z" fill="rgb(75,85,101)"></path><path d="M 37 5 C 38.105 5 39 5.895 39 7 L 39 33 L 5 33 L 5 7 C 5 5.895 5.895 5 7 5 Z" fill="rgb(75,85,101)" stroke="rgb(75,85,101)" stroke-linecap="round" stroke-linejoin="round" stroke-dasharray=""></path><path d="M 39 33 L 39 37 C 39 38.105 38.105 39 37 39 L 7 39 C 5.895 39 5 38.105 5 37 L 5 33 Z" fill="rgb(75,85,101)"></path><path d="M 39 33 L 39 37 C 39 38.105 38.105 39 37 39 L 7 39 C 5.895 39 5 38.105 5 37 L 5 33 Z" fill="rgb(75,85,101)" stroke="rgb(75,85,101)" stroke-linecap="round" stroke-linejoin="round" stroke-dasharray=""></path><path d="M 13.453 12.268 L 43.014 14.948 C 44.112 15.048 44.921 16.018 44.824 17.116 L 42.463 43.014 C 42.415 43.543 42.159 44.03 41.751 44.37 C 41.343 44.709 40.816 44.873 40.288 44.824 L 9.701 42.024 C 9.136 41.974 8.619 41.686 8.279 41.233 C 7.939 40.779 7.807 40.202 7.916 39.646 Z" fill="rgb(224,234,255)" stroke="rgb(75,85,101)" stroke-miterlimit="10" stroke-dasharray=""></path><path d="M 35 3 C 36.105 3 37 3.895 37 5 L 37 31 L 3 31 L 3 5 C 3 3.895 3.895 3 5 3 Z" fill="rgb(255,255,255)"></path><path d="M 35 3 C 36.105 3 37 3.895 37 5 L 37 31 L 3 31 L 3 5 C 3 3.895 3.895 3 5 3 Z" fill="transparent" stroke="rgb(75,85,101)" stroke-linecap="round" stroke-linejoin="round" stroke-dasharray=""></path><path d="M 31.006 31.006 L 25.748 17.864 C 25.348 16.842 24.634 16.826 24.178 17.826 L 20.006 27.006 L 16.286 22.542 C 16.017 22.146 15.557 21.924 15.08 21.961 C 14.602 21.998 14.182 22.289 13.978 22.722 L 9.006 31.006" fill="rgb(255,255,255)"></path><path d="M 37 31 L 37 35 C 37 36.105 36.105 37 35 37 L 5 37 C 3.895 37 3 36.105 3 35 L 3 31 Z M 9.006 12.006 C 9.006 13.663 10.349 15.006 12.006 15.006 C 13.663 15.006 15.006 13.663 15.006 12.006 C 15.006 10.349 13.663 9.006 12.006 9.006 C 10.349 9.006 9.006 10.349 9.006 12.006 Z" fill="rgb(255,255,255)"></path><path d="M 31.006 31.006 L 25.748 17.864 C 25.348 16.842 24.634 16.826 24.178 17.826 L 20.006 27.006 L 16.286 22.542 C 16.017 22.146 15.557 21.924 15.08 21.961 C 14.602 21.998 14.182 22.289 13.978 22.722 L 9.006 31.006" fill="rgb(83,177,253)"></path><path d="M 31.006 31.006 L 25.748 17.864 C 25.348 16.842 24.634 16.826 24.178 17.826 L 20.006 27.006 L 16.286 22.542 C 16.017 22.146 15.557 21.924 15.08 21.961 C 14.602 21.998 14.182 22.289 13.978 22.722 L 9.006 31.006" fill="transparent" stroke="rgb(75,85,101)" stroke-linecap="round" stroke-linejoin="round" stroke-dasharray=""></path><path d="M 37 31 L 37 35 C 37 36.105 36.105 37 35 37 L 5 37 C 3.895 37 3 36.105 3 35 L 3 31 Z" fill="transparent" stroke="rgb(75,85,101)" stroke-linecap="round" stroke-linejoin="round" stroke-dasharray=""></path><path d="M 9.006 12.006 C 9.006 13.663 10.349 15.006 12.006 15.006 C 13.663 15.006 15.006 13.663 15.006 12.006 C 15.006 10.349 13.663 9.006 12.006 9.006 C 10.349 9.006 9.006 10.349 9.006 12.006 Z" fill="rgb(83,177,253)" stroke="rgb(75,85,101)" stroke-linecap="round" stroke-linejoin="round" stroke-dasharray=""></path></svg>