<svg xmlns="http://www.w3.org/2000/svg" xmlns:xlink="http://www.w3.org/1999/xlink" viewBox="0 0 48 51"><path d="M 45.631 8.225 L 19.942 39.227 L 18.28 50 C 17.659 50.005 17.102 49.617 16.893 49.032 L 12.127 35.886 Z M 45.631 8.224 L 12.127 35.885 L 5.19 32.909 C 4.501 32.608 4.042 31.944 4.003 31.193 C 3.966 30.443 4.364 29.739 5.026 29.385 L 44.555 8.115 C 44.903 7.93 45.328 7.973 45.632 8.224 Z" fill="rgb(75,85,101)"></path><path d="M 45.96 9.247 L 36.265 43.81 C 36.119 44.357 35.738 44.811 35.225 45.051 C 34.719 45.291 34.135 45.305 33.618 45.088 L 24.78 41.29 L 19.503 49.342 C 19.228 49.749 18.771 49.995 18.28 49.999 L 19.941 39.227 L 45.631 8.225 C 45.941 8.465 46.072 8.871 45.959 9.247 Z M 12.133 35.876 L 45.63 8.22 Z" fill="rgb(75,85,101)"></path><path d="M 12.133 35.876 L 45.63 8.22" fill="transparent" stroke="rgb(75,85,101)" stroke-linecap="round" stroke-linejoin="round" stroke-dasharray=""></path><path d="M 19.944 39.227 L 33.617 45.086 C 34.136 45.308 34.725 45.295 35.234 45.05 C 35.742 44.805 36.12 44.352 36.269 43.808 L 45.96 9.247 C 46.066 8.869 45.937 8.465 45.631 8.22 C 45.324 7.974 44.901 7.936 44.556 8.122 L 5.03 29.382 C 4.369 29.738 3.971 30.441 4.004 31.19 C 4.038 31.94 4.497 32.604 5.187 32.9 L 12.126 35.876" fill="rgb(75,85,101)"></path><path d="M 19.944 39.227 L 33.617 45.086 C 34.136 45.308 34.725 45.295 35.234 45.05 C 35.742 44.805 36.12 44.352 36.269 43.808 L 45.96 9.247 C 46.066 8.869 45.937 8.465 45.631 8.22 C 45.324 7.974 44.901 7.936 44.556 8.122 L 5.03 29.382 C 4.369 29.738 3.971 30.441 4.004 31.19 C 4.038 31.94 4.497 32.604 5.187 32.9 L 12.126 35.876" fill="transparent" stroke="rgb(75,85,101)" stroke-linecap="round" stroke-linejoin="round" stroke-dasharray=""></path><path d="M 12.133 35.876 L 16.88 49.022 C 17.069 49.546 17.538 49.919 18.092 49.984 C 18.645 50.049 19.188 49.795 19.493 49.329 L 24.768 41.295" fill="rgb(75,85,101)"></path><path d="M 12.133 35.876 L 16.88 49.022 C 17.069 49.546 17.538 49.919 18.092 49.984 C 18.645 50.049 19.188 49.795 19.493 49.329 L 24.768 41.295" fill="transparent" stroke="rgb(75,85,101)" stroke-linecap="round" stroke-linejoin="round" stroke-dasharray=""></path><path d="M 45.63 8.219 L 19.942 39.225 L 18.27 49.999" fill="rgb(75,85,101)"></path><path d="M 45.63 8.219 L 19.942 39.225 L 18.27 49.999" fill="transparent" stroke="rgb(75,85,101)" stroke-linecap="round" stroke-linejoin="round" stroke-dasharray=""></path><path d="M 43.631 6.225 L 17.942 37.227 L 16.28 48 C 15.659 48.005 15.102 47.617 14.893 47.032 L 10.127 33.886 Z" fill="rgb(224,234,255)"></path><path d="M 43.631 6.224 L 10.127 33.885 L 3.19 30.909 C 2.501 30.608 2.042 29.944 2.003 29.193 C 1.966 28.443 2.364 27.739 3.026 27.385 L 42.555 6.115 C 42.903 5.93 43.328 5.973 43.632 6.224 Z" fill="rgb(83,177,253)"></path><path d="M 43.96 7.247 L 34.265 41.81 C 34.119 42.357 33.738 42.811 33.225 43.051 C 32.719 43.291 32.135 43.305 31.618 43.088 L 22.78 39.29 L 17.503 47.342 C 17.228 47.749 16.771 47.995 16.28 47.999 L 17.941 37.227 L 43.631 6.225 C 43.941 6.465 44.072 6.871 43.959 7.247 Z" fill="rgb(255,255,255)"></path><path d="M 10.133 33.876 L 43.63 6.22 M 17.944 37.227 L 31.617 43.086 C 32.136 43.308 32.725 43.295 33.234 43.05 C 33.742 42.805 34.12 42.352 34.269 41.808 L 43.96 7.247 C 44.066 6.869 43.937 6.465 43.631 6.22 C 43.324 5.974 42.901 5.936 42.556 6.122 L 3.03 27.382 C 2.369 27.738 1.971 28.441 2.004 29.19 C 2.038 29.94 2.497 30.604 3.187 30.9 L 10.126 33.876" fill="transparent" stroke="rgb(75,85,101)" stroke-linecap="round" stroke-linejoin="round" stroke-dasharray=""></path><path d="M 10.133 33.876 L 14.88 47.022 C 15.069 47.546 15.538 47.919 16.092 47.984 C 16.645 48.049 17.188 47.795 17.493 47.329 L 22.768 39.295" fill="transparent" stroke="rgb(75,85,101)" stroke-linecap="round" stroke-linejoin="round" stroke-dasharray=""></path><path d="M 43.63 6.219 L 17.942 37.225 L 16.27 47.999" fill="transparent" stroke="rgb(75,85,101)" stroke-linecap="round" stroke-linejoin="round" stroke-dasharray=""></path></svg>