<svg xmlns="http://www.w3.org/2000/svg" xmlns:xlink="http://www.w3.org/1999/xlink" viewBox="0 0 50 48"><path d="M 48.998 25.744 L 48.996 25.747 C 49.001 25.751 49.006 25.756 49.011 25.761 C 49.203 25.955 49.205 26.267 49.015 26.462 L 45.199 30.259 L 43.025 37.886 C 42.598 39.381 41.43 40.55 39.935 40.977 L 24.002 45.539 C 23.49 45.685 22.94 45.548 22.556 45.182 C 22.545 45.172 22.534 45.162 22.523 45.152 C 22.511 45.139 22.499 45.126 22.488 45.112 C 22.135 44.73 22.004 44.189 22.147 43.685 L 26.699 27.753 C 27.126 26.258 28.294 25.09 29.789 24.662 L 37.418 22.483 L 41.205 18.696 C 41.4 18.501 41.717 18.501 41.912 18.696 C 41.912 18.696 41.912 18.696 41.912 18.696 L 41.925 18.683 Z" fill="rgb(75, 85, 101)"></path><g transform="translate(20.092 16.553)" id="ss10093331809_2"><path d="M 26.908 7.194 L 22.663 11.447 L 15.593 4.374 L 19.835 0.133" fill="rgb(83,177,253)"></path><path d="M 22.664 11.447 L 15.6 4.375 L 7.836 6.593 C 6.507 6.974 5.469 8.013 5.09 9.341 L 0.538 25.273 C 0.438 25.622 0.536 25.998 0.792 26.255 C 1.049 26.512 1.425 26.609 1.774 26.509 L 17.708 21.947 C 19.036 21.567 20.075 20.528 20.454 19.199 Z" fill="rgb(255,255,255)"></path><path d="M 0.933 26.325 C 1.171 26.509 1.481 26.573 1.773 26.499 L 17.708 21.947 C 19.036 21.567 20.075 20.528 20.454 19.199 L 22.663 11.447 L 19.245 8.023 Z" fill="rgb(224,234,255)"></path><path d="M 15.463 3.894 C 15.637 3.845 15.825 3.893 15.953 4.021 L 23.018 11.093 C 23.146 11.222 23.194 11.409 23.145 11.583 L 20.935 19.336 C 20.508 20.831 19.34 22 17.845 22.427 L 1.912 26.989 C 1.388 27.138 0.825 26.991 0.44 26.607 C 0.055 26.222 -0.091 25.659 0.057 25.135 L 4.609 9.203 C 5.036 7.708 6.204 6.54 7.699 6.112 Z M 7.973 7.074 C 6.811 7.407 5.903 8.316 5.571 9.478 L 1.019 25.41 C 0.969 25.585 1.018 25.773 1.146 25.901 C 1.274 26.029 1.462 26.078 1.637 26.028 L 17.571 21.466 C 18.733 21.134 19.641 20.225 19.973 19.062 L 22.103 11.592 L 15.455 4.936 L 7.974 7.073 Z" fill="rgb(75,85,101)"></path><path d="M 13.118 13.914 C 13.313 14.11 13.313 14.426 13.118 14.621 L 1.141 26.601 C 0.946 26.797 0.629 26.797 0.433 26.602 C 0.238 26.407 0.238 26.09 0.433 25.894 L 12.411 13.914 C 12.606 13.719 12.923 13.719 13.118 13.914 Z M 19.822 0.146 C 20.017 0.342 20.017 0.658 19.822 0.853 L 16.301 4.375 L 22.665 10.74 L 26.22 7.203 C 26.416 7.014 26.728 7.018 26.921 7.211 C 27.113 7.405 27.115 7.717 26.925 7.912 L 23.016 11.801 C 22.82 11.996 22.505 11.995 22.31 11.8 L 15.24 4.728 C 15.045 4.533 15.045 4.217 15.24 4.021 L 19.115 0.146 C 19.31 -0.049 19.627 -0.049 19.822 0.146 Z" fill="rgb(75,85,101)"></path></g><path d="M 1.584 1 C 17.584 7 11.584 18 5.584 32 C -0.416 46 8.584 47 11.584 47 C 13.763 47.104 15.903 46.39 17.584 45" fill="transparent" stroke="rgb(75,85,101)" stroke-linecap="round" stroke-linejoin="round" stroke-dasharray=""></path></svg>