<svg xmlns="http://www.w3.org/2000/svg" xmlns:xlink="http://www.w3.org/1999/xlink" viewBox="0 0 48 50"><path d="M 39 41 L 39 45 C 38.993 47.206 37.206 48.993 35 49 L 17 49 C 14.794 48.993 13.007 47.206 13 45 L 13 41 Z M 39 7 L 39 41 L 13 41 L 13 7 C 13.007 4.794 14.794 3.007 17 3 L 35 3 C 37.206 3.007 38.993 4.794 39 7 Z" fill="rgb(75,85,101)"></path><path d="M 39 18.716 L 39 7 C 38.993 4.794 37.206 3.007 35 3 L 17 3 C 14.794 3.007 13.007 4.794 13 7 L 13 41.716 Z M 39 41 L 13 41 Z" fill="rgb(75,85,101)"></path><path d="M 39 41 L 13 41" fill="transparent" stroke="rgb(75,85,101)" stroke-linecap="round" stroke-linejoin="round" stroke-dasharray=""></path><path d="M 26 44.5 C 26.276 44.5 26.5 44.724 26.5 45 C 26.5 45.276 26.276 45.5 26 45.5 C 25.724 45.5 25.5 45.276 25.5 45 C 25.5 44.724 25.724 44.5 26 44.5 Z" fill="rgb(75,85,101)" stroke="rgb(75,85,101)" stroke-linecap="round" stroke-linejoin="round" stroke-dasharray=""></path><path d="M 17 3 L 35 3 C 35 3 39 3 39 7 L 39 45 C 39 45 39 49 35 49 L 17 49 C 17 49 13 49 13 45 L 13 7 C 13 7 13 3 17 3 Z" fill="rgb(75,85,101)" stroke="rgb(75,85,101)" stroke-linecap="round" stroke-linejoin="round" stroke-dasharray=""></path><path d="M 37 39 L 37 43 C 36.993 45.206 35.206 46.993 33 47 L 15 47 C 12.794 46.993 11.007 45.206 11 43 L 11 39 Z" fill="rgb(224,234,255)"></path><path d="M 37 5 L 37 39 L 11 39 L 11 5 C 11.007 2.794 12.794 1.007 15 1 L 33 1 C 35.206 1.007 36.993 2.794 37 5 Z" fill="rgb(83,177,253)"></path><path d="M 37 16.716 L 37 5 C 36.993 2.794 35.206 1.007 33 1 L 15 1 C 12.794 1.007 11.007 2.794 11 5 L 11 39.716 Z" fill="rgb(255,255,255)"></path><path d="M 37 39 L 11 39 M 24 42.5 C 24.276 42.5 24.5 42.724 24.5 43 C 24.5 43.276 24.276 43.5 24 43.5 C 23.724 43.5 23.5 43.276 23.5 43 C 23.5 42.724 23.724 42.5 24 42.5 Z" fill="transparent" stroke="rgb(75,85,101)" stroke-linecap="round" stroke-linejoin="round" stroke-dasharray=""></path><path d="M 15 1 L 33 1 C 33 1 37 1 37 5 L 37 43 C 37 43 37 47 33 47 L 15 47 C 15 47 11 47 11 43 L 11 5 C 11 5 11 1 15 1 Z" fill="transparent" stroke="rgb(75,85,101)" stroke-linecap="round" stroke-linejoin="round" stroke-dasharray=""></path></svg>