<svg xmlns="http://www.w3.org/2000/svg" xmlns:xlink="http://www.w3.org/1999/xlink" viewBox="0 0 50 49"><path d="M 37 13 L 4 13 C 3.448 13 3 12.552 3 12 L 3 5 C 3 3.895 3.895 3 5 3 L 37 3 Z" fill="rgb(75,85,101)"></path><path d="M 25 3 L 5 3 C 3.895 3 3 3.895 3 5 L 3 12 C 3 12.552 3.448 13 4 13 L 15 13 Z M 37 13 L 37 3 L 47 3 C 48.105 3 49 3.895 49 5 L 49 12 C 49 12.552 48.552 13 48 13 Z" fill="rgb(75,85,101)"></path><path d="M 5 3 L 47 3 C 48.105 3 49 3.895 49 5 L 49 12 C 49 12.552 48.552 13 48 13 L 4 13 C 3.448 13 3 12.552 3 12 L 3 5 C 3 3.895 3.895 3 5 3 Z" fill="rgb(75,85,101)" stroke="rgb(75,85,101)" stroke-linecap="round" stroke-linejoin="round" stroke-dasharray=""></path><path d="M 37 3 L 37 13 Z" fill="rgb(75,85,101)"></path><path d="M 37 3 L 37 13" fill="transparent" stroke="rgb(75,85,101)" stroke-linecap="round" stroke-linejoin="round" stroke-dasharray=""></path><path d="M 41 7 L 43 9 L 45 7" fill="rgb(75,85,101)"></path><path d="M 41 7 L 43 9 L 45 7" fill="transparent" stroke="rgb(75,85,101)" stroke-linecap="round" stroke-linejoin="round" stroke-dasharray=""></path><path d="M 4 18 L 48 18 C 48.552 18 49 18.448 49 19 L 49 46 C 49 47.105 48.105 48 47 48 L 5 48 C 3.895 48 3 47.105 3 46 L 3 19 C 3 18.448 3.448 18 4 18 Z" fill="rgb(75,85,101)"></path><path d="M 48 18 L 4 18 C 3.448 18 3 18.448 3 19 L 3 24 C 3 23.448 3.448 23 4 23 L 48 23 C 48.552 23 49 23.448 49 24 L 49 19 C 49 18.448 48.552 18 48 18 Z M 48 28 L 4 28 C 3.448 28 3 28.448 3 29 L 3 34 C 3 33.448 3.448 33 4 33 L 48 33 C 48.552 33 49 33.448 49 34 L 49 29 C 49 28.448 48.552 28 48 28 Z M 48 38 L 4 38 C 3.448 38 3 38.448 3 39 L 3 44 C 3 43.448 3.448 43 4 43 L 48 43 C 48.552 43 49 43.448 49 44 L 49 39 C 49 38.448 48.552 38 48 38 Z" fill="rgb(75,85,101)"></path><path d="M 48 33 L 4 33 C 3.448 33 3 33.448 3 34 L 3 39 C 3 38.448 3.448 38 4 38 L 48 38 C 48.552 38 49 38.448 49 39 L 49 34 C 49 33.448 48.552 33 48 33 Z" fill="rgb(75,85,101)"></path><path d="M 4 18 L 48 18 C 48.552 18 49 18.448 49 19 L 49 46 C 49 47.105 48.105 48 47 48 L 5 48 C 3.895 48 3 47.105 3 46 L 3 19 C 3 18.448 3.448 18 4 18 Z" fill="rgb(75,85,101)" stroke="rgb(75,85,101)" stroke-linecap="round" stroke-linejoin="round" stroke-dasharray=""></path><path d="M 3 28 L 49 28 Z" fill="rgb(75,85,101)"></path><path d="M 3 28 L 49 28" fill="transparent" stroke="rgb(75,85,101)" stroke-linecap="round" stroke-linejoin="round" stroke-dasharray=""></path><path d="M 3 38 L 49 38 Z" fill="rgb(75,85,101)"></path><path d="M 3 38 L 49 38" fill="transparent" stroke="rgb(75,85,101)" stroke-linecap="round" stroke-linejoin="round" stroke-dasharray=""></path><path d="M 43 22.5 C 43.276 22.5 43.5 22.724 43.5 23 C 43.5 23.276 43.276 23.5 43 23.5 C 42.724 23.5 42.5 23.276 42.5 23 C 42.5 22.724 42.724 22.5 43 22.5 Z M 43 32.5 C 43.276 32.5 43.5 32.724 43.5 33 C 43.5 33.276 43.276 33.5 43 33.5 C 42.724 33.5 42.5 33.276 42.5 33 C 42.5 32.724 42.724 32.5 43 32.5 Z M 43 42.5 C 43.276 42.5 43.5 42.724 43.5 43 C 43.5 43.276 43.276 43.5 43 43.5 C 42.724 43.5 42.5 43.276 42.5 43 C 42.5 42.724 42.724 42.5 43 42.5 Z" fill="rgb(75,85,101)" stroke="rgb(75,85,101)" stroke-linecap="round" stroke-linejoin="round" stroke-dasharray=""></path><path d="M 35 11 L 2 11 C 1.448 11 1 10.552 1 10 L 1 3 C 1 1.895 1.895 1 3 1 L 35 1 Z" fill="rgb(83,177,253)"></path><path d="M 23 1 L 3 1 C 1.895 1 1 1.895 1 3 L 1 10 C 1 10.552 1.448 11 2 11 L 13 11 Z" fill="rgb(83,177,253)"></path><path d="M 35 11 L 35 1 L 45 1 C 46.105 1 47 1.895 47 3 L 47 10 C 47 10.552 46.552 11 46 11 Z" fill="rgb(255,255,255)"></path><path d="M 3 1 L 45 1 C 46.105 1 47 1.895 47 3 L 47 10 C 47 10.552 46.552 11 46 11 L 2 11 C 1.448 11 1 10.552 1 10 L 1 3 C 1 1.895 1.895 1 3 1 Z M 35 1 L 35 11" fill="transparent" stroke="rgb(75,85,101)" stroke-linecap="round" stroke-linejoin="round" stroke-dasharray=""></path><path d="M 39 5 L 41 7 L 43 5" fill="transparent" stroke="rgb(75,85,101)" stroke-linecap="round" stroke-linejoin="round" stroke-dasharray=""></path><path d="M 2 16 L 46 16 C 46.552 16 47 16.448 47 17 L 47 44 C 47 45.105 46.105 46 45 46 L 3 46 C 1.895 46 1 45.105 1 44 L 1 17 C 1 16.448 1.448 16 2 16 Z" fill="rgb(255,255,255)"></path><path d="M 46 16 L 2 16 C 1.448 16 1 16.448 1 17 L 1 22 C 1 21.448 1.448 21 2 21 L 46 21 C 46.552 21 47 21.448 47 22 L 47 17 C 47 16.448 46.552 16 46 16 Z" fill="rgb(255,255,255)"></path><path d="M 46 26 L 2 26 C 1.448 26 1 26.448 1 27 L 1 32 C 1 31.448 1.448 31 2 31 L 46 31 C 46.552 31 47 31.448 47 32 L 47 27 C 47 26.448 46.552 26 46 26 Z" fill="rgb(224,234,255)"></path><path d="M 46 36 L 2 36 C 1.448 36 1 36.448 1 37 L 1 42 C 1 41.448 1.448 41 2 41 L 46 41 C 46.552 41 47 41.448 47 42 L 47 37 C 47 36.448 46.552 36 46 36 Z" fill="rgb(255,255,255)"></path><path d="M 46 31 L 2 31 C 1.448 31 1 31.448 1 32 L 1 37 C 1 36.448 1.448 36 2 36 L 46 36 C 46.552 36 47 36.448 47 37 L 47 32 C 47 31.448 46.552 31 46 31 Z" fill="rgb(224,234,255)"></path><path d="M 2 16 L 46 16 C 46.552 16 47 16.448 47 17 L 47 44 C 47 45.105 46.105 46 45 46 L 3 46 C 1.895 46 1 45.105 1 44 L 1 17 C 1 16.448 1.448 16 2 16 Z M 1 26 L 47 26 M 1 36 L 47 36" fill="transparent" stroke="rgb(75,85,101)" stroke-linecap="round" stroke-linejoin="round" stroke-dasharray=""></path><path d="M 41 20.5 C 41.276 20.5 41.5 20.724 41.5 21 C 41.5 21.276 41.276 21.5 41 21.5 C 40.724 21.5 40.5 21.276 40.5 21 C 40.5 20.724 40.724 20.5 41 20.5 Z M 41 30.5 C 41.276 30.5 41.5 30.724 41.5 31 C 41.5 31.276 41.276 31.5 41 31.5 C 40.724 31.5 40.5 31.276 40.5 31 C 40.5 30.724 40.724 30.5 41 30.5 Z M 41 40.5 C 41.276 40.5 41.5 40.724 41.5 41 C 41.5 41.276 41.276 41.5 41 41.5 C 40.724 41.5 40.5 41.276 40.5 41 C 40.5 40.724 40.724 40.5 41 40.5 Z" fill="transparent" stroke="rgb(75,85,101)" stroke-linecap="round" stroke-linejoin="round" stroke-dasharray=""></path></svg>