<svg xmlns="http://www.w3.org/2000/svg" xmlns:xlink="http://www.w3.org/1999/xlink" viewBox="0 0 52 48"><path d="M 50.183 11 C 50.357 11 50.519 11.091 50.61 11.239 C 50.7 11.388 50.707 11.573 50.628 11.728 L 35.823 40.669 C 35.738 40.836 35.566 40.942 35.378 40.942 L 22.118 40.942 C 21.943 40.942 21.781 40.851 21.691 40.702 C 21.6 40.553 21.594 40.367 21.674 40.212 L 27.606 28.729 C 27.628 28.687 27.626 28.637 27.601 28.597 C 27.577 28.557 27.533 28.532 27.486 28.532 C 27.444 28.532 27.405 28.552 27.379 28.585 C 22.178 35.308 14.47 39.77 3.547 40.888 C 3.407 40.902 3.268 40.857 3.164 40.763 C 3.06 40.669 3 40.535 3 40.395 L 3 29.176 C 3 28.911 3.205 28.69 3.468 28.662 C 5.004 28.494 10 27.729 13.575 24.638 C 13.908 24.351 13.693 23.834 13.254 23.834 L 3.5 23.834 C 3.224 23.834 3 23.61 3 23.334 L 3 11.5 C 3 11.224 3.224 11 3.5 11 L 15.334 11 C 15.61 11 15.834 11.224 15.834 11.5 L 15.834 21.378 C 15.834 21.46 15.891 21.532 15.971 21.551 C 16.051 21.57 16.134 21.532 16.171 21.458 L 21.229 11.278 C 21.313 11.108 21.487 11 21.677 11 L 30.573 11 C 30.849 11 31.073 11.224 31.073 11.5 L 31.073 21.31 C 31.075 21.391 31.131 21.462 31.211 21.481 C 31.29 21.5 31.372 21.464 31.411 21.392 L 36.662 11.27 C 36.748 11.104 36.919 11 37.106 11 Z" fill="rgb(75,85,101)" stroke="rgb(75,85,101)" stroke-miterlimit="10" stroke-dasharray=""></path><path d="M 49 9 L 33.684 38.941 L 19.298 38.941 L 25.708 26.532 L 25.42 26.532 C 20.132 33.397 12.242 37.916 1 38.942 L 1 26.703 C 1 26.703 8.192 26.278 12.42 21.833 L 1 21.833 L 1 9 L 13.834 9 L 13.834 19.556 L 14.122 19.555 L 19.367 9 L 29.073 9 L 29.073 19.49 L 29.361 19.489 L 34.802 9 Z" fill="rgb(255,255,255)" stroke="rgb(75,85,101)" stroke-miterlimit="10" stroke-dasharray=""></path><path d="M 1.502 38.404 C 12.744 37.378 20.562 32.207 25.177 26.014 L 28.585 19.944 L 28.585 9.455 L 19.655 9.495 C 16.825 15.167 14.358 20.699 13.075 21.868 C 8.885 26.603 1.502 27.159 1.502 27.159 Z" fill="rgb(255,255,255)"></path><path d="M 1.502 38.404 C 12.744 37.378 20.562 32.207 25.177 26.014 C 11.028 33.027 6.2 29.97 1.502 27.156 L 1.502 38.405 Z" fill="rgb(224,234,255)"></path><path d="M 42.793 19.99 C 36.977 26.216 31.694 33.204 23 32.82 L 20.117 38.446 L 33.377 38.425 L 42.793 19.991 Z" fill="rgb(83,177,253)"></path></svg>