<svg xmlns="http://www.w3.org/2000/svg" xmlns:xlink="http://www.w3.org/1999/xlink" viewBox="0 0 50 48"><path d="M 29 16 L 29 24 C 29 25.105 29.895 26 31 26 L 48 26 C 48.552 26 49 26.448 49 27 L 49 42 C 49 44.209 47.209 46 45 46 L 7 46 C 4.791 46 3 44.209 3 42 L 3 16 Z" fill="rgb(75,85,101)"></path><path d="M 7 46 L 21 46 L 41 26 C 40.47 26 29.96 25.79 29.586 25.414 C 29.211 25.039 29 24.53 29 24 L 29 16 L 3 16 L 3 42 C 3 44.209 4.791 46 7 46 Z M 29 16 L 3 16 L 3 10 C 3 7.791 4.791 6 7 6 L 28 6 C 28.552 6 29 6.448 29 7 Z" fill="rgb(75,85,101)"></path><path d="M 48 26 C 48.552 26 49 26.448 49 27 L 49 42 C 49 44.209 47.209 46 45 46 L 7 46 C 4.791 46 3 44.209 3 42 L 3 10 C 3 7.791 4.791 6 7 6 L 28 6 C 28.552 6 29 6.448 29 7 L 29 24 C 29 25.105 29.895 26 31 26 Z" fill="rgb(75,85,101)" stroke="rgb(75,85,101)" stroke-linecap="round" stroke-linejoin="round" stroke-dasharray=""></path><path d="M 3 16 L 29 16 Z" fill="rgb(75,85,101)"></path><path d="M 3 16 L 29 16" fill="transparent" stroke="rgb(75,85,101)" stroke-linecap="round" stroke-linejoin="round" stroke-dasharray=""></path><path d="M 10 10.5 C 10.276 10.5 10.5 10.724 10.5 11 C 10.5 11.276 10.276 11.5 10 11.5 C 9.724 11.5 9.5 11.276 9.5 11 C 9.5 10.724 9.724 10.5 10 10.5 Z M 16 10.5 C 16.276 10.5 16.5 10.724 16.5 11 C 16.5 11.276 16.276 11.5 16 11.5 C 15.724 11.5 15.5 11.276 15.5 11 C 15.5 10.724 15.724 10.5 16 10.5 Z M 22 10.5 C 22.276 10.5 22.5 10.724 22.5 11 C 22.5 11.276 22.276 11.5 22 11.5 C 21.724 11.5 21.5 11.276 21.5 11 C 21.5 10.724 21.724 10.5 22 10.5 Z" fill="rgb(75,85,101)" stroke="rgb(75,85,101)" stroke-linecap="round" stroke-linejoin="round" stroke-dasharray=""></path><path d="M 27 14 L 27 22 C 27 23.105 27.895 24 29 24 L 46 24 C 46.552 24 47 24.448 47 25 L 47 40 C 47 42.209 45.209 44 43 44 L 5 44 C 2.791 44 1 42.209 1 40 L 1 14 Z" fill="rgb(224,234,255)"></path><path d="M 5 44 L 19 44 L 39 24 C 38.47 24 27.96 23.79 27.586 23.414 C 27.211 23.039 27 22.53 27 22 L 27 14 L 1 14 L 1 40 C 1 42.209 2.791 44 5 44 Z" fill="rgb(255,255,255)"></path><path d="M 27 14 L 1 14 L 1 8 C 1 5.791 2.791 4 5 4 L 26 4 C 26.552 4 27 4.448 27 5 Z" fill="rgb(83,177,253)"></path><path d="M 46 24 C 46.552 24 47 24.448 47 25 L 47 40 C 47 42.209 45.209 44 43 44 L 5 44 C 2.791 44 1 42.209 1 40 L 1 8 C 1 5.791 2.791 4 5 4 L 26 4 C 26.552 4 27 4.448 27 5 L 27 22 C 27 23.105 27.895 24 29 24 Z M 1 14 L 27 14" fill="transparent" stroke="rgb(75,85,101)" stroke-linecap="round" stroke-linejoin="round" stroke-dasharray=""></path><path d="M 8 8.5 C 8.276 8.5 8.5 8.724 8.5 9 C 8.5 9.276 8.276 9.5 8 9.5 C 7.724 9.5 7.5 9.276 7.5 9 C 7.5 8.724 7.724 8.5 8 8.5 Z M 14 8.5 C 14.276 8.5 14.5 8.724 14.5 9 C 14.5 9.276 14.276 9.5 14 9.5 C 13.724 9.5 13.5 9.276 13.5 9 C 13.5 8.724 13.724 8.5 14 8.5 Z M 20 8.5 C 20.276 8.5 20.5 8.724 20.5 9 C 20.5 9.276 20.276 9.5 20 9.5 C 19.724 9.5 19.5 9.276 19.5 9 C 19.5 8.724 19.724 8.5 20 8.5 Z M 27 16 L 47 16 M 27 8 L 47 8 M 43 4 L 43 24 M 35 4 L 35 24" fill="transparent" stroke="rgb(75,85,101)" stroke-linecap="round" stroke-linejoin="round" stroke-dasharray=""></path></svg>