<svg xmlns="http://www.w3.org/2000/svg" xmlns:xlink="http://www.w3.org/1999/xlink" viewBox="0 0 131.833 28"><g id="ss11344618607_1"><path d="M 0 0 L 131.133 0 L 131.133 28 L 0 28 Z" fill="transparent"></path><path d="M 14 0 C 6.268 0 0 6.268 0 14 C 0 21.73 6.268 27.999 14 27.999 C 21.731 27.999 28 21.73 28 13.999 C 28 6.269 21.731 0 14 0 Z M 15.75 22.75 C 9.951 22.75 5.25 18.049 5.25 12.25 C 5.25 6.451 9.951 1.75 15.75 1.75 C 21.549 1.75 26.25 6.451 26.25 12.25 C 26.25 18.049 21.549 22.75 15.75 22.75 Z M 39.334 5.6 L 43.476 5.6 L 50.17 24.092 L 46.601 24.092 L 45.065 19.717 L 37.746 19.717 L 36.236 24.092 L 32.667 24.092 Z M 44.076 16.8 L 41.419 9.038 L 38.763 16.799 L 44.076 16.799 Z M 59.078 10.289 L 59.078 12.867 L 57.749 12.867 C 57.037 12.867 56.447 12.992 55.978 13.244 C 55.509 13.496 55.161 13.874 54.936 14.377 C 54.71 14.881 54.598 15.497 54.598 16.226 L 54.598 24.092 L 51.263 24.092 L 51.263 10.288 L 54.389 10.288 L 54.48 13.005 C 54.692 12.243 54.995 11.644 55.392 11.212 C 55.957 10.596 56.75 10.286 57.776 10.286 L 59.078 10.286 Z M 65.524 12.841 L 65.524 19.873 C 65.524 20.393 65.658 20.798 65.927 21.084 C 66.197 21.371 66.583 21.513 67.086 21.513 L 69.144 21.513 L 69.144 24.092 L 66.54 24.092 C 65.115 24.092 64.035 23.736 63.296 23.024 C 62.558 22.312 62.189 21.262 62.189 19.874 L 62.189 12.841 L 60.002 12.841 L 60.002 10.289 L 62.189 10.289 L 62.189 7.162 L 65.524 7.162 L 65.524 10.289 L 69.171 10.289 L 69.171 12.841 Z M 73.203 10.289 L 76.875 20.602 L 80.444 10.289 L 83.673 10.289 L 78.204 25.55 C 77.891 26.383 77.445 27 76.862 27.399 C 76.28 27.798 75.53 27.999 74.61 27.999 L 72.37 27.999 L 72.37 25.472 L 74.037 25.472 C 74.436 25.472 74.748 25.398 74.975 25.25 C 75.2 25.102 75.383 24.865 75.522 24.534 L 75.913 23.519 L 74.949 23.519 L 69.949 10.288 L 73.205 10.288 L 73.203 10.288 Z M 127.867 10.733 L 127.017 10.733 L 127.017 13.088 L 126.504 13.088 L 126.504 10.733 L 125.651 10.733 L 125.651 10.288 L 127.868 10.288 L 127.868 10.733 Z M 128.889 10.288 L 129.663 12.456 L 130.434 10.286 L 131.133 10.286 L 131.133 13.086 L 130.615 13.086 L 130.615 11.161 L 129.908 13.082 L 129.415 13.082 L 128.711 11.163 L 128.711 13.088 L 128.198 13.088 L 128.198 10.288 L 128.89 10.288 Z M 115.141 10.288 L 115.297 14.169 L 114.881 13.96 C 115.072 12.588 115.567 11.582 116.366 10.939 C 117.181 10.297 118.189 9.975 119.387 9.975 C 120.881 9.975 122.045 10.453 122.878 11.408 C 123.712 12.346 124.129 13.613 124.129 15.211 L 124.129 24.092 L 120.768 24.092 L 120.768 16.279 C 120.768 15.063 120.586 14.16 120.22 13.57 C 119.856 12.979 119.239 12.684 118.371 12.684 C 117.451 12.684 116.73 12.997 116.209 13.622 C 115.705 14.229 115.453 15.115 115.453 16.279 L 115.453 24.092 L 112.119 24.092 L 112.119 10.288 Z M 97.307 14.509 C 97.584 13.068 98.252 11.956 99.309 11.175 C 100.382 10.376 101.771 9.977 103.469 9.977 C 105.445 9.977 106.945 10.48 107.967 11.487 C 109.008 12.495 109.527 13.97 109.527 15.914 L 109.527 20.655 C 109.527 21.036 109.597 21.306 109.736 21.461 C 109.891 21.601 110.109 21.671 110.385 21.671 L 110.931 21.671 L 110.931 24.092 L 110.151 24.117 L 109.865 24.117 C 109.068 24.152 108.357 24.031 107.734 23.753 C 107.109 23.458 106.745 22.867 106.642 21.982 C 106.294 22.711 105.722 23.301 104.925 23.753 C 104.145 24.187 103.182 24.404 102.039 24.404 C 100.617 24.404 99.43 24.048 98.477 23.337 C 97.54 22.625 97.073 21.67 97.073 20.471 C 97.073 19.603 97.271 18.901 97.671 18.362 C 98.086 17.824 98.667 17.408 99.413 17.113 C 100.158 16.8 101.128 16.522 102.325 16.28 L 106.173 15.524 C 106.173 14.448 105.947 13.657 105.497 13.154 C 105.047 12.634 104.37 12.372 103.469 12.372 C 102.723 12.372 102.116 12.572 101.649 12.972 C 101.18 13.354 100.868 13.926 100.713 14.691 L 97.306 14.509 Z M 100.531 20.368 C 100.531 20.872 100.738 21.279 101.155 21.593 C 101.571 21.904 102.17 22.059 102.949 22.059 C 103.591 22.059 104.153 21.904 104.638 21.593 C 105.141 21.279 105.532 20.819 105.809 20.211 C 106.104 19.586 106.252 18.839 106.252 17.971 L 106.252 17.789 L 103.625 18.258 C 103.503 18.276 103.374 18.293 103.235 18.311 C 102.723 18.402 102.219 18.533 101.726 18.701 C 101.38 18.81 101.073 19.019 100.843 19.3 C 100.634 19.56 100.531 19.916 100.531 20.368 Z M 92.554 14.716 C 92.451 14.068 92.095 13.487 91.565 13.101 C 91.046 12.691 90.402 12.47 89.741 12.476 C 89.082 12.476 88.525 12.641 88.074 12.971 C 87.64 13.301 87.432 13.735 87.45 14.273 C 87.467 14.795 87.727 15.194 88.231 15.471 C 88.734 15.749 89.403 15.966 90.236 16.122 C 91.573 16.349 92.659 16.626 93.492 16.956 C 94.344 17.285 94.985 17.729 95.419 18.284 C 95.871 18.839 96.096 19.544 96.096 20.393 C 96.096 21.28 95.836 22.027 95.314 22.633 C 94.794 23.225 94.092 23.667 93.205 23.962 C 92.319 24.257 91.322 24.406 90.21 24.406 C 88.959 24.406 87.849 24.222 86.877 23.857 C 85.92 23.476 85.157 22.929 84.584 22.217 C 84.029 21.505 83.716 20.672 83.646 19.717 L 87.059 19.535 C 87.145 20.02 87.319 20.438 87.579 20.784 C 87.841 21.132 88.187 21.401 88.621 21.592 C 89.055 21.783 89.559 21.879 90.132 21.879 C 90.809 21.879 91.4 21.748 91.903 21.488 C 92.407 21.228 92.65 20.837 92.632 20.315 C 92.632 19.951 92.519 19.656 92.294 19.43 C 92.073 19.196 91.795 19.026 91.486 18.935 C 91.07 18.784 90.644 18.662 90.21 18.571 C 90.038 18.529 89.865 18.494 89.69 18.466 C 88.404 18.206 87.362 17.92 86.563 17.607 C 85.765 17.295 85.132 16.878 84.661 16.357 C 84.211 15.819 83.985 15.141 83.985 14.326 C 83.985 13.423 84.219 12.65 84.688 12.007 C 85.175 11.347 85.861 10.844 86.746 10.497 C 87.649 10.149 88.709 9.976 89.924 9.976 C 91.555 9.976 92.902 10.385 93.961 11.2 C 95.038 12.017 95.697 13.137 95.941 14.56 Z" fill="rgb(0,0,0)"></path></g></svg>