<svg xmlns="http://www.w3.org/2000/svg" width="80" height="80" fill="none"><path fill="#fff" d="M40 17.592a28.215 28.215 0 1 0 0 56.43 28.215 28.215 0 0 0 0-56.43zm0 35.64a7.425 7.425 0 1 1 0-14.85 7.425 7.425 0 0 1 0 14.85z"/><path fill="#E0EAFF" d="M45.25 40.555a7.427 7.427 0 0 1-2.395 12.136 7.426 7.426 0 0 1-8.107-1.637L20.047 65.755a28.216 28.216 0 1 0 39.905-39.901L45.25 40.555z"/><path fill="#2E90FA" d="M66.73 8.682a9.462 9.462 0 0 1 7.426 8.91v5.94a5.985 5.985 0 0 1-5.94 5.94h-8.91a5.987 5.987 0 0 1-5.94-5.94v-4.455a136.717 136.717 0 0 0-26.73 0v4.455a5.987 5.987 0 0 1-5.94 5.94h-8.91a5.984 5.984 0 0 1-5.94-5.94v-5.94a9.463 9.463 0 0 1 7.425-8.91 133.588 133.588 0 0 1 53.46 0z"/><path fill="#E0EAFF" d="M66.73 8.682a133.588 133.588 0 0 0-53.46 0 9.462 9.462 0 0 0-7.424 8.91v4.94a9.463 9.463 0 0 1 7.425-8.91 133.59 133.59 0 0 1 53.46 0 9.463 9.463 0 0 1 7.425 8.91v-4.94a9.462 9.462 0 0 0-7.425-8.91z"/><path fill="#202939" fill-rule="evenodd" d="M13.354 9.073A9.062 9.062 0 0 0 6.246 17.6v5.932a5.585 5.585 0 0 0 5.541 5.541h8.907a5.587 5.587 0 0 0 5.542-5.541v-4.454a.4.4 0 0 1 .36-.398 137.11 137.11 0 0 1 26.809 0 .4.4 0 0 1 .36.398v4.453a5.588 5.588 0 0 0 5.542 5.542h8.907a5.584 5.584 0 0 0 5.542-5.54V17.6a9.062 9.062 0 0 0-7.108-8.526 133.187 133.187 0 0 0-53.294 0zm-.163-.783a133.987 133.987 0 0 1 53.62 0l.006.001a9.862 9.862 0 0 1 7.739 9.287v5.957a6.385 6.385 0 0 1-6.337 6.337h-8.916a6.387 6.387 0 0 1-6.337-6.337V19.44a136.322 136.322 0 0 0-25.93 0v4.095a6.388 6.388 0 0 1-6.337 6.337h-8.916a6.385 6.385 0 0 1-6.337-6.337v-5.957a9.863 9.863 0 0 1 7.739-9.287h.006zm.719 26.758a.4.4 0 0 1 .224.52 27.815 27.815 0 1 0 51.736 0 .4.4 0 1 1 .744-.295 28.616 28.616 0 1 1-53.224 0 .4.4 0 0 1 .52-.225z" clip-rule="evenodd"/><path fill="#202939" fill-rule="evenodd" d="M34.466 40.273A7.825 7.825 0 1 1 45.532 51.34a7.825 7.825 0 0 1-11.066-11.067zM40 38.78a7.025 7.025 0 1 0 0 14.05 7.025 7.025 0 0 0 0-14.05zm10.854 19.367a.4.4 0 0 1 .566 0l9.652 9.652a.4.4 0 0 1-.566.566l-9.652-9.652a.4.4 0 0 1 0-.566zM40 27.644a.343.343 0 1 0 0 .685.343.343 0 0 0 0-.685zm-.808-.465a1.143 1.143 0 1 1 1.616 1.616 1.143 1.143 0 0 1-1.616-1.616zm14.173 6.405a.342.342 0 1 0 0 .685.342.342 0 0 0 0-.685zm-.807-.466a1.142 1.142 0 1 1 1.615 1.616 1.142 1.142 0 0 1-1.615-1.616zm5.262 12.347a.342.342 0 1 0 0 .684.342.342 0 0 0 0-.684zm-.807-.466a1.142 1.142 0 1 1 1.615 1.615A1.142 1.142 0 0 1 57.013 45zM40 63.27a.343.343 0 1 0 0 .684.343.343 0 0 0 0-.685zm-.808-.466a1.143 1.143 0 1 1 1.616 1.616 1.143 1.143 0 0 1-1.616-1.616zM26.635 57.33a.342.342 0 1 0 0 .685.342.342 0 0 0 0-.685zm-.808-.466a1.143 1.143 0 1 1 1.616 1.617 1.143 1.143 0 0 1-1.616-1.617zM22.18 45.465a.342.342 0 1 0 0 .684.342.342 0 0 0 0-.684zm-.808-.466a1.142 1.142 0 1 1 1.616 1.616 1.142 1.142 0 0 1-1.616-1.616zm5.263-11.415a.342.342 0 1 0 0 .685.342.342 0 0 0 0-.685zm-.808-.466a1.143 1.143 0 1 1 1.616 1.617 1.143 1.143 0 0 1-1.616-1.617z" clip-rule="evenodd"/></svg>