<svg xmlns="http://www.w3.org/2000/svg" width="80" height="80" fill="none"><path fill="#E0EAFF" d="M72.37 77.94a8.035 8.035 0 0 0-8.24-8.24h-1.648c.033-.247 0-1.395 0-1.648 0-3.129-3.458-4.945-6.593-4.945l-28.018-.033c-3.128 0-6.593 1.81-6.593 4.945 0 .253-.033 1.4 0 1.648H19.63a8.04 8.04 0 0 0-8.24 8.24l60.98.034z"/><path fill="#2E90FA" d="m32.598 38.352-2.809 1.453a6.593 6.593 0 0 0-3.566 5.855v9.39a1.647 1.647 0 0 0 2.56 1.372l7.328-4.885"/><path fill="#202939" fill-rule="evenodd" d="M32.953 38.168a.4.4 0 0 1-.171.539l-2.809 1.454a6.195 6.195 0 0 0-3.35 5.499v9.39a1.248 1.248 0 0 0 1.94 1.039l7.327-4.885a.4.4 0 1 1 .443.666l-7.327 4.885a2.05 2.05 0 0 1-3.183-1.704V45.66a6.992 6.992 0 0 1 3.782-6.21l2.809-1.454a.4.4 0 0 1 .539.172z" clip-rule="evenodd"/><path fill="#2E90FA" d="m52.817 38.352 2.809 1.453a6.593 6.593 0 0 1 3.56 5.855v9.39a1.649 1.649 0 0 1-2.562 1.372l-7.327-4.885"/><path fill="#202939" fill-rule="evenodd" d="M52.462 38.168a.4.4 0 0 1 .54-.172l2.808 1.454a6.992 6.992 0 0 1 3.776 6.21v9.39a2.049 2.049 0 0 1-3.183 1.705l-7.328-4.885a.4.4 0 1 1 .444-.666l7.327 4.885a1.247 1.247 0 0 0 1.94-1.038V45.66a6.193 6.193 0 0 0-3.344-5.5l-2.809-1.453a.4.4 0 0 1-.17-.54z" clip-rule="evenodd"/><path fill="#2E90FA" d="M49.297 64.722c0 4.615-6.593 8.24-6.593 8.24s-6.593-3.625-6.593-8.24 4.503-4.945 6.593-4.945 6.593.33 6.593 4.945z"/><path fill="#202939" fill-rule="evenodd" d="M37.18 62.225c-.405.605-.669 1.411-.669 2.497 0 2.125 1.53 4.083 3.164 5.553a19.708 19.708 0 0 0 3.029 2.226l.077-.046a19.7 19.7 0 0 0 2.951-2.18c1.634-1.47 3.165-3.428 3.165-5.553 0-1.086-.264-1.892-.67-2.497-.405-.607-.971-1.039-1.615-1.345-1.3-.618-2.872-.703-3.908-.703s-2.607.085-3.908.703c-.644.306-1.21.738-1.616 1.345zm5.524 10.738-.193.35-.002-.001-.004-.002-.016-.01a8.391 8.391 0 0 1-.274-.16 20.52 20.52 0 0 1-3.075-2.27c-1.663-1.496-3.429-3.659-3.429-6.148 0-1.222.3-2.187.804-2.942.504-.752 1.194-1.269 1.937-1.622 1.473-.7 3.198-.78 4.252-.78 1.054 0 2.779.08 4.252.78.743.353 1.433.87 1.937 1.622.505.755.803 1.72.803 2.942 0 2.49-1.766 4.652-3.428 6.148a20.511 20.511 0 0 1-3.291 2.398l-.058.033-.016.009-.004.002h-.002l-.193-.35zm0 0 .193.35a.402.402 0 0 1-.386 0l.193-.35zm-.001-67.974a.4.4 0 0 1 .4.4v3.296a.4.4 0 0 1-.8 0V5.39a.4.4 0 0 1 .4-.4z" clip-rule="evenodd"/><path fill="#E0EAFF" d="m52.592 16.926-9.89-8.24-9.888 8.24a9.827 9.827 0 0 0-3.296 9.89l6.592 24.721h13.185l6.593-24.722a9.826 9.826 0 0 0-3.296-9.889z"/><path fill="#fff" d="M30.782 31.535a9.677 9.677 0 0 1 2.034-2.34 15.44 15.44 0 0 1 19.777 0 9.681 9.681 0 0 1 2.037 2.34l1.26-4.72a9.83 9.83 0 0 0-3.297-9.889l-9.889-8.24-9.889 8.24a9.83 9.83 0 0 0-3.296 9.89l1.263 4.72z"/><path fill="#202939" fill-rule="evenodd" d="M42.447 8.378a.4.4 0 0 1 .512 0l9.887 8.24a10.23 10.23 0 0 1 3.43 10.291l-.001.01-6.593 24.722a.4.4 0 0 1-.387.297H36.11a.4.4 0 0 1-.386-.297l-6.595-24.732a10.226 10.226 0 0 1 3.43-10.29l9.888-8.24zm.256.828-9.633 8.028h-.002a9.427 9.427 0 0 0-3.163 9.483l6.512 24.42h12.571l6.512-24.42a9.426 9.426 0 0 0-3.163-9.482l-.001-.001-9.633-8.028z" clip-rule="evenodd"/><path fill="#2E90FA" d="M42.704 30.111a4.944 4.944 0 1 0 0-9.888 4.944 4.944 0 0 0 0 9.889z"/><path fill="#202939" fill-rule="evenodd" d="M40.659 20.23a5.345 5.345 0 1 1 4.09 9.875 5.345 5.345 0 0 1-4.09-9.875zm2.932.48a4.544 4.544 0 1 0-1.774 8.913 4.544 4.544 0 0 0 1.774-8.913zM23.178 64.041c1.331-.894 3.059-1.367 4.693-1.367a.4.4 0 0 1 0 .8c-1.494 0-3.063.436-4.246 1.231-1.179.793-1.947 1.917-1.947 3.314l-.005.355-.007.476c-.004.366-.003.677.009.764a.4.4 0 0 1-.397.453H19.62a7.633 7.633 0 0 0-7.83 7.83.4.4 0 1 1-.8.021 8.431 8.431 0 0 1 8.645-8.651h1.229c0-.138 0-.287.002-.426l.008-.494.004-.328c0-1.732.965-3.08 2.3-3.978zm32.311-.967a.4.4 0 0 1 .4-.4c1.634 0 3.361.473 4.692 1.367 1.336.898 2.3 2.246 2.3 3.978l.005.328a78.557 78.557 0 0 1 .01.92h1.228a8.433 8.433 0 0 1 8.646 8.651.4.4 0 1 1-.8-.02 7.634 7.634 0 0 0-7.83-7.831h-1.66a.4.4 0 0 1-.396-.453c.011-.087.013-.398.009-.764l-.008-.476a26.636 26.636 0 0 1-.005-.355c0-1.397-.768-2.521-1.946-3.314-1.184-.795-2.752-1.23-4.246-1.23a.4.4 0 0 1-.4-.4z" clip-rule="evenodd"/><path fill="#2E90FA" d="M15.502 20c-.017 4.712 2.28 7.388 7.5 7.5-4.845-.018-7.253 2.582-7.5 7.5-.04-4.64-2.12-7.5-7.5-7.5 4.813-.067 7.483-2.39 7.5-7.5z"/><path fill="#202939" fill-rule="evenodd" d="M15.503 19.732c.148 0 .267.12.267.269-.008 2.315.552 4.084 1.711 5.288 1.159 1.204 2.959 1.888 5.527 1.943a.268.268 0 0 1-.007.536c-2.375-.01-4.11.623-5.282 1.818-1.176 1.199-1.828 3.005-1.95 5.427a.268.268 0 0 1-.535-.01c-.02-2.287-.542-4.085-1.676-5.311-1.13-1.222-2.912-1.924-5.556-1.924a.268.268 0 0 1-.004-.536c2.369-.033 4.162-.62 5.367-1.784 1.202-1.16 1.86-2.939 1.87-5.45 0-.147.12-.267.268-.266zm-.007 2.832c-.316 1.355-.904 2.444-1.76 3.27-.837.809-1.914 1.35-3.202 1.65 1.455.32 2.584.943 3.417 1.844.817.884 1.33 2.014 1.596 3.341.334-1.414.923-2.575 1.79-3.458.83-.847 1.899-1.421 3.204-1.725-1.446-.328-2.592-.939-3.446-1.825-.79-.822-1.314-1.862-1.599-3.097z" clip-rule="evenodd"/><path fill="#2E90FA" d="M68 29.389a5.354 5.354 0 0 0 6 6c-3.876-.015-5.803 2.066-6 6a5.303 5.303 0 0 0-6-6 5.354 5.354 0 0 0 6-6z"/><path fill="#202939" fill-rule="evenodd" d="M68 29.139a.25.25 0 0 1 .248.217c.061.47.062.945.004 1.412a5.115 5.115 0 0 0 1.448 2.92 5.103 5.103 0 0 0 3.37 1.49c.298-.027.608-.04.93-.04a.25.25 0 0 1 .032.499 5.604 5.604 0 0 1-.95.042c-1.43.136-2.511.617-3.283 1.404-.822.837-1.323 2.05-1.497 3.647a5.54 5.54 0 0 1-.055.694.25.25 0 0 1-.497-.048c.012-.231.03-.456.053-.676a5.055 5.055 0 0 0-4.363-5.067 5.609 5.609 0 0 1-1.472.004.25.25 0 0 1-.003-.496c.49-.07.985-.074 1.473-.013a5.102 5.102 0 0 0 4.31-4.36 5.604 5.604 0 0 1 .004-1.412.25.25 0 0 1 .248-.217zm0 2.733a5.604 5.604 0 0 1-3.479 3.503 5.554 5.554 0 0 1 3.577 3.77c.28-.97.723-1.779 1.344-2.412.592-.604 1.335-1.035 2.224-1.296A5.606 5.606 0 0 1 68 31.872z" clip-rule="evenodd"/><path fill="#2E90FA" d="M60 6.389a4.014 4.014 0 0 0 4.5 4.5c-2.907-.011-4.352 1.55-4.5 4.5a3.978 3.978 0 0 0-4.5-4.5 4.017 4.017 0 0 0 4.5-4.5z"/><path fill="#202939" fill-rule="evenodd" d="M60 6.139a.25.25 0 0 1 .248.217c.046.356.047.714.004 1.067a3.766 3.766 0 0 0 3.55 3.245c.223-.02.457-.03.699-.03a.25.25 0 0 1 .031.499c-.239.03-.48.041-.72.032-1.058.101-1.853.458-2.418 1.034-.603.615-.975 1.508-1.105 2.695a4.235 4.235 0 0 1-.041.526.25.25 0 0 1-.498-.048c.009-.173.022-.343.04-.508a3.729 3.729 0 0 0-3.21-3.733c-.368.049-.742.05-1.112.002a.25.25 0 0 1-.003-.496c.37-.053.744-.056 1.112-.01a3.76 3.76 0 0 0 2.104-1.062 3.766 3.766 0 0 0 1.067-2.146 4.264 4.264 0 0 1 .004-1.067A.25.25 0 0 1 60 6.14zm0 2.297a4.266 4.266 0 0 1-2.426 2.442 4.227 4.227 0 0 1 2.499 2.611v.004c.214-.65.532-1.2.964-1.64.41-.419.915-.728 1.51-.93A4.265 4.265 0 0 1 60 8.436z" clip-rule="evenodd"/></svg>