<svg xmlns="http://www.w3.org/2000/svg" xmlns:xlink="http://www.w3.org/1999/xlink" viewBox="0 0 101 40"><path d="M 25.97 33.51 L 25.97 15.242 C 25.97 15.097 25.913 14.959 25.811 14.856 C 25.708 14.754 25.57 14.697 25.425 14.697 L 22.658 14.697 C 22.357 14.697 22.114 14.454 22.113 14.153 L 22.113 11.296 C 22.113 11.151 22.17 11.013 22.272 10.91 C 22.375 10.808 22.513 10.751 22.658 10.751 L 29.376 10.751 C 29.52 10.751 29.659 10.809 29.76 10.911 C 29.862 11.013 29.919 11.152 29.919 11.296 L 29.919 33.51 C 29.921 33.73 29.788 33.93 29.584 34.013 C 29.518 34.041 29.447 34.055 29.376 34.055 L 26.514 34.055 C 26.369 34.055 26.231 33.998 26.129 33.896 C 26.027 33.793 25.969 33.655 25.97 33.51 Z M 25.97 6.402 L 25.97 3.542 C 25.97 3.398 26.028 3.26 26.13 3.158 C 26.232 3.057 26.37 3 26.514 3 L 29.376 3 C 29.676 3.001 29.918 3.243 29.919 3.543 L 29.919 6.402 C 29.919 6.702 29.676 6.945 29.376 6.945 L 26.514 6.945 C 26.214 6.945 25.971 6.702 25.97 6.402 Z M 3.934 33.51 L 3.934 30.746 C 3.934 30.445 3.69 30.201 3.389 30.201 L 0.619 30.201 C 0.318 30.201 0.075 29.958 0.074 29.657 L 0.074 22.947 C 0.074 22.803 0.131 22.664 0.234 22.562 C 0.336 22.46 0.475 22.403 0.619 22.403 L 3.389 22.403 C 3.69 22.403 3.934 22.159 3.934 21.858 L 3.934 19.094 C 3.934 18.949 3.991 18.811 4.093 18.708 C 4.196 18.606 4.334 18.549 4.479 18.549 L 15.006 18.549 C 15.15 18.549 15.289 18.492 15.391 18.39 C 15.493 18.289 15.551 18.15 15.551 18.006 L 15.551 15.242 C 15.551 15.097 15.494 14.959 15.392 14.856 C 15.289 14.754 15.151 14.697 15.006 14.697 L 4.476 14.697 C 4.331 14.697 4.193 14.64 4.09 14.538 C 3.988 14.436 3.93 14.298 3.93 14.153 L 3.93 11.296 C 3.93 11.151 3.987 11.013 4.089 10.91 C 4.192 10.808 4.33 10.751 4.475 10.751 L 15.095 10.751 C 15.396 10.751 15.64 10.995 15.64 11.296 L 15.64 14.06 C 15.64 14.205 15.697 14.343 15.799 14.446 C 15.902 14.548 16.04 14.605 16.185 14.605 L 18.953 14.605 C 19.253 14.606 19.497 14.849 19.498 15.149 L 19.498 33.51 C 19.498 33.655 19.441 33.793 19.339 33.896 C 19.236 33.998 19.098 34.055 18.953 34.055 L 4.475 34.055 C 4.176 34.052 3.935 33.809 3.934 33.51 Z M 15.006 22.496 L 4.572 22.496 C 4.271 22.496 4.028 22.739 4.027 23.04 L 4.027 29.613 C 4.027 29.757 4.084 29.896 4.187 29.998 C 4.289 30.1 4.428 30.157 4.572 30.157 L 15.006 30.157 C 15.307 30.157 15.55 29.914 15.551 29.613 L 15.551 23.04 C 15.55 22.739 15.307 22.496 15.006 22.496 Z M 40.416 34.055 L 37.556 34.055 C 37.411 34.056 37.272 33.998 37.17 33.896 C 37.068 33.794 37.01 33.655 37.011 33.51 L 37.011 15.242 C 37.011 15.098 36.954 14.959 36.852 14.857 C 36.751 14.755 36.612 14.697 36.468 14.697 L 33.7 14.697 C 33.399 14.697 33.156 14.454 33.155 14.153 L 33.155 11.296 C 33.156 10.995 33.399 10.752 33.7 10.751 L 36.468 10.751 C 36.768 10.751 37.011 10.508 37.011 10.208 L 37.011 5.516 C 37.013 5.216 37.256 4.974 37.556 4.973 L 40.416 4.973 C 40.561 4.972 40.7 5.029 40.802 5.131 C 40.905 5.233 40.962 5.371 40.962 5.516 L 40.962 10.208 C 40.962 10.352 41.02 10.491 41.122 10.592 C 41.224 10.694 41.363 10.751 41.507 10.751 L 44.274 10.751 C 44.419 10.751 44.557 10.808 44.66 10.91 C 44.762 11.013 44.819 11.151 44.819 11.296 L 44.819 14.153 C 44.818 14.454 44.575 14.697 44.274 14.697 L 41.507 14.697 C 41.206 14.697 40.962 14.941 40.962 15.242 L 40.962 33.51 C 40.961 33.811 40.717 34.055 40.416 34.055 Z" fill="rgb(41, 210, 210)"></path><path d="M 50.235 17.289 L 52.741 10.725 L 53.709 10.725 L 56.204 17.289 L 55.328 17.289 L 54.627 15.517 L 51.775 15.517 L 51.075 17.289 Z M 54.394 14.776 L 53.2 11.616 L 52.02 14.776 Z M 57.519 17.035 C 57.17 16.83 56.886 16.529 56.702 16.168 C 56.503 15.771 56.403 15.332 56.411 14.888 C 56.402 14.445 56.504 14.007 56.708 13.614 C 56.896 13.253 57.184 12.956 57.538 12.756 C 57.913 12.548 58.336 12.443 58.765 12.451 C 59.271 12.429 59.768 12.588 60.167 12.901 C 60.542 13.215 60.787 13.655 60.856 14.139 L 60.078 14.139 C 60.013 13.847 59.846 13.587 59.608 13.407 C 59.359 13.221 59.054 13.125 58.744 13.134 C 58.319 13.12 57.91 13.299 57.633 13.622 C 57.338 13.976 57.185 14.428 57.205 14.888 C 57.184 15.353 57.337 15.809 57.633 16.168 C 57.909 16.492 58.318 16.673 58.744 16.66 C 59.058 16.668 59.367 16.573 59.62 16.388 C 59.86 16.203 60.023 15.936 60.079 15.638 L 60.849 15.638 C 60.774 16.126 60.525 16.571 60.148 16.89 C 59.749 17.203 59.252 17.364 58.746 17.345 C 58.316 17.355 57.892 17.248 57.519 17.035 Z M 66.17 16.585 L 66.17 17.285 L 65.748 17.285 C 65.513 17.307 65.279 17.24 65.091 17.098 C 64.95 16.949 64.876 16.75 64.884 16.545 C 64.523 17.072 63.915 17.373 63.278 17.341 C 62.821 17.364 62.37 17.232 61.997 16.966 C 61.679 16.724 61.498 16.343 61.513 15.944 C 61.488 15.517 61.673 15.104 62.007 14.837 C 62.336 14.582 62.813 14.454 63.437 14.454 L 64.84 14.454 L 64.84 14.124 C 64.854 13.844 64.737 13.574 64.524 13.393 C 64.272 13.205 63.962 13.112 63.648 13.13 C 63.358 13.12 63.072 13.196 62.828 13.35 C 62.621 13.484 62.477 13.696 62.428 13.938 L 61.658 13.938 C 61.696 13.499 61.925 13.098 62.283 12.841 C 62.696 12.563 63.188 12.426 63.685 12.448 C 64.298 12.448 64.772 12.594 65.106 12.892 C 65.441 13.19 65.609 13.615 65.609 14.172 L 65.609 16.235 C 65.609 16.465 65.714 16.585 65.929 16.585 Z M 64.847 15.103 L 63.366 15.103 C 62.652 15.103 62.296 15.369 62.296 15.9 C 62.289 16.126 62.395 16.341 62.579 16.473 C 62.801 16.627 63.068 16.703 63.338 16.688 C 63.741 16.711 64.138 16.578 64.445 16.318 C 64.717 16.066 64.865 15.708 64.85 15.338 L 64.847 15.104 Z M 70.587 17.289 L 70.484 16.52 C 70.111 17.055 69.493 17.364 68.841 17.344 C 68.427 17.352 68.017 17.252 67.653 17.054 C 67.305 16.859 67.021 16.565 66.838 16.21 C 66.632 15.804 66.53 15.352 66.542 14.897 C 66.533 14.454 66.634 14.016 66.838 13.622 C 67.025 13.263 67.309 12.964 67.658 12.759 C 68.018 12.551 68.427 12.445 68.841 12.451 C 69.185 12.442 69.526 12.514 69.837 12.661 C 70.1 12.791 70.324 12.99 70.483 13.237 L 70.483 10.725 L 71.253 10.725 L 71.253 17.289 Z M 70.493 14.916 C 70.498 14.598 70.431 14.282 70.297 13.994 C 70.049 13.458 69.507 13.12 68.917 13.134 C 68.479 13.118 68.057 13.299 67.767 13.628 C 67.185 14.375 67.185 15.421 67.767 16.168 C 68.058 16.496 68.479 16.676 68.917 16.66 C 69.208 16.666 69.495 16.589 69.744 16.439 L 69.737 16.439 C 69.979 16.292 70.174 16.077 70.296 15.821 C 70.431 15.539 70.498 15.229 70.493 14.916 Z M 72.382 13.614 C 72.562 13.257 72.84 12.959 73.184 12.756 C 73.543 12.549 73.952 12.443 74.367 12.451 C 74.772 12.443 75.172 12.536 75.531 12.723 C 75.87 12.9 76.149 13.172 76.336 13.505 C 76.538 13.877 76.644 14.292 76.646 14.715 C 76.646 14.783 76.646 14.89 76.626 15.042 L 72.91 15.042 L 72.91 15.109 C 72.903 15.525 73.058 15.929 73.343 16.233 C 73.624 16.516 74.01 16.669 74.409 16.657 C 74.721 16.667 75.028 16.576 75.285 16.399 C 75.528 16.227 75.7 15.972 75.769 15.681 L 76.549 15.681 C 76.466 16.151 76.217 16.575 75.848 16.877 C 75.458 17.191 74.968 17.356 74.468 17.341 C 74.032 17.351 73.601 17.246 73.218 17.037 C 72.864 16.836 72.575 16.536 72.388 16.174 C 72.186 15.778 72.085 15.338 72.094 14.894 C 72.085 14.45 72.184 14.011 72.383 13.614 Z M 75.842 14.41 C 75.824 14.046 75.66 13.704 75.386 13.463 C 75.102 13.231 74.743 13.111 74.376 13.125 C 73.837 13.116 73.339 13.414 73.092 13.893 C 73.012 14.052 72.962 14.225 72.95 14.403 L 75.841 14.41 Z M 84.626 17.289 L 83.856 17.289 L 83.856 14.579 C 83.882 14.202 83.778 13.828 83.561 13.519 C 83.355 13.271 83.043 13.135 82.721 13.153 C 82.358 13.137 82.008 13.293 81.778 13.575 C 81.53 13.907 81.407 14.315 81.428 14.729 L 81.428 17.289 L 80.658 17.289 L 80.658 14.579 C 80.683 14.201 80.578 13.827 80.358 13.519 C 80.145 13.271 79.829 13.135 79.503 13.153 C 79.14 13.141 78.795 13.308 78.579 13.6 C 78.335 13.939 78.212 14.349 78.229 14.766 L 78.229 17.289 L 77.459 17.289 L 77.459 12.507 L 78.127 12.507 L 78.228 13.164 C 78.544 12.703 79.072 12.434 79.631 12.451 C 79.951 12.444 80.268 12.523 80.547 12.68 C 80.815 12.835 81.024 13.074 81.143 13.36 C 81.487 12.754 82.04 12.451 82.803 12.451 C 83.295 12.428 83.774 12.611 84.125 12.957 C 84.458 13.295 84.626 13.819 84.626 14.533 Z M 85.761 12.507 L 87.236 16.408 L 88.662 12.508 L 89.481 12.508 L 87.274 18.094 C 87.192 18.318 87.092 18.534 86.974 18.742 C 86.896 18.877 86.781 18.987 86.644 19.061 C 86.48 19.136 86.3 19.172 86.119 19.164 L 85.199 19.164 L 85.199 18.464 L 85.884 18.464 C 85.998 18.469 86.112 18.453 86.221 18.418 C 86.293 18.384 86.354 18.33 86.396 18.262 C 86.465 18.147 86.523 18.027 86.571 17.902 L 86.815 17.329 L 84.938 12.511 Z M 92.547 16.173 C 92.145 15.37 92.145 14.425 92.547 13.622 C 92.74 13.261 93.031 12.961 93.387 12.759 C 94.159 12.348 95.085 12.348 95.857 12.759 C 96.213 12.961 96.505 13.261 96.697 13.623 C 97.097 14.426 97.097 15.37 96.697 16.173 C 96.504 16.535 96.213 16.833 95.857 17.035 C 95.086 17.448 94.159 17.448 93.388 17.035 C 93.032 16.833 92.74 16.534 92.548 16.173 Z M 96.011 13.988 C 95.889 13.73 95.695 13.511 95.452 13.36 C 94.939 13.058 94.303 13.058 93.79 13.36 C 93.549 13.512 93.355 13.73 93.233 13.988 C 92.969 14.566 92.969 15.229 93.233 15.807 C 93.355 16.065 93.549 16.283 93.79 16.436 C 94.304 16.735 94.938 16.735 95.452 16.436 C 95.694 16.284 95.888 16.066 96.011 15.808 C 96.273 15.23 96.273 14.566 96.011 13.988 Z M 98.095 11.973 C 98.095 11.548 98.193 11.233 98.39 11.029 C 98.586 10.825 98.904 10.724 99.343 10.725 L 100.219 10.725 L 100.219 11.425 L 99.385 11.425 C 99.239 11.396 99.088 11.442 98.982 11.548 C 98.877 11.653 98.831 11.804 98.859 11.95 L 98.859 12.504 L 100.211 12.504 L 100.211 13.204 L 98.859 13.204 L 98.859 17.284 L 98.089 17.284 L 98.089 13.204 L 97.226 13.204 L 97.226 12.504 L 98.095 12.507 Z M 51.775 19.041 L 51.775 25.605 L 50.959 25.605 L 50.959 19.041 Z M 56.64 21.291 C 56.992 21.641 57.167 22.191 57.167 22.942 L 57.167 25.605 L 56.397 25.605 L 56.397 22.99 C 56.397 22.497 56.285 22.115 56.064 21.86 C 55.819 21.591 55.465 21.447 55.102 21.47 C 54.697 21.454 54.309 21.628 54.051 21.94 C 53.776 22.306 53.64 22.757 53.665 23.214 L 53.665 25.606 L 52.895 25.606 L 52.895 20.825 L 53.551 20.825 L 53.654 21.471 C 54.018 21.004 54.544 20.771 55.232 20.771 C 55.753 20.745 56.262 20.933 56.641 21.292 Z M 57.566 20.825 L 58.43 20.825 L 58.43 19.484 L 59.2 19.484 L 59.2 20.826 L 60.41 20.826 L 60.41 21.526 L 59.2 21.526 L 59.2 24.348 C 59.185 24.5 59.227 24.652 59.317 24.775 C 59.43 24.872 59.578 24.918 59.726 24.902 L 60.562 24.902 L 60.562 25.602 L 59.685 25.602 C 59.235 25.602 58.915 25.502 58.723 25.302 C 58.531 25.103 58.437 24.787 58.437 24.355 L 58.43 21.526 L 57.566 21.526 Z M 61.052 21.93 C 61.232 21.573 61.51 21.276 61.855 21.072 C 62.214 20.865 62.623 20.759 63.038 20.767 C 63.442 20.759 63.843 20.852 64.201 21.039 C 64.539 21.218 64.816 21.492 64.999 21.827 C 65.201 22.198 65.308 22.614 65.309 23.037 C 65.309 23.105 65.309 23.212 65.289 23.364 L 61.574 23.364 L 61.574 23.43 C 61.566 23.847 61.721 24.25 62.005 24.555 C 62.29 24.841 62.682 24.994 63.085 24.977 C 63.397 24.986 63.704 24.896 63.961 24.719 C 64.205 24.547 64.376 24.291 64.445 24.001 L 65.225 24.001 C 65.142 24.471 64.893 24.895 64.524 25.197 C 64.134 25.511 63.645 25.675 63.144 25.661 C 62.709 25.671 62.279 25.566 61.897 25.356 C 61.541 25.156 61.252 24.856 61.066 24.493 C 60.863 24.098 60.761 23.658 60.77 23.213 C 60.759 22.769 60.856 22.329 61.052 21.93 Z M 64.512 22.727 C 64.494 22.362 64.33 22.02 64.056 21.779 C 63.772 21.547 63.412 21.428 63.046 21.442 C 62.507 21.433 62.01 21.73 61.762 22.209 C 61.682 22.369 61.633 22.542 61.62 22.719 Z M 68.191 21.573 C 67.733 21.573 67.407 21.727 67.209 22.034 C 67.003 22.376 66.901 22.77 66.915 23.168 L 66.915 25.605 L 66.145 25.605 L 66.145 20.824 L 66.811 20.824 L 66.915 21.545 C 67.046 21.331 67.226 21.151 67.44 21.02 C 67.721 20.875 68.035 20.807 68.35 20.823 L 68.576 20.823 L 68.576 21.573 Z M 73.484 24.901 L 73.484 25.601 L 73.062 25.601 C 72.828 25.623 72.593 25.557 72.406 25.414 C 72.265 25.265 72.19 25.066 72.199 24.861 C 71.839 25.388 71.231 25.69 70.594 25.658 C 70.137 25.681 69.686 25.549 69.313 25.283 C 68.995 25.041 68.814 24.66 68.829 24.26 C 68.804 23.833 68.988 23.421 69.322 23.154 C 69.651 22.898 70.128 22.77 70.753 22.77 L 72.156 22.77 L 72.156 22.441 C 72.171 22.161 72.055 21.891 71.842 21.709 C 71.59 21.522 71.28 21.429 70.966 21.447 C 70.676 21.437 70.39 21.513 70.146 21.667 C 69.939 21.801 69.795 22.012 69.746 22.254 L 68.975 22.254 C 69.014 21.815 69.241 21.415 69.599 21.158 C 70.012 20.88 70.503 20.742 71 20.764 C 71.611 20.764 72.086 20.911 72.421 21.209 C 72.756 21.506 72.922 21.932 72.922 22.489 L 72.922 24.551 C 72.922 24.785 73.029 24.901 73.243 24.901 Z M 72.161 23.421 L 70.678 23.421 C 69.966 23.421 69.609 23.686 69.609 24.217 C 69.602 24.442 69.707 24.656 69.889 24.789 C 70.112 24.943 70.379 25.019 70.65 25.005 C 71.053 25.028 71.45 24.895 71.758 24.635 C 72.029 24.383 72.176 24.025 72.161 23.655 Z M 74.967 25.351 C 74.617 25.147 74.333 24.846 74.15 24.485 C 73.95 24.088 73.85 23.649 73.859 23.205 C 73.85 22.762 73.951 22.324 74.154 21.93 C 74.343 21.57 74.631 21.272 74.985 21.072 C 75.36 20.865 75.783 20.761 76.211 20.768 C 76.717 20.745 77.215 20.905 77.614 21.218 C 77.988 21.532 78.234 21.973 78.304 22.456 L 77.525 22.456 C 77.459 22.164 77.292 21.904 77.055 21.724 C 76.806 21.538 76.502 21.441 76.192 21.451 C 75.766 21.436 75.356 21.616 75.079 21.939 C 74.784 22.293 74.632 22.745 74.651 23.205 C 74.631 23.67 74.783 24.126 75.079 24.485 C 75.596 25.045 76.447 25.139 77.074 24.705 C 77.314 24.519 77.478 24.252 77.534 23.954 L 78.304 23.954 C 78.228 24.443 77.976 24.888 77.596 25.206 C 77.198 25.519 76.701 25.681 76.194 25.661 C 75.764 25.672 75.34 25.565 74.967 25.351 Z M 79.464 21.526 L 78.6 21.526 L 78.6 20.826 L 79.464 20.826 L 79.464 19.484 L 80.234 19.484 L 80.234 20.825 L 81.444 20.825 L 81.444 21.525 L 80.234 21.525 L 80.234 24.348 C 80.219 24.5 80.261 24.652 80.351 24.775 C 80.464 24.871 80.611 24.917 80.759 24.901 L 81.594 24.901 L 81.594 25.601 L 80.717 25.601 C 80.267 25.601 79.947 25.501 79.755 25.302 C 79.563 25.102 79.468 24.787 79.469 24.355 L 79.464 21.525 Z M 82.973 19.467 C 82.967 19.666 82.844 19.844 82.66 19.919 C 82.475 19.995 82.263 19.955 82.119 19.817 C 82.027 19.724 81.976 19.598 81.979 19.467 C 81.974 19.333 82.025 19.204 82.119 19.109 C 82.214 19.015 82.343 18.964 82.477 18.969 C 82.543 18.968 82.609 18.981 82.67 19.006 C 82.793 19.056 82.89 19.154 82.939 19.277 C 82.963 19.337 82.974 19.402 82.973 19.467 Z M 82.861 25.605 L 82.091 25.605 L 82.091 20.823 L 82.861 20.823 Z M 83.387 20.824 L 84.212 20.824 L 85.658 24.734 L 87.094 20.824 L 87.904 20.824 L 86.11 25.605 L 85.181 25.605 Z M 89.161 21.072 C 89.52 20.865 89.928 20.76 90.342 20.767 C 90.746 20.759 91.146 20.852 91.505 21.039 C 91.843 21.218 92.121 21.492 92.305 21.827 C 92.506 22.199 92.611 22.614 92.613 23.037 C 92.613 23.104 92.613 23.212 92.596 23.364 L 88.879 23.364 L 88.879 23.431 C 88.871 23.847 89.025 24.25 89.309 24.555 C 89.594 24.84 89.986 24.993 90.389 24.977 C 90.701 24.986 91.007 24.896 91.265 24.72 C 91.509 24.55 91.685 24.298 91.76 24.01 L 92.537 24.01 C 92.457 24.48 92.207 24.905 91.837 25.206 C 91.447 25.52 90.958 25.685 90.457 25.67 C 90.022 25.68 89.591 25.575 89.209 25.365 C 88.854 25.165 88.565 24.865 88.379 24.502 C 88.176 24.106 88.075 23.667 88.083 23.222 C 88.068 22.776 88.162 22.332 88.358 21.93 C 88.537 21.572 88.816 21.275 89.16 21.072 Z M 91.36 21.779 C 91.077 21.547 90.718 21.427 90.352 21.442 C 90 21.436 89.659 21.56 89.394 21.792 C 89.12 22.026 88.951 22.36 88.925 22.72 L 91.815 22.727 C 91.808 22.547 91.763 22.369 91.685 22.207 C 91.606 22.044 91.496 21.899 91.36 21.779 Z M 55.262 27.498 L 55.262 28.249 L 53.127 28.249 L 53.127 34.062 L 52.31 34.062 L 52.31 28.249 L 50.18 28.249 L 50.18 27.498 Z M 56.853 29.225 C 57.257 29.216 57.657 29.309 58.016 29.495 C 58.353 29.675 58.63 29.949 58.814 30.283 C 59.016 30.654 59.122 31.07 59.124 31.493 C 59.124 31.561 59.124 31.668 59.105 31.821 L 55.387 31.821 L 55.387 31.889 C 55.38 32.306 55.535 32.71 55.82 33.015 C 56.105 33.301 56.497 33.454 56.9 33.437 C 57.212 33.446 57.519 33.356 57.776 33.179 C 58.02 33.007 58.192 32.752 58.26 32.462 L 59.04 32.462 C 58.957 32.931 58.708 33.355 58.339 33.657 C 57.95 33.971 57.46 34.136 56.96 34.121 C 56.524 34.132 56.093 34.027 55.711 33.817 C 55.356 33.616 55.068 33.316 54.881 32.954 C 54.678 32.558 54.575 32.118 54.585 31.674 C 54.573 31.228 54.67 30.787 54.867 30.387 C 55.047 30.03 55.326 29.732 55.67 29.529 C 56.029 29.322 56.438 29.217 56.853 29.225 Z M 57.871 30.236 C 57.587 30.004 57.228 29.884 56.861 29.899 C 56.51 29.892 56.169 30.017 55.905 30.249 C 55.631 30.483 55.462 30.817 55.435 31.176 L 58.327 31.184 C 58.318 31.004 58.273 30.826 58.195 30.664 C 58.117 30.501 58.007 30.356 57.871 30.236 Z M 63.526 33.663 C 63.127 33.977 62.63 34.138 62.123 34.118 C 61.694 34.128 61.27 34.021 60.897 33.808 C 60.546 33.601 60.263 33.297 60.08 32.933 C 59.88 32.536 59.78 32.097 59.789 31.653 C 59.779 31.21 59.881 30.772 60.085 30.378 C 60.273 30.018 60.562 29.72 60.915 29.52 C 61.29 29.312 61.714 29.207 62.143 29.215 C 62.649 29.192 63.147 29.352 63.545 29.665 C 63.92 29.979 64.165 30.42 64.235 30.904 L 63.457 30.904 C 63.391 30.612 63.225 30.353 62.987 30.172 C 62.738 29.987 62.433 29.891 62.123 29.9 C 61.698 29.885 61.29 30.065 61.013 30.387 C 60.717 30.741 60.565 31.192 60.585 31.653 C 60.564 32.117 60.716 32.573 61.012 32.933 C 61.288 33.257 61.697 33.438 62.123 33.425 C 62.438 33.433 62.746 33.338 63 33.153 C 63.239 32.967 63.403 32.701 63.459 32.403 L 64.229 32.403 C 64.156 32.893 63.906 33.342 63.526 33.663 Z M 69.355 34.062 L 68.585 34.062 L 68.585 31.446 C 68.585 30.952 68.473 30.576 68.247 30.316 C 68 30.047 67.645 29.903 67.281 29.926 C 66.877 29.911 66.488 30.084 66.23 30.396 C 65.954 30.761 65.816 31.213 65.841 31.67 L 65.841 34.062 L 65.071 34.062 L 65.071 27.498 L 65.841 27.498 L 65.841 30.069 C 65.997 29.818 66.211 29.609 66.465 29.459 C 66.755 29.294 67.085 29.213 67.418 29.224 C 67.94 29.201 68.449 29.39 68.829 29.749 C 69.186 30.099 69.362 30.649 69.355 31.399 Z M 74.057 29.75 C 74.407 30.1 74.583 30.65 74.583 31.399 L 74.583 34.062 L 73.813 34.062 L 73.813 31.446 C 73.813 30.952 73.701 30.571 73.48 30.316 C 73.235 30.047 72.881 29.903 72.518 29.926 C 72.113 29.91 71.724 30.084 71.466 30.396 C 71.192 30.762 71.056 31.213 71.081 31.67 L 71.081 34.062 L 70.311 34.062 L 70.311 29.28 L 70.978 29.28 L 71.081 29.926 C 71.443 29.46 71.969 29.226 72.658 29.226 C 73.176 29.203 73.681 29.392 74.057 29.75 Z M 75.652 30.402 C 75.845 30.041 76.137 29.742 76.493 29.539 C 77.265 29.129 78.189 29.129 78.961 29.539 C 79.317 29.741 79.608 30.041 79.801 30.402 C 80.203 31.205 80.203 32.151 79.801 32.954 C 79.609 33.314 79.319 33.613 78.965 33.815 C 78.194 34.229 77.268 34.229 76.497 33.815 L 76.493 33.815 C 76.137 33.613 75.845 33.314 75.652 32.953 C 75.253 32.15 75.253 31.205 75.652 30.402 Z M 79.115 32.588 C 79.379 32.01 79.379 31.346 79.115 30.768 C 78.993 30.51 78.8 30.292 78.558 30.14 C 78.045 29.842 77.41 29.842 76.897 30.14 C 76.653 30.291 76.459 30.51 76.337 30.768 C 76.075 31.346 76.075 32.009 76.337 32.587 C 76.459 32.846 76.653 33.064 76.896 33.216 C 77.41 33.515 78.044 33.515 78.558 33.216 C 78.8 33.064 78.993 32.845 79.115 32.587 Z M 80.937 27.498 L 81.707 27.498 L 81.707 34.062 L 80.937 34.062 Z M 82.842 30.402 C 83.035 30.041 83.327 29.742 83.683 29.539 C 84.455 29.129 85.379 29.129 86.151 29.539 C 86.507 29.741 86.798 30.041 86.991 30.402 C 87.393 31.205 87.393 32.151 86.991 32.954 C 86.798 33.315 86.507 33.613 86.151 33.815 C 85.38 34.229 84.454 34.229 83.683 33.815 C 83.327 33.613 83.035 33.314 82.842 32.953 C 82.442 32.15 82.442 31.205 82.842 30.402 Z M 86.305 32.588 C 86.569 32.01 86.569 31.346 86.305 30.768 C 86.183 30.51 85.99 30.292 85.747 30.14 C 85.234 29.842 84.6 29.842 84.087 30.14 C 83.843 30.291 83.649 30.51 83.527 30.768 C 83.265 31.346 83.265 32.009 83.527 32.587 C 83.649 32.846 83.843 33.064 84.086 33.216 C 84.6 33.515 85.234 33.515 85.748 33.216 C 85.99 33.063 86.183 32.845 86.305 32.587 Z M 92.67 29.28 L 92.67 33.832 C 92.67 35.277 91.877 35.999 90.294 35.998 C 89.756 36.018 89.226 35.867 88.78 35.566 C 88.39 35.284 88.142 34.846 88.1 34.366 L 88.888 34.366 C 88.942 34.656 89.116 34.91 89.367 35.066 C 89.665 35.24 90.007 35.324 90.352 35.31 C 91.386 35.31 91.902 34.807 91.902 33.8 L 91.902 33.237 C 91.558 33.821 91.01 34.112 90.259 34.112 C 89.845 34.12 89.435 34.02 89.071 33.822 C 88.722 33.627 88.439 33.333 88.256 32.978 C 88.05 32.572 87.948 32.12 87.96 31.665 C 87.95 31.222 88.052 30.784 88.256 30.39 C 88.442 30.031 88.726 29.732 89.076 29.527 C 89.436 29.32 89.844 29.213 90.259 29.219 C 90.605 29.209 90.949 29.288 91.255 29.449 C 91.528 29.599 91.753 29.825 91.901 30.099 L 92.005 29.275 L 92.669 29.28 Z M 91.153 33.212 C 91.395 33.065 91.59 32.85 91.713 32.595 C 91.847 32.312 91.914 32.002 91.908 31.689 C 91.913 31.371 91.846 31.056 91.712 30.767 C 91.591 30.506 91.397 30.286 91.153 30.133 C 90.907 29.981 90.622 29.904 90.333 29.909 C 89.895 29.892 89.473 30.072 89.183 30.401 C 88.601 31.148 88.601 32.194 89.183 32.941 C 89.473 33.269 89.895 33.45 90.333 33.433 C 90.621 33.438 90.906 33.362 91.153 33.213 Z M 96.912 29.28 L 97.729 29.28 L 95.523 34.866 C 95.441 35.089 95.34 35.306 95.223 35.513 C 95.145 35.648 95.03 35.758 94.893 35.832 C 94.728 35.908 94.548 35.943 94.367 35.935 L 93.449 35.935 L 93.449 35.235 L 94.134 35.235 C 94.248 35.24 94.362 35.225 94.471 35.19 C 94.544 35.156 94.604 35.101 94.646 35.033 C 94.715 34.918 94.773 34.798 94.821 34.673 L 95.065 34.1 L 93.188 29.282 L 94.011 29.281 L 95.486 33.181 Z" fill="rgb(24, 24, 24)"></path></svg>