<svg xmlns="http://www.w3.org/2000/svg" xmlns:xlink="http://www.w3.org/1999/xlink" viewBox="0 0 112 40"><path d="M 0.22 21 C 0.22 29.54 7.135 36.5 15.72 36.5 C 24.304 36.5 31.298 29.54 31.219 21 C 31.219 16.888 29.629 12.934 26.689 10.008 C 23.826 7.16 19.851 5.5 15.718 5.5 C 7.214 5.5 0.22 12.46 0.22 21 Z M 9.892 31.73 C 8.511 31.73 7.373 30.603 7.373 29.234 C 7.373 27.865 8.511 26.738 9.892 26.738 C 11.272 26.738 12.41 27.865 12.41 29.234 C 12.41 30.604 11.273 31.731 9.892 31.731 Z M 10.46 25.449 C 9.242 25.852 7.942 25.207 7.536 23.919 C 7.34 23.341 7.385 22.708 7.66 22.163 C 7.935 21.618 8.417 21.206 8.998 21.02 L 16.959 18.362 C 17.771 18.12 18.584 18.282 19.234 18.845 C 19.884 19.409 20.127 20.214 19.964 21.02 C 19.802 21.906 19.233 22.55 18.42 22.872 L 10.46 25.45 Z M 22.483 14.738 L 10.46 18.684 C 9.16 19.087 7.86 18.442 7.617 17.234 C 7.421 16.656 7.466 16.023 7.741 15.478 C 8.016 14.933 8.498 14.521 9.079 14.335 L 21.02 10.39 C 21.6 10.194 22.234 10.237 22.783 10.509 C 23.332 10.781 23.75 11.26 23.945 11.84 C 24.141 12.418 24.096 13.051 23.821 13.596 C 23.546 14.141 23.064 14.553 22.483 14.739 Z" fill="rgb(76, 214, 47)" stroke="rgba(0,0,0,1)" stroke-miterlimit="10"></path><path d="M 48.714 13.623 L 48.714 14.183 C 48.714 15.225 47.833 16.026 46.792 16.026 L 39.904 16.026 L 39.904 20.672 L 46.151 20.672 L 46.151 21.312 C 46.151 22.274 45.351 23.075 44.309 23.075 L 39.904 23.075 L 39.904 29.083 L 37.181 29.083 L 37.181 13.623 Z M 65.453 13.623 L 78.187 13.623 L 78.187 14.263 C 78.187 15.225 77.386 16.026 76.345 16.026 L 73.061 16.026 L 73.061 29.082 L 70.418 29.082 L 70.338 16.106 L 65.453 16.106 Z M 92.683 18.429 C 92.683 19.39 92.443 20.272 91.882 21.072 C 91.321 21.874 90.601 22.434 89.721 22.754 C 90.041 23.155 90.361 23.636 90.681 24.196 C 91.001 24.677 91.322 25.238 91.643 25.798 C 91.883 26.359 92.203 26.92 92.523 27.48 C 92.692 27.859 92.875 28.231 93.073 28.596 C 93.161 28.765 93.247 28.928 93.324 29.082 L 90.201 29.082 C 90.15 28.929 90.033 28.711 89.893 28.448 L 89.893 28.447 C 89.814 28.298 89.727 28.135 89.64 27.961 C 89.399 27.4 89.079 26.839 88.759 26.279 L 87.798 24.596 C 87.684 24.426 87.581 24.266 87.484 24.116 L 87.483 24.115 C 87.307 23.842 87.152 23.602 86.997 23.395 C 86.756 23.475 86.516 23.475 86.196 23.475 L 85.396 23.475 C 85.104 23.475 84.835 23.453 84.576 23.433 C 84.336 23.414 84.104 23.395 83.874 23.395 C 83.628 23.395 83.382 23.365 83.192 23.342 C 83.072 23.327 82.975 23.315 82.912 23.315 L 82.912 29.083 L 80.269 29.083 L 80.269 13.623 L 86.837 13.623 C 89.24 13.623 92.603 15.065 92.683 18.429 Z M 83.793 21.152 C 84.355 21.152 84.915 21.232 85.475 21.312 C 86.176 21.316 86.876 21.235 87.558 21.072 C 88.038 20.992 88.519 20.752 88.92 20.512 C 89.24 20.271 89.48 19.95 89.64 19.63 C 89.8 19.23 89.88 18.909 89.88 18.508 C 89.88 18.108 89.8 17.788 89.64 17.468 C 89.479 17.147 89.239 16.826 88.919 16.586 C 88.518 16.346 88.038 16.106 87.558 16.026 C 86.837 15.866 86.116 15.866 85.395 15.866 L 82.913 15.866 L 82.913 21.073 C 83.073 21.073 83.393 21.073 83.793 21.153 Z M 98.449 13.623 L 98.449 26.599 L 104.536 26.599 C 105.497 26.599 106.378 27.4 106.378 28.362 L 106.378 29.083 L 95.726 29.083 L 95.726 13.623 Z M 108.381 13.623 L 111.104 13.623 L 111.104 29.083 L 108.381 29.083 Z M 53.519 22.274 C 53.519 22.754 53.519 23.316 53.599 23.796 C 53.679 24.276 53.759 24.757 53.999 25.238 C 54.27 25.681 54.659 26.041 55.121 26.278 C 56.397 26.839 57.849 26.839 59.125 26.278 C 59.606 26.038 59.927 25.718 60.247 25.238 C 60.487 24.837 60.647 24.356 60.647 23.796 C 60.727 23.235 60.727 22.754 60.727 22.273 L 60.727 13.623 L 63.45 13.623 L 63.45 23.235 C 63.45 24.116 63.29 24.998 62.97 25.798 C 62.665 26.489 62.229 27.114 61.688 27.641 C 61.097 28.137 60.418 28.517 59.686 28.762 C 58.004 29.242 56.242 29.242 54.64 28.762 C 53.919 28.521 53.198 28.201 52.638 27.641 C 52.077 27.16 51.596 26.519 51.356 25.798 C 51.036 24.997 50.876 24.116 50.876 23.235 L 50.796 13.623 L 53.519 13.623 Z" fill="rgb(0, 0, 0)"></path></svg>