<svg xmlns="http://www.w3.org/2000/svg" xmlns:xlink="http://www.w3.org/1999/xlink" viewBox="0 0 56 40"><path d="M 42.367 17.283 L 41.781 18.853 L 39.873 17.93 L 39.32 17.868 L 34.194 17.853 C 34.009 17.822 33.84 17.653 33.764 17.483 C 33.617 17.123 33.627 16.697 33.637 16.272 C 33.642 16.116 33.643 15.961 33.64 15.805 L 33.933 15.805 C 34.055 13.451 34.04 11.111 32.27 9.525 C 30.408 7.756 27.391 7.495 25.006 8.295 C 23.606 8.71 22.451 10.157 22.312 11.604 C 22.282 11.813 22.27 12.029 22.258 12.248 C 22.25 12.465 22.232 12.681 22.205 12.896 L 21.579 13.382 L 21.574 13.385 C 20.662 14.081 19.764 14.796 18.88 15.528 L 22.605 15.528 L 23.005 16.082 L 21.866 18.499 C 21.866 18.53 21.864 18.561 21.862 18.592 C 21.856 18.683 21.851 18.772 21.897 18.852 C 22.083 19.066 22.349 19.06 22.617 19.055 L 22.743 19.053 L 23.39 19.053 L 23.59 20.653 C 20.25 22.5 19.388 26.117 19.403 29.734 L 21.789 29.75 L 22.974 31.95 L 3.243 31.935 C 2.319 31.812 1.412 31.212 0.98 30.335 C 0.796 29.904 0.657 29.472 0.672 28.965 L 0.688 7.585 C 0.811 6.6 1.503 5.6 2.458 5.23 C 2.765 5.096 3.093 5.018 3.428 5 L 32.809 5 L 42.367 17.282 Z M 8.66 24.594 C 8.348 24.104 7.856 23.756 7.291 23.624 C 6.459 23.486 5.69 23.732 5.151 24.378 C 4.612 24.978 4.551 26.041 4.935 26.748 C 5.382 27.564 6.244 27.965 7.167 27.857 C 7.921 27.749 8.66 27.103 8.876 26.363 C 9.076 25.779 8.953 25.087 8.66 24.593 Z" fill="rgb(11, 38, 104)"></path><path d="M 53.879 6.77 C 53.509 5.816 52.509 5.124 51.524 5 L 38.35 5 L 45.26 16.82 C 45.445 16.805 45.66 16.82 45.8 16.975 C 45.884 17.122 45.996 17.259 46.107 17.397 C 46.382 17.737 46.659 18.078 46.538 18.56 C 46.904 18.499 47.075 18.767 47.247 19.036 C 47.335 19.174 47.423 19.312 47.538 19.406 L 47.492 19.884 L 47.538 19.884 C 47.881 19.811 48.056 20.061 48.228 20.307 C 48.311 20.425 48.393 20.543 48.492 20.623 C 48.564 20.839 48.506 21.041 48.45 21.234 C 48.422 21.33 48.395 21.424 48.385 21.515 L 50.478 22.7 C 50.928 22.957 51.12 23.362 51.313 23.768 C 51.444 24.042 51.575 24.318 51.787 24.548 C 51.877 24.73 52.04 24.886 52.201 25.041 C 52.502 25.331 52.798 25.615 52.617 26.056 L 51.387 28.396 C 51.027 28.9 50.475 29.233 49.862 29.319 L 45.092 29.334 L 45.092 31.951 L 51.032 31.951 C 51.587 31.997 52.049 31.843 52.494 31.643 C 53.372 31.213 54.018 30.303 54.111 29.365 L 54.126 11.435 L 54.096 7.51 L 53.88 6.77 Z" fill="rgb(250, 1, 44)"></path><path d="M 25.59 33.258 C 25.867 33.551 25.914 33.92 25.883 34.336 L 25.252 34.336 C 25.267 34.105 25.252 33.889 25.144 33.705 C 25.036 33.597 24.852 33.566 24.728 33.644 L 24.605 33.828 L 24.59 36.136 C 24.62 36.244 24.667 36.398 24.805 36.414 C 24.975 36.429 25.145 36.398 25.205 36.229 C 25.257 36.085 25.253 35.917 25.25 35.753 C 25.247 35.673 25.248 35.593 25.252 35.513 C 25.16 35.505 25.067 35.504 24.975 35.51 C 24.929 35.512 24.882 35.513 24.836 35.513 L 24.836 34.983 L 25.914 34.983 L 25.914 36.937 L 25.605 36.937 L 25.467 36.66 C 25.314 36.889 25.05 37.018 24.775 36.999 C 24.528 36.999 24.328 36.891 24.144 36.721 C 23.944 36.461 23.897 36.152 23.928 35.813 L 23.943 33.767 C 23.974 33.536 24.128 33.32 24.328 33.167 C 24.698 32.951 25.252 32.966 25.59 33.258 Z M 40.982 33.967 L 40.412 34.028 C 40.381 33.859 40.32 33.674 40.15 33.612 C 39.997 33.582 39.828 33.628 39.75 33.782 C 39.648 34.248 39.986 34.516 40.333 34.792 C 40.559 34.972 40.789 35.155 40.905 35.398 C 41.09 35.737 41.15 36.244 40.92 36.583 C 40.659 36.968 40.181 37.029 39.735 36.968 C 39.473 36.906 39.243 36.659 39.135 36.429 L 39.027 35.921 L 39.659 35.829 L 39.667 35.881 C 39.693 36.048 39.719 36.211 39.859 36.337 C 39.951 36.429 40.12 36.414 40.243 36.383 C 40.412 36.306 40.459 36.137 40.427 35.967 C 40.314 35.637 40.039 35.393 39.767 35.151 C 39.381 34.807 38.999 34.468 39.089 33.889 C 39.12 33.643 39.181 33.427 39.366 33.259 C 39.735 32.951 40.412 32.905 40.766 33.289 C 40.92 33.49 41.074 33.752 40.981 33.967 Z M 11.215 33.336 C 11.446 33.612 11.466 33.966 11.451 34.351 L 11.451 35.898 C 11.408 36.418 11.271 36.859 10.646 36.983 C 10.307 37.029 9.953 36.968 9.691 36.753 C 9.476 36.521 9.391 36.244 9.407 35.906 L 9.407 33.766 C 9.453 33.505 9.646 33.258 9.892 33.12 C 10.322 32.966 10.877 32.981 11.215 33.336 Z M 10.739 33.812 C 10.692 33.628 10.507 33.612 10.369 33.612 C 10.23 33.628 10.13 33.705 10.099 33.828 C 10.089 34.361 10.093 34.863 10.096 35.366 C 10.098 35.617 10.099 35.87 10.099 36.126 C 10.099 36.281 10.251 36.398 10.492 36.398 C 10.6 36.383 10.708 36.321 10.738 36.213 L 10.738 33.813 Z M 2.712 33.647 L 2.827 33.074 L 3.705 33.074 L 3.705 36.937 L 3.135 36.937 L 3.135 33.951 C 2.911 34.943 2.705 35.938 2.52 36.937 L 2.196 36.937 L 2.114 36.526 C 1.941 35.666 1.771 34.814 1.611 33.951 L 1.581 33.951 L 1.581 36.937 L 1.011 36.937 L 1.011 33.074 L 1.888 33.074 L 2.35 35.336 C 2.488 34.773 2.6 34.21 2.712 33.647 Z M 6.013 36.514 C 5.998 36.371 5.982 36.229 5.951 36.091 L 5.228 36.091 L 5.105 36.922 L 4.459 36.937 L 5.182 33.074 L 5.998 33.074 L 6.721 36.937 L 6.075 36.937 C 6.043 36.799 6.028 36.656 6.013 36.514 Z M 5.582 33.92 L 5.336 35.483 L 5.829 35.483 Z M 8.506 36.414 C 8.469 36.632 8.324 36.817 8.122 36.906 C 7.96 36.987 7.764 36.99 7.565 36.993 C 7.499 36.993 7.434 36.995 7.368 36.998 L 7.368 36.414 L 7.405 36.414 C 7.58 36.414 7.773 36.416 7.845 36.229 L 7.86 33.074 L 8.522 33.074 Z M 13.832 35.198 L 14.386 36.937 L 13.709 36.937 L 13.263 35.367 C 13.211 35.333 13.149 35.341 13.083 35.351 C 13.03 35.358 12.975 35.366 12.92 35.352 L 12.92 36.937 L 12.247 36.937 L 12.247 33.074 C 12.424 33.09 12.613 33.084 12.803 33.078 C 13.335 33.06 13.871 33.043 14.155 33.52 C 14.34 33.936 14.371 34.536 14.124 34.936 C 14.05 35.046 13.95 35.136 13.832 35.198 Z M 13.539 34.644 C 13.647 34.398 13.678 33.982 13.509 33.752 C 13.408 33.628 13.247 33.635 13.09 33.642 C 13.033 33.646 12.977 33.647 12.92 33.644 L 12.92 34.783 C 12.96 34.783 13.002 34.785 13.044 34.787 C 13.226 34.797 13.414 34.807 13.539 34.644 Z M 17.018 36.337 L 18.064 36.352 L 18.064 36.937 L 16.356 36.937 L 16.356 33.074 L 17.018 33.074 Z M 19.527 33.659 L 19.512 34.644 L 20.374 34.644 L 20.374 35.229 L 19.527 35.229 C 19.52 35.413 19.52 35.598 19.52 35.783 C 19.52 35.967 19.52 36.152 19.512 36.337 C 19.812 36.36 20.114 36.357 20.414 36.354 L 20.712 36.352 L 20.712 36.938 L 18.85 36.938 L 18.85 33.074 L 20.634 33.074 L 20.634 33.659 Z M 23.328 36.922 L 22.698 36.922 L 22.574 36.091 C 22.439 36.07 22.302 36.067 22.166 36.083 C 22.066 36.092 21.966 36.095 21.866 36.091 L 21.728 36.937 L 21.081 36.937 L 21.789 33.074 L 22.62 33.074 Z M 22.451 35.491 L 22.205 33.889 L 21.958 35.491 Z M 27.684 36.414 C 27.853 36.429 28.037 36.399 28.115 36.229 C 28.151 35.61 28.138 34.975 28.125 34.339 C 28.117 33.916 28.108 33.493 28.114 33.073 L 28.792 33.073 L 28.792 36.183 C 28.73 36.46 28.591 36.752 28.315 36.876 C 27.96 37.06 27.391 37.044 27.083 36.783 C 26.821 36.567 26.76 36.275 26.76 35.952 L 26.76 33.074 L 27.43 33.074 L 27.43 36.167 C 27.472 36.284 27.565 36.375 27.683 36.414 Z M 31.285 33.659 L 30.185 33.659 L 30.185 34.644 L 31.039 34.644 L 31.039 35.229 L 30.185 35.229 L 30.185 36.344 L 31.378 36.344 L 31.378 36.937 L 29.515 36.937 L 29.515 33.074 L 31.285 33.074 Z M 38.334 36.922 L 37.688 36.922 L 37.565 36.09 L 36.841 36.09 L 36.718 36.937 L 36.088 36.937 L 36.795 33.074 L 37.626 33.074 Z M 37.457 35.482 L 37.457 35.482 L 37.211 33.874 L 36.964 35.482 L 37.457 35.482 L 37.457 35.483 Z M 34.902 34.921 C 35.132 34.998 35.318 35.23 35.379 35.46 C 35.471 35.876 35.41 36.337 35.164 36.66 C 34.849 36.975 34.399 36.953 33.949 36.933 C 33.744 36.917 33.537 36.919 33.332 36.938 L 33.332 33.074 C 33.505 33.09 33.691 33.084 33.878 33.078 C 34.405 33.061 34.941 33.043 35.225 33.521 C 35.394 33.859 35.41 34.413 35.148 34.721 Z M 34.594 34.475 C 34.702 34.305 34.687 34.013 34.61 33.828 C 34.517 33.629 34.299 33.636 34.103 33.642 C 34.072 33.643 34.04 33.644 34.009 33.644 L 34.009 34.644 C 34.225 34.659 34.456 34.659 34.594 34.474 Z M 34.702 36.121 C 34.763 35.875 34.779 35.551 34.61 35.351 C 34.469 35.211 34.263 35.212 34.063 35.213 L 34.009 35.213 L 34.009 36.383 L 34.333 36.383 C 34.486 36.368 34.656 36.275 34.703 36.121 Z M 42.366 34.645 L 43.213 34.645 L 43.213 35.23 L 42.366 35.23 L 42.366 36.344 L 43.552 36.344 L 43.552 36.937 L 41.69 36.937 L 41.69 33.074 L 43.475 33.074 L 43.475 33.659 L 42.366 33.659 Z M 46.122 33.52 C 46.292 33.859 46.307 34.413 46.045 34.721 L 45.814 34.921 C 46.046 35.015 46.218 35.216 46.276 35.46 C 46.368 35.876 46.322 36.337 46.061 36.66 C 45.746 36.975 45.295 36.954 44.846 36.933 C 44.641 36.917 44.434 36.919 44.229 36.938 L 44.229 33.074 C 44.402 33.09 44.589 33.084 44.776 33.078 C 45.308 33.06 45.849 33.043 46.122 33.52 Z M 45.006 33.642 L 44.906 33.644 L 44.906 34.644 C 45.121 34.659 45.352 34.659 45.491 34.474 C 45.599 34.305 45.584 34.013 45.506 33.828 C 45.414 33.63 45.208 33.636 45.006 33.642 Z M 44.96 35.213 L 44.905 35.213 L 44.905 36.383 L 45.245 36.383 C 45.383 36.368 45.553 36.275 45.599 36.121 C 45.66 35.875 45.676 35.552 45.522 35.352 C 45.38 35.211 45.162 35.212 44.96 35.213 Z M 48.431 36.09 L 47.708 36.09 L 47.584 36.937 L 46.937 36.937 L 47.646 33.074 L 48.477 33.074 L 49.184 36.922 L 48.554 36.922 Z M 47.815 35.483 L 47.815 35.482 L 47.815 35.482 Z M 48.323 35.482 L 48.062 33.874 L 47.815 35.482 Z M 50.493 36.344 L 51.524 36.344 L 51.524 36.937 L 49.831 36.937 L 49.831 33.074 L 50.493 33.074 Z M 53.987 36.937 L 52.279 36.937 L 52.279 33.074 L 52.94 33.074 L 52.94 36.344 L 53.987 36.344 Z M 53.864 32.769 L 53.864 31.823 L 54.195 31.823 C 54.313 31.823 54.399 31.834 54.454 31.857 C 54.551 31.897 54.6 31.977 54.6 32.096 C 54.6 32.181 54.57 32.243 54.508 32.283 C 54.466 32.307 54.419 32.322 54.37 32.328 C 54.435 32.335 54.494 32.368 54.533 32.421 C 54.565 32.464 54.583 32.515 54.585 32.568 L 54.585 32.638 C 54.585 32.66 54.585 32.684 54.587 32.707 C 54.587 32.724 54.59 32.74 54.596 32.757 L 54.602 32.768 L 54.445 32.768 L 54.443 32.758 L 54.443 32.755 C 54.442 32.753 54.441 32.75 54.441 32.748 L 54.437 32.718 L 54.437 32.643 C 54.437 32.533 54.407 32.461 54.348 32.426 C 54.289 32.401 54.225 32.391 54.162 32.396 L 54.032 32.396 L 54.032 32.769 Z M 54.181 32.279 C 54.235 32.281 54.289 32.274 54.34 32.258 C 54.404 32.232 54.437 32.183 54.437 32.11 C 54.437 32.041 54.417 31.995 54.374 31.971 C 54.311 31.943 54.242 31.931 54.173 31.936 L 54.031 31.936 L 54.031 32.279 Z M 54.542 31.502 C 54.647 31.545 54.742 31.609 54.822 31.69 C 54.99 31.858 55.074 32.06 55.074 32.298 C 55.074 32.538 54.99 32.741 54.822 32.91 C 54.663 33.075 54.442 33.167 54.212 33.163 C 53.982 33.168 53.761 33.076 53.602 32.91 C 53.438 32.749 53.348 32.528 53.352 32.298 C 53.349 32.069 53.44 31.849 53.605 31.69 C 53.764 31.527 53.984 31.436 54.212 31.44 C 54.325 31.438 54.437 31.459 54.542 31.502 Z M 54.952 32.298 C 54.955 32.101 54.878 31.911 54.737 31.773 C 54.6 31.631 54.41 31.552 54.212 31.555 C 54.015 31.552 53.825 31.631 53.688 31.773 C 53.547 31.911 53.469 32.101 53.473 32.298 C 53.473 32.504 53.543 32.681 53.687 32.826 C 53.824 32.969 54.014 33.048 54.212 33.044 C 54.417 33.044 54.592 32.971 54.736 32.826 C 54.877 32.687 54.955 32.496 54.952 32.298 Z" fill="rgb(246, 0, 43)"></path></svg>