<svg xmlns="http://www.w3.org/2000/svg" xmlns:xlink="http://www.w3.org/1999/xlink" viewBox="0 0 100 40"><path d="M 11.963 33.868 C 11.466 33.802 10.972 33.716 10.483 33.608 C 9.938 33.475 8.753 33.1 8.693 33.041 C 8.679 33.026 11.089 33.015 14.05 33.017 L 19.435 33.02 L 18.875 33.217 C 16.878 33.922 14.242 34.17 11.963 33.868 Z M 29.063 33.508 L 29.063 33.014 L 35.111 33.014 L 35.111 34 L 29.064 34 L 29.064 33.507 Z M 62.683 33.956 C 61.737 33.837 60.961 33.706 60.547 33.595 C 60.057 33.463 58.897 33.083 58.844 33.038 C 58.829 33.025 61.106 33.015 63.904 33.016 C 66.728 33.017 68.949 33.043 68.894 33.074 C 68.436 33.334 66.769 33.753 65.619 33.898 C 64.892 33.989 63.218 34.022 62.683 33.956 Z M 87.627 33.931 C 86.198 33.82 85.379 33.664 84.242 33.287 L 83.519 33.047 L 86.099 33.03 C 87.518 33.02 89.838 33.02 91.254 33.03 L 93.83 33.047 L 93.407 33.188 C 91.648 33.776 89.382 34.068 87.627 33.931 Z M 5.983 31.51 C 5.713 31.303 5.452 31.084 5.201 30.855 L 4.843 30.521 L 14.027 30.519 L 23.211 30.517 L 22.901 30.797 C 22.785 30.899 22.67 31.004 22.557 31.11 C 22.539 31.129 22.327 31.3 22.087 31.488 L 21.651 31.831 L 6.407 31.831 L 5.983 31.509 Z M 29.063 31.174 L 29.063 30.516 L 35.111 30.516 L 35.111 31.831 L 29.064 31.831 L 29.064 31.174 Z M 56.293 31.444 C 56.05 31.233 55.815 31.014 55.588 30.787 L 55.328 30.517 L 72.538 30.517 L 72.212 30.85 C 72.032 31.034 71.704 31.33 71.482 31.508 L 71.078 31.831 L 56.738 31.831 Z M 80.88 31.522 C 80.623 31.312 80.375 31.094 80.134 30.866 L 79.773 30.518 L 88.677 30.518 L 97.58 30.517 L 97.221 30.883 C 96.987 31.117 96.738 31.337 96.477 31.541 L 96.093 31.831 L 81.264 31.831 Z M 3.59 29.052 C 3.436 28.837 3.288 28.619 3.146 28.397 L 2.906 28.019 L 7.166 28.019 C 10.779 28.019 11.476 28.034 11.75 28.118 C 13.06 28.52 15.152 28.533 16.347 28.146 C 16.726 28.024 16.932 28.019 20.937 28.035 L 25.13 28.052 L 24.71 28.676 L 24.29 29.301 L 14.04 29.315 L 3.791 29.329 L 3.589 29.052 Z M 29.064 28.676 L 29.064 28.019 L 35.11 28.019 L 35.11 29.333 L 29.064 29.333 Z M 54.228 29.054 C 54.044 28.758 53.712 28.114 53.712 28.052 C 53.712 28.032 55.642 28.026 58 28.037 C 61.93 28.057 62.32 28.069 62.65 28.177 C 62.93 28.27 63.22 28.297 63.932 28.297 C 64.644 28.297 64.934 28.27 65.214 28.177 C 65.545 28.069 65.934 28.057 69.864 28.037 C 72.223 28.026 74.153 28.037 74.153 28.062 C 74.153 28.087 73.998 28.383 73.808 28.719 L 73.463 29.331 L 63.933 29.331 L 54.402 29.333 L 54.228 29.053 Z M 78.568 28.89 C 78.427 28.646 78.262 28.35 78.202 28.232 L 78.093 28.019 L 82.353 28.019 C 86.424 28.019 86.629 28.025 86.982 28.149 C 87.589 28.362 88.785 28.49 89.458 28.414 C 90.189 28.331 90.61 28.25 90.971 28.121 C 91.219 28.033 91.793 28.019 95.161 28.019 L 99.061 28.019 L 98.926 28.364 C 98.835 28.588 98.733 28.807 98.621 29.021 L 98.451 29.333 L 78.825 29.333 Z M 2.202 26.59 C 2.113 26.372 2.026 26.153 1.943 25.932 L 1.788 25.522 L 8.407 25.522 L 8.64 25.866 C 8.768 26.056 9.004 26.352 9.164 26.523 L 9.456 26.836 L 2.306 26.836 L 2.202 26.589 Z M 19.023 26.425 C 19.215 26.199 19.44 25.903 19.523 25.768 L 19.675 25.521 L 22.956 25.521 C 24.761 25.521 26.237 25.538 26.237 25.559 C 26.237 25.581 26.127 25.876 25.993 26.217 L 25.749 26.836 L 18.675 26.836 Z M 29.063 26.178 L 29.063 25.521 L 35.111 25.521 L 35.111 26.836 L 29.064 26.836 L 29.064 26.178 Z M 53.063 26.279 C 53.004 26.063 52.957 25.843 52.923 25.622 C 52.923 25.532 53.286 25.522 56.094 25.522 L 59.266 25.522 L 59.453 25.856 C 59.556 26.039 59.72 26.283 59.816 26.398 C 60.226 26.884 60.573 26.836 56.686 26.836 L 53.202 26.836 L 53.062 26.279 Z M 67.867 26.622 C 68.027 26.41 68.178 26.191 68.319 25.965 L 68.599 25.522 L 71.77 25.522 C 73.515 25.522 74.942 25.534 74.942 25.55 C 74.942 25.645 74.742 26.507 74.684 26.657 L 74.616 26.836 L 67.695 26.836 Z M 77.604 26.753 C 77.511 26.405 77.425 26.054 77.346 25.702 L 77.306 25.522 L 83.65 25.522 L 83.835 25.852 C 83.937 26.032 84.168 26.329 84.348 26.509 L 84.675 26.836 L 81.153 26.836 C 78.394 26.836 77.625 26.818 77.603 26.754 Z M 93.179 26.491 C 93.273 26.281 93.341 26.06 93.379 25.833 L 93.419 25.521 L 99.508 25.521 L 99.476 25.833 C 99.459 26.005 99.426 26.293 99.401 26.474 L 99.358 26.803 L 96.188 26.82 L 93.018 26.837 L 93.178 26.491 Z M 1.43 24.256 C 1.341 23.863 1.263 23.468 1.195 23.071 C 1.195 23.045 2.597 23.023 4.311 23.023 L 7.426 23.023 L 7.507 23.369 C 7.552 23.559 7.643 23.854 7.71 24.026 L 7.832 24.338 L 4.642 24.338 C 2.148 24.338 1.449 24.32 1.43 24.256 Z M 20.297 24.19 C 20.324 24.109 20.411 23.82 20.491 23.55 L 20.636 23.056 L 23.732 23.039 C 25.979 23.027 26.829 23.042 26.829 23.095 C 26.829 23.135 26.781 23.432 26.722 23.754 L 26.615 24.338 L 20.247 24.338 Z M 29.064 23.682 L 29.064 23.023 L 38.233 23.023 C 43.276 23.023 47.402 23.037 47.402 23.053 C 47.402 23.124 46.28 23.763 45.702 24.022 L 45.068 24.305 L 37.066 24.323 L 29.064 24.34 Z M 52.702 24.033 C 52.676 23.815 52.662 23.596 52.66 23.376 L 52.66 23.023 L 58.688 23.023 L 58.73 23.473 C 58.753 23.72 58.79 24.015 58.813 24.13 L 58.855 24.338 L 52.744 24.338 Z M 69.048 24.124 C 69.068 24.007 69.105 23.711 69.128 23.467 L 69.173 23.023 L 75.205 23.023 L 75.205 23.178 C 75.205 23.263 75.185 23.558 75.162 23.835 L 75.119 24.338 L 69.011 24.338 Z M 92.655 24.135 C 92.273 23.845 91.702 23.594 90.881 23.355 C 90.584 23.269 90.288 23.181 89.993 23.089 C 89.902 23.059 91.917 23.032 94.534 23.029 L 99.24 23.024 L 99.32 23.5 C 99.364 23.762 99.415 24.058 99.434 24.157 L 99.469 24.338 L 96.193 24.336 L 92.918 24.335 Z M 1.04 21.594 C 1.013 21.381 0.995 21.168 0.985 20.954 L 0.966 20.559 L 4.039 20.542 L 7.112 20.524 L 7.112 20.739 C 7.112 20.857 7.132 21.153 7.155 21.397 L 7.196 21.84 L 1.076 21.84 Z M 20.883 21.265 C 20.895 21.045 20.917 20.826 20.95 20.608 C 20.97 20.544 21.647 20.526 24.043 20.526 L 27.11 20.526 L 27.07 20.772 C 27.042 20.99 27.028 21.21 27.028 21.43 L 27.028 21.84 L 20.84 21.84 L 20.881 21.265 Z M 29.065 21.183 L 29.065 20.526 L 39.285 20.526 C 44.907 20.526 49.506 20.55 49.506 20.579 C 49.506 20.631 48.94 21.505 48.762 21.725 C 48.675 21.834 48.124 21.84 38.867 21.84 L 29.065 21.84 Z M 52.661 21.183 L 52.661 20.526 L 58.707 20.526 L 58.707 21.84 L 52.66 21.84 L 52.66 21.183 Z M 69.159 21.183 L 69.159 20.526 L 75.205 20.526 L 75.205 21.84 L 69.158 21.84 L 69.158 21.183 Z M 85.623 21.809 C 85.437 21.752 85.251 21.696 85.065 21.641 C 83.695 21.234 82.471 20.799 82.124 20.597 C 82.044 20.551 84.494 20.529 89.915 20.527 L 97.822 20.526 L 97.984 20.706 C 98.156 20.899 98.736 21.746 98.736 21.806 C 98.736 21.842 85.737 21.846 85.623 21.809 Z M 42.539 19.364 C 42.539 19.358 42.709 19.269 42.917 19.168 C 43.318 18.972 43.75 18.586 43.955 18.238 L 44.079 18.028 L 50.429 18.028 L 50.386 18.208 C 50.362 18.308 50.279 18.597 50.201 18.85 L 50.059 19.31 L 46.299 19.343 C 44.231 19.361 42.539 19.37 42.539 19.364 Z M 88.309 19.359 L 80.214 19.342 L 80.027 19.126 C 79.774 18.839 79.539 18.537 79.324 18.22 L 79.202 18.028 L 93.642 18.028 L 94.265 18.261 C 94.9 18.497 96.193 19.145 96.368 19.315 C 96.42 19.366 96.45 19.401 96.433 19.392 C 96.416 19.383 92.76 19.368 88.308 19.359 Z M 1.009 18.8 C 1.034 18.502 1.057 18.206 1.059 18.143 C 1.064 18.035 1.256 18.028 4.121 18.028 L 7.177 18.028 L 7.177 18.242 C 7.177 18.359 7.157 18.655 7.135 18.899 L 7.093 19.343 L 0.963 19.343 L 1.008 18.8 Z M 20.914 19.129 C 20.914 19.011 20.894 18.716 20.872 18.472 L 20.83 18.028 L 26.959 18.028 L 26.989 18.176 C 27.006 18.257 27.032 18.553 27.047 18.833 L 27.073 19.343 L 20.913 19.343 L 20.913 19.129 Z M 29.064 18.685 L 29.064 18.028 L 35.112 18.028 L 35.112 19.343 L 29.064 19.343 Z M 52.661 18.685 L 52.661 18.028 L 58.707 18.028 L 58.707 19.343 L 52.66 19.343 L 52.66 18.685 Z M 69.159 18.685 L 69.159 18.028 L 75.205 18.028 L 75.205 19.343 L 69.158 19.343 L 69.158 18.685 Z M 1.216 16.753 C 1.236 16.703 1.302 16.407 1.364 16.096 L 1.476 15.53 L 4.662 15.53 C 7.183 15.53 7.842 15.548 7.817 15.613 C 7.694 15.995 7.577 16.378 7.465 16.763 C 7.448 16.827 6.762 16.845 4.312 16.845 C 1.663 16.845 1.187 16.831 1.216 16.753 Z M 20.516 16.566 C 20.433 16.255 20.335 15.948 20.222 15.646 C 20.179 15.536 20.355 15.53 23.37 15.53 L 26.564 15.53 L 26.598 15.678 C 26.65 15.904 26.829 16.784 26.829 16.816 C 26.829 16.832 25.425 16.845 23.709 16.845 L 20.589 16.845 L 20.517 16.565 Z M 29.064 16.188 L 29.064 15.53 L 35.11 15.53 L 35.11 16.845 L 29.064 16.845 Z M 44.533 16.5 C 44.556 16.31 44.574 16.014 44.575 15.842 L 44.575 15.53 L 50.688 15.53 L 50.688 15.843 C 50.688 16.014 50.668 16.31 50.645 16.5 L 50.605 16.845 L 44.49 16.845 L 44.532 16.5 Z M 52.66 16.188 L 52.66 15.53 L 58.707 15.53 L 58.707 16.845 L 52.66 16.845 Z M 69.158 16.188 L 69.158 15.529 L 72.165 15.546 L 75.172 15.563 L 75.191 16.204 L 75.209 16.845 L 69.158 16.845 L 69.158 16.187 Z M 78.531 16.533 C 78.466 16.318 78.417 16.098 78.386 15.875 L 78.343 15.53 L 81.886 15.53 C 84.663 15.53 85.456 15.549 85.558 15.615 C 85.686 15.698 86.127 15.875 86.707 16.078 C 87 16.179 87.327 16.273 88.284 16.526 C 88.555 16.598 88.925 16.696 89.106 16.746 C 89.39 16.822 88.693 16.835 84.034 16.839 L 78.633 16.845 Z M 1.852 14.348 C 1.852 14.312 1.959 14.016 2.089 13.69 L 2.326 13.099 L 9.497 13.099 L 9.137 13.476 C 8.94 13.682 8.758 13.902 8.592 14.134 L 8.408 14.414 L 5.13 14.414 C 3.004 14.414 1.852 14.39 1.852 14.348 Z M 19.36 14.068 C 19.269 13.939 19.174 13.812 19.075 13.688 L 18.78 13.376 L 18.52 13.097 L 22.123 13.114 L 25.726 13.131 L 25.946 13.657 C 26.301 14.503 26.666 14.413 22.891 14.413 L 19.611 14.413 L 19.361 14.068 Z M 29.064 13.756 L 29.064 13.098 L 35.11 13.098 L 35.11 14.413 L 29.064 14.413 Z M 44.259 14.166 C 44.182 13.959 44.081 13.762 43.959 13.578 C 43.868 13.442 43.778 13.305 43.689 13.167 C 43.661 13.12 44.719 13.098 47.062 13.098 L 50.476 13.098 L 50.515 13.312 C 50.535 13.43 50.573 13.725 50.597 13.969 L 50.641 14.413 L 44.333 14.413 L 44.259 14.167 Z M 52.66 13.756 L 52.66 13.098 L 58.707 13.098 L 58.707 14.413 L 52.66 14.413 Z M 69.158 13.756 L 69.158 13.098 L 75.205 13.098 L 75.205 14.413 L 69.158 14.413 Z M 78.228 14.061 C 78.228 13.867 78.247 13.571 78.27 13.403 L 78.312 13.098 L 81.425 13.098 C 83.137 13.098 84.538 13.11 84.538 13.123 C 84.538 13.137 84.494 13.254 84.439 13.384 C 84.385 13.514 84.341 13.799 84.341 14.017 L 84.341 14.413 L 78.228 14.413 Z M 92.678 14.068 C 92.56 13.838 92.424 13.618 92.27 13.41 L 92.03 13.097 L 95.523 13.114 L 99.016 13.131 L 99.171 13.653 C 99.257 13.941 99.327 14.229 99.327 14.294 C 99.327 14.407 99.167 14.414 96.087 14.414 L 92.847 14.414 L 92.677 14.068 Z M 3.108 11.669 C 3.188 11.533 3.389 11.238 3.553 11.012 L 3.85 10.601 L 24.196 10.601 L 24.45 10.946 C 24.73 11.326 25.054 11.828 25.054 11.881 C 25.054 11.901 23.107 11.915 20.727 11.915 C 16.695 11.915 16.366 11.907 15.912 11.791 C 15.06 11.573 13.905 11.505 12.96 11.617 C 12.508 11.67 11.99 11.759 11.81 11.814 C 11.53 11.899 10.847 11.914 7.22 11.914 L 2.96 11.915 L 3.107 11.669 Z M 29.064 11.258 L 29.064 10.601 L 39.399 10.617 L 49.735 10.634 L 49.946 11.193 C 50.062 11.5 50.158 11.788 50.16 11.833 C 50.162 11.899 48.01 11.915 39.613 11.915 L 29.063 11.915 L 29.063 11.258 Z M 52.66 11.258 L 52.66 10.601 L 58.707 10.601 L 58.707 11.916 L 52.66 11.916 Z M 69.158 11.258 L 69.158 10.601 L 75.205 10.601 L 75.205 11.916 L 69.158 11.916 Z M 78.591 11.703 C 78.651 11.484 78.726 11.27 78.816 11.061 L 78.996 10.634 L 88.4 10.617 L 97.805 10.6 L 98.032 10.979 C 98.158 11.187 98.323 11.483 98.401 11.637 L 98.541 11.917 L 94.35 11.9 L 90.158 11.883 L 89.632 11.723 C 89.178 11.583 88.976 11.562 88.152 11.562 C 87.332 11.562 87.132 11.584 86.707 11.718 C 86.215 11.874 86.204 11.874 82.38 11.896 L 78.546 11.918 Z M 5.237 9.109 C 5.418 8.943 5.776 8.649 6.032 8.455 L 6.498 8.103 L 21.558 8.103 L 22.041 8.478 C 22.306 8.685 22.657 8.98 22.82 9.135 L 23.115 9.416 L 14.012 9.415 L 4.909 9.413 Z M 29.064 8.761 L 29.064 8.103 L 47.833 8.103 L 48.23 8.514 C 48.448 8.74 48.707 9.036 48.806 9.171 L 48.986 9.418 L 29.064 9.418 L 29.064 8.76 Z M 52.66 8.761 L 52.66 8.103 L 58.707 8.103 L 58.707 9.418 L 52.66 9.418 L 52.66 8.76 Z M 69.158 8.761 L 69.158 8.103 L 75.205 8.103 L 75.205 9.418 L 69.158 9.418 L 69.158 8.76 Z M 79.993 9.167 C 80.177 8.934 80.517 8.607 80.943 8.251 L 81.121 8.103 L 95.456 8.103 L 95.896 8.458 C 96.138 8.653 96.468 8.948 96.629 9.115 L 96.922 9.418 L 79.794 9.418 L 79.994 9.168 Z M 9.345 6.72 C 10.655 6.276 12.452 6 14.037 6 C 15.627 6 17.607 6.32 18.876 6.78 L 19.237 6.91 L 8.787 6.91 Z M 29.064 6.46 L 29.064 6 L 35.587 6.001 C 41.697 6.002 42.167 6.011 43.012 6.131 C 43.508 6.201 44.1 6.306 44.327 6.365 C 44.776 6.481 45.827 6.835 45.879 6.888 C 45.897 6.906 42.121 6.92 37.488 6.92 L 29.064 6.92 Z M 52.66 6.503 L 52.66 6.085 L 53.262 6.043 C 53.592 6.019 54.953 6 56.285 6 L 58.707 6 L 58.707 6.92 L 52.66 6.92 Z M 69.158 6.46 L 69.158 6 L 75.205 6 L 75.205 6.92 L 69.158 6.92 Z M 83.289 6.89 C 83.289 6.85 84.03 6.62 84.801 6.422 C 85.695 6.191 87.286 6 88.303 6.002 C 89.248 6.003 90.757 6.178 91.626 6.387 C 92.211 6.527 93.214 6.847 93.214 6.893 C 93.214 6.908 90.981 6.92 88.251 6.92 C 85.522 6.92 83.289 6.907 83.289 6.89 Z" fill="rgb(0, 0, 0)"></path></svg>