<svg xmlns="http://www.w3.org/2000/svg" xmlns:xlink="http://www.w3.org/1999/xlink" viewBox="0 0 72 43"><path d="M 8.484 3 C 12.928 3 16.542 6.077 16.626 10.36 C 16.667 11.565 15.795 12.23 14.839 12.23 C 13.926 12.23 13.137 11.566 13.095 10.443 C 13.053 8.031 11.018 6.243 8.442 6.243 C 6.032 6.243 4.206 7.947 4.206 10.276 C 4.206 12.812 5.909 13.936 9.44 15.224 C 13.219 16.596 16.667 18.218 16.667 23.041 C 16.667 27.241 13.385 30.608 8.817 30.608 C 4.331 30.61 0.634 27.45 0.634 23.167 C 0.634 20.506 1.921 18.634 3.167 18.634 C 4.247 18.634 4.912 19.341 4.912 20.297 C 4.912 21.129 4.206 21.503 4.206 23 C 4.206 25.661 6.366 27.366 8.817 27.366 C 11.392 27.366 13.095 25.578 13.095 23.416 C 13.095 20.755 11.392 19.632 7.862 18.384 C 3.916 16.971 0.634 15.266 0.634 10.568 C 0.634 6.327 4.04 3 8.484 3 Z M 26.611 30.61 C 22.125 30.61 18.388 26.992 18.388 22.418 C 18.388 17.678 22.168 14.144 26.736 14.144 C 31.638 14.144 35.086 17.803 35.086 22.793 L 35.086 28.863 C 35.086 29.903 34.255 30.609 33.299 30.609 C 32.302 30.609 31.471 29.903 31.471 28.863 L 31.471 22.917 C 31.471 19.631 29.601 17.387 26.653 17.387 C 24.036 17.387 21.96 19.59 21.96 22.417 C 21.96 25.037 23.995 27.282 26.57 27.282 C 27.526 27.282 27.942 27.033 28.523 27.033 C 29.313 27.033 30.143 27.698 30.143 28.655 C 30.143 29.943 28.605 30.609 26.611 30.609 Z M 45.32 43 C 40.667 43 36.805 39.673 36.805 35.35 C 36.805 33.894 37.635 33.229 38.591 33.229 C 39.546 33.229 40.335 33.853 40.377 35.059 C 40.418 37.761 42.578 39.757 45.278 39.757 C 48.145 39.757 50.013 37.927 50.013 35.557 C 50.013 32.854 47.937 31.731 44.406 30.608 C 40.294 29.278 36.805 27.448 36.805 22.376 C 36.805 17.718 40.377 14.143 45.029 14.143 C 49.722 14.143 53.585 17.553 53.585 22.043 C 53.585 24.788 52.465 26.908 50.927 26.908 C 49.888 26.908 49.182 26.16 49.182 25.245 C 49.182 24.289 50.013 23.873 50.013 22.169 C 50.013 19.299 47.77 17.387 45.07 17.387 C 42.453 17.387 40.377 19.383 40.377 22.003 C 40.377 24.955 42.495 26.203 45.984 27.367 C 50.014 28.697 53.585 30.36 53.585 35.225 C 53.585 39.591 50.138 43 45.32 43 Z M 63.78 30.61 C 59.127 30.61 55.306 26.95 55.306 22.377 C 55.306 17.803 59.003 14.144 63.571 14.144 C 68.182 14.144 71.671 17.346 71.671 21.421 C 71.671 23.001 70.551 23.957 68.722 23.957 L 63.946 23.957 C 62.99 23.957 62.285 23.293 62.285 22.419 C 62.285 21.587 62.99 20.921 63.945 20.921 L 67.518 20.921 C 67.85 20.921 68.1 20.755 68.1 20.422 C 68.1 19.217 66.563 17.345 63.697 17.345 C 61.039 17.345 58.879 19.632 58.879 22.377 C 58.879 25.163 61.08 27.367 63.822 27.367 C 66.979 27.367 68.018 25.495 69.305 25.495 C 70.385 25.495 70.966 26.202 70.966 26.993 C 70.966 27.741 70.468 28.407 69.222 29.196 C 67.974 29.986 66.106 30.609 63.779 30.609 Z" fill="rgb(0, 214, 57)"></path></svg>