<svg xmlns="http://www.w3.org/2000/svg" xmlns:xlink="http://www.w3.org/1999/xlink" viewBox="0 0 63 40"><path d="M 39.367 2.002 C 38.803 1.976 38.254 2.19 37.856 2.59 C 37.456 2.99 37.243 3.54 37.268 4.105 C 37.244 4.669 37.457 5.218 37.855 5.619 C 38.254 6.018 38.801 6.232 39.365 6.207 C 40.145 6.211 40.774 6.844 40.775 7.624 L 40.775 31.897 C 40.775 32.455 40.995 32.99 41.389 33.384 C 41.781 33.778 42.314 33.999 42.87 33.999 C 43.426 33.999 43.959 33.778 44.351 33.384 C 44.744 32.99 44.964 32.454 44.964 31.897 L 44.964 7.624 C 44.966 6.134 44.377 4.705 43.327 3.648 C 42.278 2.595 40.853 2.003 39.367 2.002 Z M 60.867 26.276 C 60.304 26.251 59.756 26.464 59.358 26.864 C 58.959 27.264 58.746 27.813 58.771 28.378 C 58.77 28.753 58.62 29.112 58.356 29.378 C 58.092 29.643 57.734 29.793 57.36 29.795 L 53.34 29.795 C 52.966 29.793 52.608 29.643 52.344 29.378 C 52.079 29.112 51.93 28.753 51.928 28.378 L 51.928 17.497 L 56.242 17.497 C 56.805 17.522 57.353 17.308 57.75 16.908 C 58.149 16.508 58.362 15.959 58.337 15.394 C 58.374 14.532 57.86 13.742 57.057 13.426 C 56.798 13.325 56.52 13.279 56.242 13.291 L 51.928 13.291 L 51.928 9.583 C 51.92 9.031 51.695 8.505 51.303 8.117 C 50.488 7.312 49.178 7.312 48.363 8.117 C 47.971 8.505 47.747 9.031 47.739 9.583 L 47.739 28.378 C 47.738 29.868 48.327 31.298 49.378 32.354 C 50.428 33.407 51.853 33.999 53.34 34 L 57.358 34 C 58.845 34.002 60.272 33.41 61.321 32.355 C 62.374 31.299 62.964 29.869 62.961 28.378 C 62.985 27.814 62.772 27.265 62.374 26.864 C 61.976 26.465 61.429 26.252 60.866 26.276 Z M 13.107 20.33 L 6.02 20.33 C 5.645 20.33 5.286 20.18 5.022 19.915 C 4.62 19.509 4.501 18.902 4.718 18.374 C 4.936 17.847 5.449 17.5 6.02 17.496 L 12.15 17.496 C 13.637 17.497 15.064 16.905 16.112 15.85 C 17.164 14.795 17.754 13.364 17.751 11.874 C 17.788 11.013 17.274 10.222 16.472 9.907 C 16.212 9.806 15.934 9.76 15.656 9.772 C 15.093 9.747 14.546 9.961 14.148 10.36 C 13.749 10.76 13.536 11.309 13.561 11.874 C 13.559 12.249 13.41 12.608 13.145 12.874 C 12.881 13.139 12.523 13.289 12.149 13.291 L 6.02 13.291 C 4.534 13.291 3.109 13.884 2.06 14.937 C -0.13 17.135 -0.13 20.689 2.06 22.887 C 3.109 23.94 4.534 24.533 6.02 24.534 L 13.108 24.534 C 13.887 24.541 14.516 25.173 14.519 25.952 L 14.519 28.378 C 14.517 28.753 14.368 29.112 14.104 29.378 C 13.84 29.643 13.482 29.793 13.108 29.795 L 6.093 29.795 C 5.719 29.793 5.36 29.643 5.096 29.378 C 4.832 29.112 4.682 28.753 4.681 28.378 C 4.705 27.813 4.493 27.264 4.094 26.864 C 3.696 26.465 3.148 26.251 2.585 26.276 C 2.022 26.251 1.474 26.464 1.077 26.864 C 0.678 27.264 0.466 27.814 0.491 28.378 C 0.49 29.868 1.08 31.298 2.131 32.354 C 3.181 33.407 4.606 33.999 6.093 34 L 13.107 34 C 14.594 34.001 16.02 33.409 17.069 32.354 C 18.121 31.299 18.711 29.868 18.709 28.378 L 18.709 25.952 C 18.71 24.462 18.12 23.032 17.069 21.975 C 16.019 20.922 14.594 20.33 13.107 20.33 Z M 32.853 29.795 L 25.766 29.795 C 25.392 29.793 25.034 29.643 24.77 29.378 C 24.505 29.112 24.356 28.753 24.354 28.378 L 24.354 25.952 C 24.357 25.172 24.986 24.54 25.766 24.534 L 32.853 24.534 C 33.631 24.542 34.259 25.173 34.264 25.951 L 34.264 28.378 C 34.263 28.753 34.114 29.113 33.849 29.378 C 33.585 29.643 33.227 29.793 32.853 29.795 Z M 32.853 13.291 L 26.648 13.291 C 26.274 13.289 25.915 13.139 25.651 12.874 C 25.386 12.608 25.237 12.249 25.235 11.874 C 25.227 11.322 25.002 10.796 24.61 10.408 C 23.795 9.603 22.485 9.603 21.67 10.408 C 21.278 10.796 21.054 11.322 21.046 11.874 C 21.046 13.364 21.635 14.794 22.686 15.85 C 23.736 16.903 25.161 17.495 26.648 17.496 L 32.853 17.496 C 33.432 17.485 33.96 17.829 34.182 18.364 C 34.329 18.715 34.329 19.109 34.182 19.46 C 34.036 19.811 33.755 20.088 33.402 20.23 C 33.227 20.3 33.041 20.333 32.853 20.33 L 25.766 20.33 C 24.279 20.328 22.852 20.92 21.803 21.975 C 20.75 23.031 20.16 24.461 20.163 25.952 L 20.163 28.378 C 20.162 29.868 20.752 31.298 21.803 32.354 C 22.853 33.408 24.279 34 25.767 34 L 32.854 34 C 34.341 34.001 35.767 33.409 36.816 32.354 C 37.868 31.299 38.458 29.868 38.456 28.378 L 38.456 25.952 C 38.458 24.672 38.023 23.43 37.223 22.432 C 38.223 21.181 38.644 19.563 38.379 17.983 C 38.115 16.404 37.19 15.011 35.837 14.154 C 34.944 13.59 33.909 13.29 32.852 13.29" fill="rgb(2, 183, 245)"></path></svg>