<svg xmlns="http://www.w3.org/2000/svg" xmlns:xlink="http://www.w3.org/1999/xlink" viewBox="0 0 136 40"><path d="M 0.582 10.434 L 4.304 10.434 L 4.379 10.359 L 4.379 9.075 L 4.454 9.003 L 5.372 9.003 L 5.447 9.075 L 5.447 12.895 L 5.372 12.969 L 4.454 12.969 L 4.379 12.894 L 4.379 11.62 L 4.304 11.545 L 0.582 11.545 L 0.508 11.473 L 0.508 10.51 L 0.582 10.435 Z M 5.447 16.57 L 5.447 17.537 L 5.372 17.608 L 0.582 17.608 L 0.508 17.537 L 0.508 16.57 L 0.582 16.498 L 2.372 16.498 L 2.446 16.424 L 2.446 14.827 L 2.372 14.755 L 0.582 14.755 L 0.508 14.681 L 0.508 13.717 L 0.582 13.642 L 5.372 13.642 L 5.447 13.717 L 5.447 14.681 L 5.372 14.756 L 3.589 14.756 L 3.514 14.827 L 3.514 16.424 L 3.589 16.499 L 5.372 16.499 Z M 5.447 18.466 L 5.447 22.282 L 5.372 22.357 L 4.454 22.357 L 4.379 22.282 L 4.379 19.576 L 4.304 19.504 L 3.59 19.504 L 3.515 19.576 L 3.515 22.282 L 3.44 22.357 L 2.522 22.357 L 2.447 22.282 L 2.447 19.576 L 2.373 19.504 L 1.648 19.504 L 1.576 19.576 L 1.576 22.282 L 1.501 22.357 L 0.582 22.357 L 0.508 22.282 L 0.508 18.466 L 0.582 18.391 L 5.372 18.391 Z M 23.484 30.504 L 20.587 27.602 C 20.226 27.24 20.092 26.875 20.092 26.382 L 20.092 9.334 L 20.422 9.004 L 24.7 9.004 L 25.03 9.334 L 25.03 24.636 C 25.03 24.867 25.13 25.098 25.294 25.263 L 26.019 25.989 C 26.185 26.156 26.41 26.251 26.645 26.254 L 31.155 26.254 C 31.39 26.251 31.614 26.156 31.78 25.989 L 32.505 25.263 C 32.671 25.096 32.766 24.871 32.769 24.636 L 32.769 9.334 L 33.099 9.004 L 37.379 9.004 L 37.709 9.334 L 37.709 26.382 C 37.709 26.878 37.577 27.24 37.213 27.602 L 34.316 30.504 C 33.955 30.866 33.591 31 33.099 31 L 24.699 31 C 24.208 30.997 23.844 30.866 23.483 30.504 Z M 39.678 30.67 L 39.678 9.334 L 40.008 9.004 L 43.628 9.004 L 44.153 9.334 L 52.22 21.599 L 52.55 21.599 L 52.55 9.334 L 52.876 9.004 L 56.959 9.004 L 57.289 9.334 L 57.289 30.669 L 56.959 30.997 L 53.337 30.997 L 52.811 30.669 L 44.748 18.566 L 44.418 18.566 L 44.418 30.67 L 44.088 30.997 L 40.008 30.997 L 39.678 30.669 Z M 76.383 12.399 L 73.485 9.496 C 73.125 9.134 72.76 9 72.27 9 L 59.596 9 L 59.266 9.33 L 59.266 30.666 L 59.596 30.996 L 72.27 30.996 C 72.764 30.996 73.125 30.866 73.486 30.501 L 76.384 27.598 C 76.744 27.237 76.879 26.872 76.879 26.379 L 76.879 13.618 C 76.875 13.125 76.745 12.76 76.384 12.398 Z M 71.939 24.633 C 71.939 24.863 71.839 25.095 71.674 25.26 L 70.949 25.986 C 70.783 26.153 70.558 26.248 70.323 26.251 L 64.53 26.251 L 64.2 25.921 L 64.2 14.082 L 64.53 13.752 L 70.324 13.752 C 70.554 13.752 70.785 13.852 70.95 14.017 L 71.675 14.743 C 71.842 14.909 71.937 15.134 71.94 15.37 L 71.94 24.633 Z M 93.365 22.953 L 93.365 22.623 L 95.833 20.15 C 96.193 19.788 96.328 19.423 96.328 18.93 L 96.328 13.62 C 96.328 13.125 96.197 12.763 95.833 12.402 L 92.935 9.499 C 92.575 9.137 92.21 9.003 91.719 9.003 L 79.177 9.003 L 78.847 9.333 L 78.847 30.67 L 79.177 31.001 L 83.456 31.001 L 83.786 30.671 L 83.786 23.877 L 84.116 23.547 L 87.178 23.547 L 94.155 30.997 L 96.132 30.997 L 96.462 30.667 L 96.462 26.249 L 93.365 22.954 Z M 91.392 17.181 C 91.392 17.412 91.292 17.643 91.127 17.808 L 90.402 18.535 C 90.236 18.702 90.012 18.797 89.777 18.8 L 84.116 18.8 L 83.786 18.47 L 83.786 14.082 L 84.116 13.752 L 89.776 13.752 C 90.011 13.755 90.236 13.85 90.402 14.017 L 91.127 14.743 C 91.294 14.909 91.389 15.134 91.392 15.37 Z M 98.765 9.003 L 115.717 9.003 L 116.047 9.333 L 116.047 13.421 L 115.717 13.751 L 103.704 13.751 L 103.374 14.079 L 103.374 17.278 L 103.704 17.608 L 115.717 17.608 L 116.047 17.939 L 116.047 22.027 L 115.717 22.357 L 103.704 22.357 L 103.374 22.687 L 103.374 25.921 L 103.704 26.248 L 115.717 26.248 L 116.047 26.578 L 116.047 30.669 L 115.717 30.997 L 98.765 30.997 L 98.435 30.669 L 98.435 9.334 L 98.765 9.004 Z M 135.139 12.399 L 132.242 9.496 C 131.881 9.134 131.517 9 131.025 9 L 118.353 9 L 118.023 9.33 L 118.023 30.666 L 118.353 30.996 L 131.025 30.996 C 131.52 30.996 131.881 30.866 132.242 30.501 L 135.139 27.598 C 135.5 27.237 135.634 26.872 135.634 26.379 L 135.634 13.618 C 135.631 13.125 135.5 12.76 135.139 12.398 Z M 130.695 24.633 C 130.695 24.863 130.595 25.095 130.43 25.26 L 129.705 25.986 C 129.539 26.153 129.315 26.248 129.08 26.251 L 123.285 26.251 L 122.955 25.921 L 122.955 14.082 L 123.285 13.752 L 129.08 13.752 C 129.31 13.752 129.54 13.852 129.705 14.017 L 130.43 14.743 C 130.597 14.909 130.692 15.134 130.695 15.37 Z M 0.508 23.426 L 0.508 30.669 L 0.838 30.997 L 5.117 30.997 L 5.447 30.669 L 5.447 23.426 L 0.507 23.426 Z M 17.788 9.003 L 13.51 9.003 L 13.18 9.333 L 13.18 17.278 L 12.853 17.608 L 6.504 17.608 L 6.504 22.358 L 12.852 22.358 L 13.179 22.688 L 13.179 30.67 L 13.509 30.997 L 17.789 30.997 L 18.119 30.669 L 18.119 9.334 L 17.789 9.004 Z" fill="rgb(0, 0, 0)"></path></svg>